<svg width="374" height="136" viewBox="0 0 374 136" fill="none" xmlns="http://www.w3.org/2000/svg">
<path d="M257.23 17.7026C256.182 20.804 258.298 29.6747 247.098 34.1824C241.729 36.343 234.778 37.127 228.663 38.0219" stroke="black" stroke-width="2" stroke-linecap="round"/>
<path d="M211.532 126.433C211.29 123.168 215.55 115.105 205.827 107.948" stroke="black" stroke-width="2" stroke-linecap="round"/>
<path d="M108.097 94.4731C113.847 91.2706 120.051 88.2761 125.191 84.1424C128.338 81.611 130.611 75.8961 128.681 71.9698C126.536 67.6051 121.57 68.4189 119.294 73.0921C117.02 77.7654 120.212 84.3936 124.197 86.9508" stroke="black" stroke-width="2" stroke-linecap="round" stroke-linejoin="round"/>
<path d="M369.21 84.9551L263.023 62.3857L262.591 69.355L369.21 84.9551Z" fill="black"/>
<path d="M239.364 92.0328L369.21 84.9551L239.984 82.0514L239.364 92.0328Z" fill="black"/>
<path d="M369.21 84.9551L239.364 92.0328L239.984 82.0514M369.21 84.9551L263.023 62.3857M369.21 84.9551L284.667 51.7751L263.023 62.3857M369.21 84.9551L262.591 69.355M369.21 84.9551L239.984 82.0514M263.023 62.3857L262.591 69.355M262.591 69.355L253.018 67.9544L224.517 81.7039L239.984 82.0514" stroke="black" stroke-width="2"/>
<path d="M236.076 67.8726C236.076 67.8726 149.04 56.5298 82.4961 48.207" stroke="black" stroke-width="2" stroke-linecap="round" stroke-dasharray="1 8"/>
<path d="M254.767 62.6875C254.767 62.6875 174.689 49.8681 113.372 41.2165C52.0559 32.5649 6.48242 26.2656 6.48242 26.2656" stroke="black" stroke-width="2" stroke-linecap="round" stroke-dasharray="1 8"/>
</svg>
