<svg width="147" height="223" viewBox="0 0 147 223" fill="none" xmlns="http://www.w3.org/2000/svg">
<path d="M38.5371 150.277C41.5208 148.713 52.8505 144.245 74.3414 144.245C95.2272 144.245 105.67 149.16 107.908 150.277" stroke="black" stroke-width="1.65483"/>
<path d="M110.947 146.146C110.947 139.608 93.4579 134.705 72.536 134.705C51.6141 134.705 34.942 139.613 34.942 146.151M110.947 146.146C110.947 152.684 92.1502 155.953 72.536 155.953C52.9217 155.953 34.942 152.689 34.942 146.151M110.947 146.146L110.947 162.496C107.678 164.403 95.2649 169.851 71.7188 169.851C48.8355 169.851 37.3938 163.858 34.942 162.496V146.151" stroke="black" stroke-width="1.65483"/>
<path d="M106.043 164.944L98.6876 216.432C95.9634 217.794 86.7556 221.434 71.718 221.434C56.6804 221.434 48.5623 217.794 46.383 216.432L39.8449 164.127" stroke="black" stroke-width="1.65483"/>
<path d="M78.4265 93.801H66.5088V151.247C66.5169 151.251 66.5251 151.254 66.5334 151.257C66.8609 151.391 67.3385 151.571 67.9282 151.751C69.1121 152.112 70.7239 152.469 72.4676 152.469C74.2113 152.469 75.8232 152.112 77.0071 151.751C77.5968 151.571 78.0744 151.391 78.4019 151.257C78.4102 151.254 78.4184 151.251 78.4265 151.247V93.801Z" fill="#F9F5F0" stroke="black" stroke-width="1.65483"/>
<path d="M90.2005 51.8502C88.5979 60.6698 77.8207 63.0833 71.7695 62.7944C70.8278 61.1661 68.9009 55.471 68.7269 45.7172C68.5528 35.9635 86.9646 17.3328 96.9098 9.35057C94.9474 12.4757 92.6272 21.4896 91.78 26.8589C90.1916 36.925 92.2038 40.8256 90.2005 51.8502Z" fill="black" stroke="black" stroke-width="1.65483"/>
<path d="M60.72 33.4204C65.1517 10.4652 83.1346 14.9293 97.9141 8.54736C92.9881 16.0697 74.3775 28.102 71.3129 38.3779C68.3578 48.2864 69.7544 55.2966 70.5762 62.4352C67.62 60.6544 56.4689 55.4396 60.72 33.4204Z" fill="#F9F5F0" stroke="black" stroke-width="1.65483"/>
<path d="M97.3731 58.1181C93.8823 62.9163 86.2142 60.5794 82.8165 58.8111C82.7489 57.5986 83.2988 53.7185 86.0393 47.8983C88.7799 42.0781 105.559 36.4223 113.606 34.322C112.239 35.9676 108.863 39.891 106.304 42.4201C103.105 45.5813 101.737 52.1204 97.3731 58.1181Z" fill="black" stroke="black" stroke-width="1.65483"/>
<path d="M84.675 38.4091C93.9105 25.9895 102.958 33.3789 113.32 33.502C108.295 36.6549 94.0824 38.8656 89.3262 44.14C84.7402 49.2258 83.5021 53.7445 81.8959 58.1875C80.7136 56.3529 75.8161 50.3224 84.675 38.4091Z" fill="#F9F5F0" stroke="black" stroke-width="1.65483"/>
<path d="M44.7089 62.316C50.6687 68.933 59.5594 73.6269 64.1926 70.678C64.1926 61.7923 65.3634 60.1534 54.8397 47.2909C51.0881 43.8427 48.7342 40.0319 35.2028 37.4545C26.8404 35.8616 24.8337 34.2524 22.4955 34.2528C22.4955 34.2528 27.1698 38.9291 31.847 44.7757C36.5242 50.6223 44.7089 62.316 44.7089 62.316Z" fill="black" stroke="black" stroke-width="1.65483"/>
<path d="M63.4188 44.7727C55.8274 28.1217 35.2409 31.7711 20.1543 33.0796C28.0529 37.1302 44.5883 36.9093 52.4793 44.083C60.0882 51.0001 62.8264 62.7433 65.9739 69.0476C67.3651 66.2434 71.8204 63.201 63.4188 44.7727Z" fill="#F9F5F0" stroke="black" stroke-width="1.65483"/>
<path d="M107.325 84.3255C99.7237 92.1158 85.9981 93.172 79.9041 88.4648C80.0214 86.1238 81.8517 78.9331 88.2349 68.8979C94.6181 58.8627 127.628 54.6448 143.334 53.7902C136.668 55.2957 127.313 56.465 119.92 65.4369C110.476 76.8977 116.826 74.5875 107.325 84.3255Z" fill="black" stroke="black" stroke-width="1.65483"/>
<path d="M88.7278 57.6326C105.758 34.926 124.032 49.823 143.686 54.1201C133.504 58.1686 105.939 55.1131 95.8386 63.3165C86.0996 71.2264 82.8331 79.3663 78.883 87.2173C77.0094 83.2521 74.6961 76.3415 88.7278 57.6326Z" fill="#F9F5F0" stroke="black" stroke-width="1.65483"/>
<path d="M43.1264 89.1919C51.3305 92.2434 58.8237 86.611 61.5935 81.4205C60.6949 79.8249 56.8716 75.3844 48.7674 70.3863C40.6632 65.3882 15.0214 72.0081 3.36755 76.3312C6.56915 75.1881 13.3566 77.6859 18.5704 78.6699C25.0875 79.9 32.8712 85.3775 43.1264 89.1919Z" fill="black" stroke="black" stroke-width="1.65483"/>
<path d="M42.4454 57.5774C20.9625 49.8524 15.7594 67.0716 3.04297 76.2227C11.812 75.857 31.1806 66.322 41.3354 68.8787C51.1271 71.344 56.3188 75.9967 61.9044 80.2339C61.8805 76.8823 63.0523 64.9875 42.4454 57.5774Z" fill="#F9F5F0" stroke="black" stroke-width="1.65483"/>
<path d="M58.3874 101.089C64.7895 100.531 66.8311 91.8713 67.0517 87.6112C65.957 86.8468 62.0317 85.1312 55.0888 84.3841C48.1459 83.6369 33.6243 96.3689 27.2314 102.828C29.521 102.474 35.0428 101.521 38.8133 100.541C43.5265 99.3166 50.3849 101.787 58.3874 101.089Z" fill="black" stroke="black" stroke-width="1.65483"/>
<path d="M46.8815 77.9741C30.2003 79.6093 32.116 92.5002 26.5234 102.451C32.2347 99.48 42.1264 87.2063 49.67 85.7168C56.9437 84.2805 61.8441 85.7087 66.8765 86.7422C65.8151 84.556 62.8825 76.4056 46.8815 77.9741Z" fill="#F9F5F0" stroke="black" stroke-width="1.65483"/>
<path d="M93.1189 90.4981C106.521 110.209 91.1999 119.637 85.7852 134.651C83.7371 125.747 87.7018 103.953 82.4314 94.3693C77.3496 85.1279 71.4012 81.0436 65.749 76.4622C69.0153 75.669 80.2632 71.591 93.1189 90.4981Z" fill="#F9F5F0" stroke="black" stroke-width="1.65483"/>
<path d="M64.6738 99.7356C59.4569 92.2329 60.3808 81.1117 64.67 77.0621C66.4681 77.5764 71.8352 80.3369 78.9179 87.2645C86.0006 94.1921 85.7511 121.46 84.7409 134.229C83.0379 131.407 81.3043 123.444 78.918 118.443C75.9351 112.192 71.1949 109.114 64.6738 99.7356Z" fill="black" stroke="black" stroke-width="1.65483"/>
<path d="M93.1228 90.4962C106.525 110.207 91.2038 119.635 85.7891 134.649C83.741 125.745 87.7057 103.951 82.4353 94.3673C77.3535 85.1259 71.4051 81.0417 65.7529 76.4602C69.0192 75.6671 80.2671 71.5891 93.1228 90.4962Z" fill="#F9F5F0" stroke="black" stroke-width="1.65483"/>
<path d="M102.306 92.702C96.8076 90.4715 97.2261 82.4661 98.1227 78.7422C99.2832 78.3842 103.181 77.9821 109.491 79.238C115.8 80.4939 125.336 95.4138 129.315 102.717C127.388 101.786 122.766 99.4569 119.695 97.5832C115.855 95.2412 109.179 95.4901 102.306 92.702Z" fill="black" stroke="black" stroke-width="1.65483"/>
<path d="M118.362 75.9682C132.643 81.9355 127.653 92.4977 130.033 102.584C125.761 98.4677 120.188 85.2079 113.922 81.8643C107.88 78.6403 103.196 78.5286 98.4973 78.0415C99.9925 76.4516 104.664 70.2442 118.362 75.9682Z" fill="#F9F5F0" stroke="black" stroke-width="1.65483"/>
<path d="M64.1075 80.7283C59.8484 78.9117 62.3706 70.0496 64.164 65.8457C65.2857 65.3167 68.8385 64.421 74.0762 65.0704C79.3139 65.7198 83.7288 81.0374 85.2815 88.6151C83.829 87.8146 80.3712 85.7872 78.1607 84.0814C75.3976 81.9492 69.4313 82.999 64.1075 80.7283Z" fill="black" stroke="black" stroke-width="1.65483"/>
<path d="M82.876 60.0669C93.8908 64.9769 86.6421 77.1849 86.0332 88.0127C83.365 83.9774 82.0052 70.0269 77.3673 67.0741C72.8952 64.2268 68.7862 64.6482 64.7647 64.658C66.5135 62.7338 72.3104 55.3571 82.876 60.0669Z" fill="#F9F5F0" stroke="black" stroke-width="1.65483"/>
<path d="M88.3027 151.865C83.7786 150.356 81.5165 150.356 79.2544 151.111C76.9923 151.865 73.9762 152.619 71.7141 152.619C69.452 152.618 65.6818 151.111 64.1738 151.111C62.6657 151.111 58.8956 151.864 57.3875 152.619" stroke="black" stroke-width="1.65483"/>
</svg>
