<svg width="450" height="451" viewBox="0 0 450 451" fill="none" xmlns="http://www.w3.org/2000/svg">
<rect x="49.7227" y="95.5" width="201.244" height="136.023" fill="white" stroke="black"/>
<rect x="54.3965" y="99.7112" width="191.658" height="127.439" stroke="black"/>
<path d="M16.8777 290.717L48.9636 231.358H250.652L282.738 290.717H16.8777Z" fill="white" stroke="black"/>
<path d="M38.0956 270.146L55.6558 238.52H243.959L261.519 270.146H38.0956Z" fill="black" stroke="black"/>
<rect x="16.5391" y="290.086" width="266.537" height="3.89397" fill="black" stroke="black"/>
<circle cx="149.7" cy="130.794" r="17.3972" fill="white" stroke="black"/>
<path d="M171.902 132.864L178.3 133.317" stroke="black"/>
<path d="M122 129.329L128.398 129.782" stroke="black"/>
<path d="M138.947 150.279L135.652 155.855" stroke="black"/>
<path d="M164.648 106.792L161.353 112.367" stroke="black"/>
<path d="M139.475 110.577L136.334 104.475" stroke="black"/>
<mask id="path-12-inside-1_9261_68588" fill="white">
<path fill-rule="evenodd" clip-rule="evenodd" d="M147.166 138.93L159.226 126.87L155.78 123.425L147.166 132.039L143.416 128.29L139.971 131.735L147.166 138.931L147.166 138.93L147.166 138.93Z"/>
</mask>
<path fill-rule="evenodd" clip-rule="evenodd" d="M147.166 138.93L159.226 126.87L155.78 123.425L147.166 132.039L143.416 128.29L139.971 131.735L147.166 138.931L147.166 138.93L147.166 138.93Z" fill="black"/>
<path d="M159.226 126.87L159.933 127.578L160.64 126.87L159.933 126.163L159.226 126.87ZM147.166 138.93L146.461 139.64L147.168 140.342L147.873 139.637L147.166 138.93ZM155.78 123.425L156.487 122.718L155.78 122.011L155.073 122.718L155.78 123.425ZM147.166 132.039L146.459 132.746L147.166 133.453L147.873 132.746L147.166 132.039ZM143.416 128.29L144.123 127.583L143.416 126.876L142.709 127.583L143.416 128.29ZM139.971 131.735L139.264 131.028L138.556 131.735L139.264 132.443L139.971 131.735ZM147.166 138.931L146.459 139.638L147.165 140.344L147.872 139.638L147.166 138.931ZM147.166 138.93L147.871 138.221L147.165 137.519L146.46 138.223L147.166 138.93ZM158.519 126.163L146.459 138.223L147.873 139.637L159.933 127.578L158.519 126.163ZM155.073 124.132L158.519 127.578L159.933 126.163L156.487 122.718L155.073 124.132ZM147.873 132.746L156.487 124.132L155.073 122.718L146.459 131.332L147.873 132.746ZM142.709 128.997L146.459 132.746L147.873 131.332L144.123 127.583L142.709 128.997ZM140.678 132.443L144.123 128.997L142.709 127.583L139.264 131.028L140.678 132.443ZM147.873 138.223L140.678 131.028L139.264 132.443L146.459 139.638L147.873 138.223ZM146.46 138.223L146.459 138.223L147.872 139.638L147.873 139.638L146.46 138.223ZM147.871 138.221L147.871 138.221L146.461 139.64L146.461 139.64L147.871 138.221Z" fill="black" mask="url(#path-12-inside-1_9261_68588)"/>
<path d="M61.7676 166.589C61.7676 163.376 64.3718 160.772 67.5842 160.772H238.687V172.405H67.5842C64.3718 172.405 61.7676 169.801 61.7676 166.589Z" fill="white" stroke="black"/>
<path d="M61.7676 196.066C61.7676 192.854 64.3718 190.25 67.5842 190.25H238.687V201.883H67.5842C64.3718 201.883 61.7676 199.279 61.7676 196.066Z" fill="white" stroke="black"/>
<path d="M61.7676 181.327C61.7676 178.115 64.3718 175.511 67.5842 175.511H238.687V187.144H67.5842C64.3718 187.144 61.7676 184.54 61.7676 181.327Z" fill="white" stroke="black"/>
<path d="M61.7676 210.805C61.7676 207.593 64.3718 204.989 67.5842 204.989H238.687V216.622H67.5842C64.3718 216.622 61.7676 214.018 61.7676 210.805Z" fill="white" stroke="black"/>
<path d="M61.7831 227.15C62.0411 223.007 65.4824 219.727 69.6898 219.727H238.687V227.15H61.7831Z" fill="white" stroke="black"/>
<line x1="76.0059" y1="181.88" x2="97.0614" y2="181.88" stroke="black"/>
<line x1="204.445" y1="181.88" x2="233.923" y2="181.88" stroke="black"/>
<line x1="76.0059" y1="196.619" x2="105.484" y2="196.619" stroke="black"/>
<line x1="217.078" y1="196.619" x2="233.923" y2="196.619" stroke="black"/>
<line x1="76.0059" y1="211.358" x2="97.0614" y2="211.358" stroke="black"/>
<line x1="204.445" y1="211.358" x2="233.923" y2="211.358" stroke="black"/>
<line x1="76.0059" y1="167.141" x2="105.484" y2="167.141" stroke="black"/>
<line x1="217.078" y1="167.141" x2="233.923" y2="167.141" stroke="black"/>
<path fill-rule="evenodd" clip-rule="evenodd" d="M337.846 136.489L345.346 188.991C348.126 190.381 357.524 193.161 372.872 193.161C388.219 193.161 396.505 190.381 398.729 188.991L405.396 136.539C399.539 138.808 388.969 141.707 372.874 141.707C355.599 141.707 344.172 138.839 337.846 136.489ZM339.289 136.443L404.006 136.493C398.004 138.658 387.849 141.178 372.874 141.178C356.75 141.178 345.761 138.67 339.289 136.443Z" fill="white"/>
<path d="M345.346 188.991L344.851 189.062L344.888 189.321L345.122 189.438L345.346 188.991ZM337.846 136.489L338.02 136.02L337.232 135.728L337.351 136.56L337.846 136.489ZM398.729 188.991L398.994 189.415L399.195 189.289L399.225 189.054L398.729 188.991ZM405.396 136.539L405.892 136.602L405.998 135.77L405.216 136.073L405.396 136.539ZM339.289 136.443L339.29 135.943L339.127 136.916L339.289 136.443ZM404.006 136.493L404.176 136.964L404.007 135.993L404.006 136.493ZM345.841 188.92L338.341 136.418L337.351 136.56L344.851 189.062L345.841 188.92ZM372.872 192.661C357.567 192.661 348.255 189.887 345.57 188.544L345.122 189.438C347.997 190.876 357.481 193.661 372.872 193.661V192.661ZM398.464 188.567C397.427 189.215 394.868 190.243 390.622 191.108C386.39 191.969 380.516 192.661 372.872 192.661V193.661C380.575 193.661 386.517 192.964 390.821 192.087C395.111 191.214 397.807 190.157 398.994 189.415L398.464 188.567ZM404.9 136.476L398.233 188.928L399.225 189.054L405.892 136.602L404.9 136.476ZM405.216 136.073C399.416 138.32 388.907 141.207 372.874 141.207V142.207C389.031 142.207 399.662 139.297 405.577 137.005L405.216 136.073ZM372.874 141.207C355.655 141.207 344.287 138.348 338.02 136.02L337.672 136.958C344.057 139.329 355.543 142.207 372.874 142.207V141.207ZM339.289 136.943L404.006 136.993L404.007 135.993L339.29 135.943L339.289 136.943ZM372.874 141.678C387.906 141.678 398.119 139.148 404.176 136.964L403.837 136.023C397.889 138.168 387.791 140.678 372.874 140.678V141.678ZM339.127 136.916C345.654 139.162 356.698 141.678 372.874 141.678V140.678C356.802 140.678 345.869 138.178 339.452 135.97L339.127 136.916Z" fill="black"/>
<path d="M332.838 133.935V117.253H410.41V133.935C407.908 135.326 396.231 141.442 372.875 141.442C348.844 141.442 336.174 135.882 332.838 133.935Z" fill="white" stroke="black"/>
<path d="M372.041 105.576C350.688 105.576 332.838 110.581 332.838 117.254C332.838 123.926 352.022 127.263 372.041 127.263C392.06 127.263 410.41 123.926 410.41 117.254C410.41 110.581 393.395 105.576 372.041 105.576Z" fill="white" stroke="black"/>
<path d="M354.005 82.5738C355.641 91.5753 366.641 94.0385 372.817 93.7438C373.778 92.0819 375.744 86.2693 375.922 76.3145C376.1 66.3596 357.308 47.3447 347.158 39.1978C349.161 42.3874 351.529 51.5872 352.393 57.0672C354.014 67.3409 351.961 71.3219 354.005 82.5738Z" fill="black" stroke="black"/>
<path d="M384.1 63.7669C379.577 40.3383 361.223 44.8944 346.139 38.3809C351.166 46.0583 370.161 58.3388 373.289 68.8266C376.305 78.9394 374.879 86.0942 374.04 93.3799C377.058 91.5624 388.439 86.2401 384.1 63.7669Z" fill="white" stroke="black"/>
<path d="M347.973 90.4039C351.798 95.5918 359.775 93.3741 363.286 91.6168C363.317 90.3371 362.611 86.2169 359.541 79.9733C356.47 73.7297 338.659 67.1968 330.137 64.7108C331.628 66.4956 335.303 70.7549 338.074 73.5131C341.539 76.9607 343.192 83.919 347.973 90.4039Z" fill="black" stroke="black"/>
<path d="M360.662 69.9946C350.552 56.5596 341.293 64.0734 330.412 63.8616C335.794 67.3607 350.796 70.1668 355.966 75.9C360.95 81.428 362.4 86.2461 364.233 90.9963C365.415 89.0958 370.36 82.8817 360.662 69.9946Z" fill="white" stroke="black"/>
<path d="M397.348 101.684C391.006 108.673 380.126 100.105 375.355 97.1338C375.53 87.9059 374.342 86.2269 385.564 72.6618C392.061 64.8081 413.836 69.0909 426.505 66.5819C424.071 68.9646 418.754 74.984 414.319 78.6071C408.777 83.1361 405.276 92.9473 397.348 101.684Z" fill="black" stroke="black"/>
<path d="M382.946 71.2913C397.387 51.3901 411.418 64.7458 427.117 65.8076C418.805 70.1698 398.805 64.9648 390.439 72.5702C382.373 79.9036 377.827 94.4727 374.423 101.082C373.028 98.197 369.398 89.9626 382.946 71.2913Z" fill="white" stroke="black"/>
<path d="M336.534 115.731C344.292 123.682 358.301 124.76 364.52 119.956C364.401 117.566 362.533 110.227 356.018 99.9853C349.503 89.7432 317.088 85.9439 301.057 85.0717C307.861 86.6082 316.134 87.2961 323.679 96.453C333.318 108.15 326.837 105.792 336.534 115.731Z" fill="black" stroke="black"/>
<path d="M355.511 88.4887C338.13 65.3139 319.479 80.5181 299.42 84.9038C309.811 89.0358 337.945 85.9173 348.253 94.2898C358.193 102.363 361.527 110.671 365.559 118.684C367.471 114.637 369.832 107.584 355.511 88.4887Z" fill="white" stroke="black"/>
<path d="M402.055 120.697C393.682 123.811 386.034 118.063 383.207 112.765C384.124 111.137 388.026 106.605 396.298 101.504C404.569 96.4024 430.74 103.159 442.634 107.571C439.366 106.404 432.439 108.954 427.117 109.958C420.466 111.214 412.522 116.804 402.055 120.697Z" fill="black" stroke="black"/>
<path d="M402.752 88.4285C424.678 80.5442 429.988 98.1185 442.967 107.458C434.017 107.085 414.249 97.3534 403.885 99.9629C393.891 102.479 388.592 107.228 382.892 111.552C382.916 108.132 381.72 95.9914 402.752 88.4285Z" fill="white" stroke="black"/>
<path d="M386.481 132.841C379.947 132.271 377.863 123.433 377.638 119.085C378.755 118.305 382.761 116.554 389.847 115.792C396.933 115.029 411.777 127.844 418.301 134.437C415.965 134.075 410.307 133.282 406.458 132.282C401.648 131.032 394.648 133.553 386.481 132.841Z" fill="black" stroke="black"/>
<path d="M398.216 109.242C415.241 110.911 413.286 124.068 418.994 134.224C413.165 131.192 403.069 118.665 395.37 117.145C387.947 115.679 382.945 117.136 377.809 118.191C378.892 115.96 381.885 107.641 398.216 109.242Z" fill="white" stroke="black"/>
<path d="M351.033 122.022C337.354 142.139 352.991 151.762 358.518 167.085C360.608 157.998 356.561 135.755 361.941 125.973C367.127 116.541 373.198 112.372 378.967 107.696C375.633 106.887 364.154 102.725 351.033 122.022Z" fill="white" stroke="black"/>
<path d="M380.065 131.447C385.389 123.789 384.446 112.439 380.069 108.306C378.234 108.831 372.756 111.648 365.527 118.718C358.298 125.789 358.136 153.803 359.167 166.834C360.905 163.955 363.092 155.644 365.527 150.54C368.571 144.16 373.409 141.018 380.065 131.447Z" fill="black" stroke="black"/>
<path d="M351.035 122.027C337.356 142.144 352.993 151.767 358.52 167.09C360.61 158.003 356.563 135.76 361.942 125.978C367.129 116.546 373.2 112.377 378.969 107.702C375.635 106.892 364.155 102.73 351.035 122.027Z" fill="white" stroke="black"/>
<path d="M341.656 124.27C347.268 121.993 346.841 113.823 345.926 110.022C344.741 109.657 340.763 109.246 334.323 110.528C327.884 111.81 318.152 127.037 314.09 134.491C316.057 133.541 320.774 131.164 323.909 129.252C327.828 126.861 334.641 127.115 341.656 124.27Z" fill="black" stroke="black"/>
<path d="M325.269 107.188C310.694 113.279 315.786 124.059 313.357 134.353C317.717 130.152 323.406 116.619 329.801 113.206C335.967 109.915 340.748 109.801 345.544 109.304C344.018 107.682 339.25 101.346 325.269 107.188Z" fill="white" stroke="black"/>
<path d="M377.883 115.02C384.853 112.166 383.827 102.318 382.442 97.7509C380.921 97.333 375.859 96.9148 367.782 98.5854C359.705 100.256 347.718 118.806 343.019 127.876C345.453 126.692 351.852 123.74 355.708 121.373C360.527 118.413 369.17 118.588 377.883 115.02Z" fill="black" stroke="black"/>
<path d="M356.103 94.3151C338.011 101.943 345.099 114.849 342.635 127.314C347.906 122.162 354.304 105.727 362.198 101.487C369.81 97.3982 375.857 97.1684 381.9 96.4759C379.871 94.548 373.458 86.9978 356.103 94.3151Z" fill="white" stroke="black"/>
<mask id="mask0_9261_68588" style="mask-type:alpha" maskUnits="userSpaceOnUse" x="183" y="123" width="318" height="328">
<rect x="183" y="123" width="317.896" height="327.919" fill="#C4C4C4"/>
</mask>
<g mask="url(#mask0_9261_68588)">
<mask id="path-51-inside-2_9261_68588" fill="white">
<path fill-rule="evenodd" clip-rule="evenodd" d="M371.992 239.32C371.488 240.325 371.025 241.361 370.603 242.426C370.179 243.496 369.807 244.574 369.484 245.657L339.647 321.053C339.161 322.029 338.713 323.034 338.305 324.066C330.462 343.87 340.159 366.282 359.964 374.124C379.768 381.967 402.18 372.27 410.022 352.465C410.289 351.791 410.536 351.114 410.762 350.434L410.765 350.436L441.573 272.587C441.835 272.009 442.084 271.422 442.32 270.826C442.559 270.224 442.781 269.62 442.987 269.014L443.589 267.494L443.482 267.451C449.036 248.539 439.348 228.167 420.661 220.767C401.975 213.367 380.966 221.583 372.067 239.172L372.053 239.166L371.992 239.32Z"/>
</mask>
<path fill-rule="evenodd" clip-rule="evenodd" d="M371.992 239.32C371.488 240.325 371.025 241.361 370.603 242.426C370.179 243.496 369.807 244.574 369.484 245.657L339.647 321.053C339.161 322.029 338.713 323.034 338.305 324.066C330.462 343.87 340.159 366.282 359.964 374.124C379.768 381.967 402.18 372.27 410.022 352.465C410.289 351.791 410.536 351.114 410.762 350.434L410.765 350.436L441.573 272.587C441.835 272.009 442.084 271.422 442.32 270.826C442.559 270.224 442.781 269.62 442.987 269.014L443.589 267.494L443.482 267.451C449.036 248.539 439.348 228.167 420.661 220.767C401.975 213.367 380.966 221.583 372.067 239.172L372.053 239.166L371.992 239.32Z" fill="white"/>
<path d="M371.992 239.32L372.886 239.768L372.906 239.729L372.922 239.688L371.992 239.32ZM369.484 245.657L370.414 246.025L370.43 245.985L370.442 245.943L369.484 245.657ZM339.647 321.053L340.542 321.498L340.561 321.46L340.577 321.421L339.647 321.053ZM410.762 350.434L411.13 349.505L410.148 349.116L409.814 350.118L410.762 350.434ZM410.765 350.436L410.397 351.365L411.327 351.734L411.695 350.804L410.765 350.436ZM441.573 272.587L440.662 272.174L440.652 272.196L440.643 272.219L441.573 272.587ZM442.987 269.014L442.057 268.646L442.048 268.669L442.04 268.692L442.987 269.014ZM443.589 267.494L444.518 267.862L444.886 266.932L443.957 266.564L443.589 267.494ZM443.482 267.451L442.522 267.17L442.265 268.045L443.114 268.381L443.482 267.451ZM372.067 239.172L371.698 240.101L372.547 240.437L372.959 239.623L372.067 239.172ZM372.053 239.166L372.421 238.236L371.491 237.868L371.123 238.798L372.053 239.166ZM371.098 238.872C370.581 239.904 370.106 240.966 369.673 242.058L371.533 242.794C371.944 241.756 372.396 240.747 372.886 239.768L371.098 238.872ZM369.673 242.058C369.239 243.155 368.856 244.261 368.526 245.372L370.442 245.943C370.757 244.888 371.12 243.837 371.533 242.794L369.673 242.058ZM340.577 321.421L370.414 246.025L368.554 245.289L338.717 320.685L340.577 321.421ZM338.751 320.608C338.254 321.609 337.794 322.639 337.375 323.698L339.234 324.434C339.633 323.428 340.069 322.449 340.542 321.498L338.751 320.608ZM337.375 323.698C329.329 344.015 339.278 367.008 359.595 375.054L360.332 373.195C341.041 365.556 331.595 343.725 339.234 324.434L337.375 323.698ZM359.595 375.054C379.913 383.1 402.906 373.151 410.952 352.834L409.092 352.097C401.453 371.388 379.622 380.834 360.332 373.195L359.595 375.054ZM410.952 352.834C411.226 352.142 411.479 351.448 411.711 350.751L409.814 350.118C409.593 350.78 409.353 351.44 409.092 352.097L410.952 352.834ZM411.133 349.506L411.13 349.505L410.394 351.364L410.397 351.365L411.133 349.506ZM440.643 272.219L409.835 350.068L411.695 350.804L442.503 272.955L440.643 272.219ZM442.484 273C442.752 272.407 443.008 271.805 443.25 271.194L441.391 270.458C441.161 271.039 440.918 271.611 440.662 272.174L442.484 273ZM443.25 271.194C443.495 270.577 443.722 269.957 443.934 269.336L442.04 268.692C441.839 269.282 441.623 269.871 441.391 270.458L443.25 271.194ZM442.659 267.126L442.057 268.646L443.917 269.382L444.518 267.862L442.659 267.126ZM443.114 268.381L443.22 268.423L443.957 266.564L443.85 266.522L443.114 268.381ZM444.441 267.733C450.14 248.329 440.201 227.429 421.03 219.837L420.293 221.697C438.495 228.905 447.932 248.748 442.522 267.17L444.441 267.733ZM421.03 219.837C401.858 212.246 380.305 220.675 371.174 238.72L372.959 239.623C381.627 222.492 402.092 214.489 420.293 221.697L421.03 219.837ZM371.685 240.096L371.698 240.101L372.435 238.242L372.421 238.236L371.685 240.096ZM372.922 239.688L372.983 239.534L371.123 238.798L371.062 238.952L372.922 239.688Z" fill="black" mask="url(#path-51-inside-2_9261_68588)"/>
<path d="M403.575 349.92C397.141 366.166 378.755 374.122 362.508 367.688C346.262 361.254 338.306 342.868 344.74 326.621C345.205 325.447 345.742 324.044 346.351 322.456C350.028 312.854 356.297 296.483 364.928 282.778C369.957 274.792 375.761 267.758 382.278 263.498C388.774 259.252 395.967 257.766 403.858 260.831C411.75 263.896 416.1 269.893 418.091 277.481C420.088 285.092 419.704 294.288 418.1 303.662C415.139 320.971 408.051 338.711 404.406 347.835C404.104 348.591 403.825 349.287 403.575 349.92Z" fill="black" stroke="black"/>
<path d="M167.994 473.526C179.869 459.061 233.016 404.026 244.337 388.968C273.88 349.678 340.345 335.414 350.658 322.518C351.804 321.085 355.88 321.473 355.88 321.473C356.925 321.473 360.314 310.048 362.148 306.327C371.276 287.809 376.25 254.619 403.41 265.065C430.569 275.511 406.543 315.728 401.576 325.925C396.608 336.122 394.198 341.843 395.053 343.41C395.907 344.977 400.022 354.378 395.381 359.019C385.666 368.735 374.008 373.916 359.759 402.414C348.359 425.212 313.989 473.659 298.229 495.032L287.676 513.255L167.994 473.526Z" fill="white"/>
<path d="M350.658 322.518C340.345 335.414 273.88 349.678 244.337 388.968C233.016 404.026 179.869 459.061 167.994 473.526L287.676 513.255L298.229 495.032C313.989 473.659 348.359 425.212 359.759 402.414C374.008 373.916 385.666 368.735 395.381 359.019C400.022 354.378 395.907 344.977 395.053 343.41C394.198 341.843 396.608 336.122 401.576 325.925C406.543 315.728 430.569 275.511 403.41 265.065C376.25 254.619 371.276 287.809 362.148 306.327C360.314 310.048 356.925 321.473 355.88 321.473M350.658 322.518C351.804 321.085 355.88 321.473 355.88 321.473M350.658 322.518L355.88 321.473" stroke="black"/>
<path d="M395.355 359.785C400.843 350.103 393.204 335.404 378.295 326.955C363.385 318.505 348.325 320.499 340.592 328.75" stroke="black" stroke-linecap="round"/>
<mask id="path-57-inside-3_9261_68588" fill="white">
<path fill-rule="evenodd" clip-rule="evenodd" d="M354.191 228.53C354.217 227.894 354.228 227.254 354.223 226.61C354.048 205.31 336.64 188.185 315.34 188.359C294.04 188.534 276.915 205.942 277.089 227.242C277.099 228.402 277.159 229.549 277.269 230.683L278.103 313.196C278.02 314.283 277.982 315.382 277.992 316.491C278.166 337.791 295.574 354.916 316.874 354.742C338.174 354.568 355.299 337.159 355.125 315.86C355.119 315.135 355.093 314.415 355.048 313.7L355.052 313.7L354.191 228.53Z"/>
</mask>
<path fill-rule="evenodd" clip-rule="evenodd" d="M354.191 228.53C354.217 227.894 354.228 227.254 354.223 226.61C354.048 205.31 336.64 188.185 315.34 188.359C294.04 188.534 276.915 205.942 277.089 227.242C277.099 228.402 277.159 229.549 277.269 230.683L278.103 313.196C278.02 314.283 277.982 315.382 277.992 316.491C278.166 337.791 295.574 354.916 316.874 354.742C338.174 354.568 355.299 337.159 355.125 315.86C355.119 315.135 355.093 314.415 355.048 313.7L355.052 313.7L354.191 228.53Z" fill="white"/>
<path d="M354.191 228.53L353.192 228.489L353.191 228.515L353.191 228.54L354.191 228.53ZM277.269 230.683L278.269 230.672L278.268 230.629L278.264 230.586L277.269 230.683ZM278.103 313.196L279.1 313.272L279.104 313.229L279.103 313.186L278.103 313.196ZM355.048 313.7L355.039 312.7L353.983 312.709L354.05 313.764L355.048 313.7ZM355.052 313.7L355.061 314.7L356.063 314.692L356.052 313.69L355.052 313.7ZM355.19 228.571C355.217 227.918 355.228 227.262 355.223 226.602L353.223 226.618C353.228 227.246 353.217 227.869 353.192 228.489L355.19 228.571ZM355.223 226.602C355.044 204.75 337.184 187.181 315.332 187.359L315.348 189.359C336.096 189.19 353.053 205.871 353.223 226.618L355.223 226.602ZM315.332 187.359C293.48 187.538 275.91 205.398 276.089 227.25L278.089 227.234C277.919 206.486 294.601 189.529 315.348 189.359L315.332 187.359ZM276.089 227.25C276.099 228.44 276.161 229.616 276.274 230.779L278.264 230.586C278.158 229.482 278.098 228.364 278.089 227.234L276.089 227.25ZM279.103 313.186L278.269 230.672L276.269 230.693L277.103 313.206L279.103 313.186ZM277.106 313.12C277.021 314.235 276.982 315.362 276.992 316.499L278.992 316.483C278.983 315.402 279.02 314.331 279.1 313.272L277.106 313.12ZM276.992 316.499C277.171 338.351 295.03 355.921 316.882 355.742L316.866 353.742C296.118 353.912 279.161 337.231 278.992 316.483L276.992 316.499ZM316.882 355.742C338.734 355.563 356.304 337.703 356.125 315.851L354.125 315.868C354.295 336.615 337.613 353.572 316.866 353.742L316.882 355.742ZM356.125 315.851C356.119 315.108 356.092 314.37 356.046 313.637L354.05 313.764C354.094 314.46 354.119 315.161 354.125 315.868L356.125 315.851ZM355.044 312.7L355.039 312.7L355.056 314.7L355.061 314.7L355.044 312.7ZM353.191 228.54L354.053 313.71L356.052 313.69L355.191 228.52L353.191 228.54Z" fill="black" mask="url(#path-57-inside-3_9261_68588)"/>
<path d="M348.192 315.924C348.335 333.398 334.286 347.679 316.812 347.822C299.339 347.965 285.057 333.916 284.914 316.442C284.899 314.545 284.812 312.278 284.714 309.741C284.352 300.325 283.847 287.19 286.331 275.412C287.906 267.947 290.671 261.092 295.39 256.106C300.093 251.137 306.777 247.983 316.29 247.983C325.805 247.983 332.505 251.105 337.234 256.027C341.979 260.964 344.782 267.754 346.404 275.153C348.914 286.607 348.569 299.361 348.316 308.696C348.242 311.441 348.175 313.89 348.192 315.924Z" fill="black" stroke="black"/>
<path d="M248.228 529.257C246.396 510.632 243.832 468.803 248.228 450.484C253.263 429.507 274.144 348.573 282.145 323.166C282.478 322.11 283.163 320.771 283.855 319.503C285.924 315.709 287.272 315.069 290.905 312.594C293.206 311.028 292.511 301.01 292.995 295.881C294.732 277.439 294.436 253.574 316.709 253.574C338.393 253.574 336.671 277.513 337.923 295.881C338.36 302.303 337.079 311.55 338.123 312.594C339.168 313.639 345.318 316.251 345.318 324.607C345.318 338.347 344.641 343.991 344.641 372.628C344.641 398.117 354.65 455.369 358.619 481.627L365.031 529.257H248.228Z" fill="white"/>
<path d="M282.145 323.166C274.144 348.573 253.263 429.507 248.228 450.484C243.832 468.803 246.396 510.632 248.228 529.257H365.031L358.619 481.627C354.65 455.369 344.641 398.117 344.641 372.628C344.641 343.991 345.318 338.347 345.318 324.607C345.318 316.251 339.168 313.639 338.123 312.594C337.079 311.55 338.36 302.303 337.923 295.881C336.671 277.513 338.393 253.574 316.709 253.574C294.436 253.574 294.732 277.439 292.995 295.881C292.511 301.01 293.206 311.028 290.905 312.594C287.272 315.069 285.924 315.709 283.855 319.503M282.145 323.166C282.478 322.11 283.163 320.771 283.855 319.503M282.145 323.166L283.855 319.503" stroke="black"/>
<path d="M345.958 326.696C345.958 315.158 331.664 305.804 314.032 305.804C296.399 305.804 283.93 315.301 281.193 326.696" stroke="black" stroke-linecap="round"/>
<mask id="path-63-inside-4_9261_68588" fill="white">
<path fill-rule="evenodd" clip-rule="evenodd" d="M318.782 260.042C317.709 260.164 316.619 260.232 315.515 260.241C313.982 260.253 312.474 260.153 310.999 259.948C307.023 269.702 299.617 282.427 293.885 281.417C286.182 280.058 284.422 254.401 285.78 246.698C286.06 245.111 286.595 243.631 287.334 242.296C285.593 238.487 284.608 234.258 284.571 229.8C284.433 212.849 298.061 198.995 315.012 198.856C331.963 198.717 345.817 212.346 345.956 229.297C345.996 234.247 344.863 238.933 342.815 243.09C343.346 244.21 343.736 245.419 343.962 246.698C345.32 254.401 343.56 280.058 335.857 281.417C330.144 282.424 322.766 269.783 318.782 260.042Z"/>
</mask>
<path fill-rule="evenodd" clip-rule="evenodd" d="M318.782 260.042C317.709 260.164 316.619 260.232 315.515 260.241C313.982 260.253 312.474 260.153 310.999 259.948C307.023 269.702 299.617 282.427 293.885 281.417C286.182 280.058 284.422 254.401 285.78 246.698C286.06 245.111 286.595 243.631 287.334 242.296C285.593 238.487 284.608 234.258 284.571 229.8C284.433 212.849 298.061 198.995 315.012 198.856C331.963 198.717 345.817 212.346 345.956 229.297C345.996 234.247 344.863 238.933 342.815 243.09C343.346 244.21 343.736 245.419 343.962 246.698C345.32 254.401 343.56 280.058 335.857 281.417C330.144 282.424 322.766 269.783 318.782 260.042Z" fill="white"/>
<path d="M315.515 260.241L315.507 259.241H315.507L315.515 260.241ZM318.782 260.042L319.707 259.663L319.421 258.962L318.668 259.048L318.782 260.042ZM310.999 259.948L311.137 258.958L310.366 258.851L310.073 259.571L310.999 259.948ZM293.885 281.417L293.712 282.402L293.885 281.417ZM285.78 246.698L284.796 246.525H284.796L285.78 246.698ZM287.334 242.296L288.209 242.78L288.453 242.339L288.244 241.88L287.334 242.296ZM284.571 229.8L285.571 229.792L284.571 229.8ZM315.012 198.856L315.004 197.856L315.012 198.856ZM345.956 229.297L346.956 229.289L345.956 229.297ZM342.815 243.09L341.918 242.648L341.705 243.081L341.912 243.518L342.815 243.09ZM343.962 246.698L342.977 246.872L343.962 246.698ZM335.857 281.417L335.683 280.432L335.857 281.417ZM315.523 261.241C316.662 261.231 317.787 261.162 318.895 261.035L318.668 259.048C317.63 259.167 316.575 259.232 315.507 259.241L315.523 261.241ZM310.861 260.939C312.384 261.15 313.941 261.254 315.523 261.241L315.507 259.241C314.022 259.253 312.563 259.156 311.137 258.958L310.861 260.939ZM293.712 282.402C295.55 282.726 297.373 281.927 299.028 280.652C300.7 279.365 302.353 277.477 303.913 275.302C307.038 270.944 309.918 265.249 311.925 260.326L310.073 259.571C308.104 264.401 305.293 269.945 302.288 274.136C300.783 276.235 299.261 277.949 297.808 279.068C296.338 280.2 295.087 280.613 294.059 280.432L293.712 282.402ZM284.796 246.525C284.09 250.527 284.205 258.989 285.448 266.598C286.071 270.41 286.988 274.083 288.267 276.914C289.513 279.672 291.255 281.968 293.712 282.402L294.059 280.432C292.663 280.186 291.298 278.765 290.089 276.091C288.914 273.488 288.032 270.01 287.422 266.276C286.199 258.791 286.113 250.573 286.765 246.872L284.796 246.525ZM286.459 241.811C285.667 243.243 285.095 244.827 284.796 246.525L286.765 246.872C287.026 245.395 287.523 244.02 288.209 242.78L286.459 241.811ZM283.571 229.808C283.609 234.41 284.626 238.777 286.425 242.711L288.244 241.88C286.56 238.197 285.607 234.107 285.571 229.792L283.571 229.808ZM315.004 197.856C297.501 198 283.428 212.305 283.571 229.808L285.571 229.792C285.437 213.393 298.622 199.991 315.02 199.856L315.004 197.856ZM346.956 229.289C346.812 211.786 332.507 197.713 315.004 197.856L315.02 199.856C331.419 199.722 344.821 212.907 344.956 229.305L346.956 229.289ZM343.713 243.532C345.827 239.238 346.997 234.398 346.956 229.289L344.956 229.305C344.995 234.096 343.898 238.628 341.918 242.648L343.713 243.532ZM344.947 246.525C344.705 245.157 344.287 243.862 343.719 242.662L341.912 243.518C342.404 244.558 342.767 245.681 342.977 246.872L344.947 246.525ZM336.031 282.402C338.487 281.968 340.23 279.672 341.476 276.914C342.754 274.083 343.672 270.41 344.294 266.598C345.538 258.989 345.652 250.527 344.947 246.525L342.977 246.872C343.63 250.573 343.544 258.791 342.321 266.276C341.71 270.01 340.828 273.488 339.653 276.091C338.445 278.765 337.079 280.186 335.683 280.432L336.031 282.402ZM317.856 260.42C319.867 265.337 322.743 271.008 325.859 275.344C327.415 277.508 329.063 279.385 330.73 280.665C332.38 281.932 334.198 282.725 336.031 282.402L335.683 280.432C334.659 280.613 333.413 280.203 331.948 279.079C330.5 277.967 328.984 276.264 327.483 274.176C324.487 270.008 321.681 264.488 319.707 259.663L317.856 260.42Z" fill="black" mask="url(#path-63-inside-4_9261_68588)"/>
<path d="M319.73 223.909C319.752 226.56 317.621 226.633 314.97 226.655C312.319 226.676 310.153 226.638 310.131 223.988C310.109 221.337 312.241 219.17 314.891 219.149C317.542 219.127 319.708 221.258 319.73 223.909Z" fill="black"/>
<path d="M314.758 219.216C314.727 215.454 311.652 212.429 307.89 212.46C304.128 212.491 301.103 215.566 301.134 219.328" stroke="black"/>
<path d="M328.735 219.216C328.704 215.454 325.629 212.429 321.867 212.46C318.105 212.491 315.08 215.566 315.11 219.328" stroke="black"/>
<path d="M310.394 234.468C310.42 236.512 307.924 238.183 304.82 238.199C301.716 238.216 299.18 236.573 299.154 234.528C299.129 232.484 301.624 233.914 304.728 233.897C307.832 233.881 310.369 232.424 310.394 234.468Z" fill="black"/>
<path d="M330.877 234.472C330.902 236.51 328.414 238.176 325.319 238.193C322.225 238.21 319.695 236.571 319.67 234.533C319.644 232.494 322.133 233.92 325.228 233.903C328.322 233.887 330.852 232.434 330.877 234.472Z" fill="black"/>
<path d="M325.232 254.744C325.834 258.162 330.594 268.567 334.011 267.964C337.428 267.361 338.209 255.98 337.607 252.562C337.004 249.145 333.745 246.863 330.328 247.466C326.911 248.069 324.629 251.327 325.232 254.744Z" fill="black"/>
<path d="M304.805 254.744C304.203 258.162 299.443 268.567 296.026 267.964C292.609 267.361 291.828 255.98 292.43 252.562C293.033 249.145 296.292 246.863 299.709 247.466C303.126 248.069 305.408 251.327 304.805 254.744Z" fill="black"/>
<mask id="path-72-inside-5_9261_68588" fill="white">
<path fill-rule="evenodd" clip-rule="evenodd" d="M399.517 286.16C398.467 285.908 397.42 285.599 396.38 285.23C394.935 284.717 393.552 284.107 392.236 283.41C385.165 291.216 373.852 300.641 368.812 297.731C362.038 293.82 369.159 269.109 373.07 262.335C373.877 260.938 374.885 259.731 376.037 258.729C375.703 254.554 376.224 250.244 377.714 246.042C383.381 230.066 400.926 221.709 416.903 227.376C432.879 233.043 441.236 250.588 435.569 266.564C433.914 271.229 431.246 275.245 427.9 278.452C428.015 279.685 427.968 280.955 427.743 282.234C426.385 289.937 415.956 313.445 408.252 312.087C402.539 311.079 399.93 296.677 399.517 286.16Z"/>
</mask>
<path fill-rule="evenodd" clip-rule="evenodd" d="M399.517 286.16C398.467 285.908 397.42 285.599 396.38 285.23C394.935 284.717 393.552 284.107 392.236 283.41C385.165 291.216 373.852 300.641 368.812 297.731C362.038 293.82 369.159 269.109 373.07 262.335C373.877 260.938 374.885 259.731 376.037 258.729C375.703 254.554 376.224 250.244 377.714 246.042C383.381 230.066 400.926 221.709 416.903 227.376C432.879 233.043 441.236 250.588 435.569 266.564C433.914 271.229 431.246 275.245 427.9 278.452C428.015 279.685 427.968 280.955 427.743 282.234C426.385 289.937 415.956 313.445 408.252 312.087C402.539 311.079 399.93 296.677 399.517 286.16Z" fill="white"/>
<path d="M396.38 285.23L396.715 284.287L396.715 284.287L396.38 285.23ZM399.517 286.16L400.517 286.121L400.487 285.365L399.751 285.188L399.517 286.16ZM392.236 283.41L392.705 282.527L392.017 282.163L391.495 282.739L392.236 283.41ZM368.812 297.731L369.312 296.865L369.312 296.865L368.812 297.731ZM373.07 262.335L372.204 261.835L372.204 261.835L373.07 262.335ZM376.037 258.729L376.693 259.483L377.074 259.152L377.033 258.649L376.037 258.729ZM377.714 246.042L378.657 246.376L377.714 246.042ZM416.903 227.376L417.237 226.433L416.903 227.376ZM435.569 266.564L434.626 266.23L435.569 266.564ZM427.9 278.452L427.208 277.73L426.859 278.064L426.904 278.544L427.9 278.452ZM427.743 282.234L428.728 282.408L427.743 282.234ZM408.252 312.087L408.426 311.102L408.252 312.087ZM396.046 286.172C397.119 286.553 398.2 286.873 399.284 287.133L399.751 285.188C398.735 284.944 397.722 284.645 396.715 284.287L396.046 286.172ZM391.768 284.294C393.127 285.014 394.555 285.643 396.046 286.172L396.715 284.287C395.315 283.791 393.977 283.201 392.705 282.527L391.768 284.294ZM368.312 298.597C369.928 299.53 371.915 299.404 373.906 298.772C375.918 298.134 378.117 296.925 380.327 295.415C384.753 292.389 389.408 288.022 392.978 284.082L391.495 282.739C387.993 286.605 383.455 290.853 379.198 293.764C377.066 295.221 375.05 296.311 373.301 296.866C371.533 297.427 370.216 297.387 369.312 296.865L368.312 298.597ZM372.204 261.835C370.172 265.354 367.386 273.345 365.952 280.921C365.233 284.716 364.839 288.481 365.072 291.578C365.3 294.597 366.152 297.35 368.312 298.597L369.312 296.865C368.085 296.157 367.287 294.355 367.067 291.428C366.852 288.581 367.213 285.011 367.917 281.293C369.327 273.841 372.057 266.089 373.936 262.835L372.204 261.835ZM375.38 257.974C374.146 259.048 373.067 260.341 372.204 261.835L373.936 262.835C374.686 261.535 375.623 260.414 376.693 259.483L375.38 257.974ZM376.772 245.707C375.233 250.044 374.695 254.496 375.04 258.808L377.033 258.649C376.711 254.612 377.214 250.443 378.657 246.376L376.772 245.707ZM417.237 226.433C400.74 220.581 382.623 229.211 376.772 245.707L378.657 246.376C384.139 230.92 401.113 222.836 416.568 228.318L417.237 226.433ZM436.511 266.898C442.363 250.402 433.733 232.285 417.237 226.433L416.568 228.318C432.024 233.801 440.108 250.774 434.626 266.23L436.511 266.898ZM428.591 279.174C432.048 275.862 434.803 271.714 436.511 266.898L434.626 266.23C433.024 270.745 430.444 274.629 427.208 277.73L428.591 279.174ZM428.728 282.408C428.969 281.04 429.018 279.681 428.895 278.359L426.904 278.544C427.011 279.69 426.968 280.87 426.758 282.06L428.728 282.408ZM408.079 313.072C410.535 313.505 412.958 311.943 415.072 309.777C417.242 307.554 419.36 304.417 421.249 301.048C425.02 294.322 428.022 286.41 428.728 282.408L426.758 282.06C426.105 285.761 423.214 293.454 419.505 300.069C417.654 303.37 415.635 306.337 413.641 308.38C411.591 310.48 409.821 311.348 408.426 311.102L408.079 313.072ZM398.518 286.2C398.726 291.507 399.489 297.82 400.935 302.96C401.656 305.526 402.563 307.854 403.692 309.627C404.809 311.382 406.246 312.748 408.079 313.072L408.426 311.102C407.402 310.921 406.37 310.11 405.379 308.553C404.399 307.013 403.556 304.894 402.86 302.419C401.47 297.477 400.721 291.33 400.517 286.121L398.518 286.2Z" fill="black" mask="url(#path-72-inside-5_9261_68588)"/>
<path d="M412.767 252.53C411.88 255.029 409.853 254.369 407.354 253.483C404.856 252.596 402.833 251.819 403.72 249.321C404.606 246.823 407.349 245.516 409.848 246.402C412.346 247.288 413.653 250.032 412.767 252.53Z" fill="black"/>
<path d="M409.7 246.42C410.958 242.874 409.103 238.98 405.557 237.722C402.011 236.464 398.117 238.319 396.859 241.865" stroke="black"/>
<path d="M422.835 251.2C424.092 247.654 422.238 243.76 418.692 242.503C415.146 241.245 411.252 243.1 409.994 246.645" stroke="black"/>
<path d="M400.383 259.26C399.708 261.19 396.791 261.906 393.869 260.86C390.947 259.814 389.125 257.402 389.8 255.473C390.475 253.543 392.331 255.74 395.254 256.786C398.176 257.832 401.058 257.33 400.383 259.26Z" fill="black"/>
<path d="M419.629 266.269C418.955 268.193 416.047 268.907 413.134 267.864C410.22 266.822 408.403 264.417 409.077 262.493C409.75 260.569 411.601 262.759 414.514 263.802C417.428 264.845 420.302 264.345 419.629 266.269Z" fill="black"/>
<path d="M407.392 283.389C406.789 286.806 407.703 298.212 411.12 298.814C414.537 299.417 419.164 288.988 419.766 285.571C420.369 282.154 418.087 278.895 414.67 278.293C411.253 277.69 407.994 279.972 407.392 283.389Z" fill="black"/>
<path d="M388.196 276.403C386.461 279.408 378.43 287.557 375.425 285.823C372.42 284.088 375.579 273.125 377.314 270.12C379.049 267.115 382.891 266.085 385.896 267.82C388.901 269.555 389.931 273.398 388.196 276.403Z" fill="black"/>
</g>
</svg>
