<svg width="450" height="450" viewBox="0 0 450 450" fill="none" xmlns="http://www.w3.org/2000/svg">
<path d="M223.5 190.703H227.5V312.947L223.5 313.748V190.703Z" stroke="black"/>
<path d="M223.5 193.207L226 190.703" stroke="black"/>
<path d="M223.5 203.219L227.5 199.214" stroke="black"/>
<path d="M223.5 213.232L227.5 209.227" stroke="black"/>
<path d="M223.5 223.244L227.5 219.239" stroke="black"/>
<path d="M223.5 233.257L227.5 229.252" stroke="black"/>
<path d="M223.5 243.269L227.5 239.264" stroke="black"/>
<path d="M223.5 253.282L227.5 249.277" stroke="black"/>
<path d="M223.5 263.294L227.5 259.289" stroke="black"/>
<path d="M223.5 273.307L227.5 269.302" stroke="black"/>
<path d="M223.5 283.319L227.5 279.314" stroke="black"/>
<path d="M223.5 293.332L227.5 289.327" stroke="black"/>
<path d="M223.5 303.344L227.5 299.339" stroke="black"/>
<path d="M223.5 313.357L227.5 309.352" stroke="black"/>
<path d="M223.5 198.213L227.5 194.208" stroke="black"/>
<path d="M223.5 208.225L227.5 204.22" stroke="black"/>
<path d="M223.5 218.238L227.5 214.233" stroke="black"/>
<path d="M223.5 228.25L227.5 224.245" stroke="black"/>
<path d="M223.5 238.263L227.5 234.258" stroke="black"/>
<path d="M223.5 248.276L227.5 244.271" stroke="black"/>
<path d="M223.5 258.288L227.5 254.283" stroke="black"/>
<path d="M223.5 268.301L227.5 264.296" stroke="black"/>
<path d="M223.5 278.313L227.5 274.308" stroke="black"/>
<path d="M223.5 288.326L227.5 284.321" stroke="black"/>
<path d="M223.5 298.338L227.5 294.333" stroke="black"/>
<path d="M223.5 308.351L227.5 304.346" stroke="black"/>
<path d="M175.115 127.124C175.115 117.348 190.452 103.415 198.115 88.6407M175.115 127.124H102V131.129M175.115 127.124C175.115 128.163 175.153 129.164 175.229 130.128C176.628 147.756 191.008 153.157 225.615 153.157M175.115 127.124V131.129M225.615 57.0365C215.743 57.0365 210.008 59.5496 206.188 63.5446M198.115 88.6407L143 74.5584V65.5471M198.115 88.6407C201.707 81.7159 199.692 72.0864 204.511 65.5471M175.115 161.167C177.637 164.252 183.894 169.066 194.115 172.704M175.115 161.167L102 143.645V131.129M175.115 161.167V131.129M225.615 177.687C212.6 177.687 202.137 175.558 194.115 172.704M225.615 190.704C211.615 190.704 199.315 186.339 194.115 172.704M225.615 134.634C221.854 134.634 216.576 134.064 211.615 132.991M225.615 100.591C207.215 100.591 199.282 116.945 197.615 125.122C197.615 128.708 204.267 131.402 211.615 132.991M225.615 122.618C220.949 122.525 211.615 124.469 211.615 132.991M206.188 63.5446H143V65.5471M206.188 63.5446C205.584 64.1764 205.028 64.8453 204.511 65.5471M102 131.129H175.115M143 65.5471H204.511" stroke="black"/>
<path fill-rule="evenodd" clip-rule="evenodd" d="M225 134.989C219.714 134.876 212.657 133.892 206 132.131C206 117.951 218.089 114.193 225 114.007V114.006C225.163 114.002 225.33 114 225.5 114C225.67 114 225.837 114.002 226 114.006V114.007C232.911 114.193 245 117.951 245 132.131C238.343 133.892 231.286 134.876 226 134.989V135C225.835 135 225.669 134.999 225.5 134.997C225.331 134.999 225.165 135 225 135V134.989Z" fill="black"/>
<path d="M275.5 127.124C275.5 117.348 260.163 103.415 252.5 88.6407M275.5 127.124H348.615V131.129M275.5 127.124C275.5 128.163 275.462 129.164 275.386 130.128C273.987 147.756 259.607 153.157 225 153.157M275.5 127.124V131.129M225 57.0365C234.872 57.0365 240.607 59.5496 244.427 63.5446M252.5 88.6407L307.615 74.5584V65.5471M252.5 88.6407C248.908 81.7159 250.923 72.0864 246.105 65.5471M275.5 161.167C272.979 164.252 266.722 169.066 256.5 172.704M275.5 161.167L348.615 143.645V131.129M275.5 161.167V131.129M225 177.687C238.015 177.687 248.478 175.558 256.5 172.704M225 190.704C239 190.704 251.3 186.339 256.5 172.704M225 134.634C228.762 134.634 234.039 134.064 239 132.991M225 100.591C243.4 100.591 251.333 116.945 253 125.122C253 128.708 246.348 131.402 239 132.991M225 122.618C229.667 122.525 239 124.469 239 132.991M244.427 63.5446H307.615V65.5471M244.427 63.5446C245.031 64.1764 245.587 64.8453 246.105 65.5471M348.615 131.129H275.5M307.615 65.5471H246.105" stroke="black"/>
<path d="M143.029 61.0756C143.029 63.1096 140.63 63.2854 137.671 63.2854C134.711 63.2854 132.312 63.1096 132.312 61.0756" stroke="black" stroke-linecap="round"/>
<path d="M132.313 61.0756C132.313 60.303 132.659 59.7986 133.25 59.47M143.029 61.0756C143.029 60.303 142.683 59.7986 142.092 59.47" stroke="black" stroke-linecap="round"/>
<path d="M132.432 62.332V75.8593C132.432 79.2116 134.777 79.5013 137.671 79.5013C140.565 79.5013 142.911 79.2116 142.911 75.8593V62.332" stroke="black" stroke-linecap="round"/>
<path d="M133.861 55.6547V58.5162C133.861 61.1502 135.567 61.3777 137.672 61.3777C139.776 61.3777 141.483 61.1502 141.483 58.5162V55.6547" stroke="black" stroke-linecap="round"/>
<mask id="path-34-inside-1_9261_68412" fill="white">
<path fill-rule="evenodd" clip-rule="evenodd" d="M142.29 47.9193C142.125 46.4472 141.753 43.1303 146.585 40.3653L147.203 40.0115C154.434 35.8682 173.833 24.752 177.07 28.9191C177.21 29.0989 177.346 29.2736 177.479 29.4437C180.515 33.3363 181.674 34.8221 178.023 38.9346C174.213 43.2268 165.162 47.9958 158.97 48.95C157.308 49.2061 155.668 49.3334 154.084 49.4564C149.625 49.8024 145.608 50.1143 142.772 53.1693V53.5974V54.196V54.6495H142.748C142.498 56.8568 140.366 57.0575 137.772 57.0575C135.178 57.0575 133.046 56.8568 132.796 54.6495H132.772V54.196V54.1277L132.772 54.1957C128.043 54.1845 126.658 56.4976 124.501 60.1018C123.876 61.1466 123.185 62.3 122.33 63.5366C118.523 69.0393 106.388 75.596 100.66 75.8803C94.9311 76.1646 85.8502 71.3105 84.5982 66.0193C83.4694 61.2486 110.966 50.6918 121.628 46.5986C122.791 46.1519 123.755 45.7821 124.458 45.5053C129.219 43.6317 131.337 45.9515 132.449 47.1705C132.569 47.3015 132.677 47.4197 132.775 47.5187L132.775 47.6898C132.871 50.1629 135.072 50.3806 137.772 50.3806C139.773 50.3806 141.499 50.2611 142.298 49.1932L142.298 47.9961L142.29 47.9193Z"/>
</mask>
<path fill-rule="evenodd" clip-rule="evenodd" d="M142.29 47.9193C142.125 46.4472 141.753 43.1303 146.585 40.3653L147.203 40.0115C154.434 35.8682 173.833 24.752 177.07 28.9191C177.21 29.0989 177.346 29.2736 177.479 29.4437C180.515 33.3363 181.674 34.8221 178.023 38.9346C174.213 43.2268 165.162 47.9958 158.97 48.95C157.308 49.2061 155.668 49.3334 154.084 49.4564C149.625 49.8024 145.608 50.1143 142.772 53.1693V53.5974V54.196V54.6495H142.748C142.498 56.8568 140.366 57.0575 137.772 57.0575C135.178 57.0575 133.046 56.8568 132.796 54.6495H132.772V54.196V54.1277L132.772 54.1957C128.043 54.1845 126.658 56.4976 124.501 60.1018C123.876 61.1466 123.185 62.3 122.33 63.5366C118.523 69.0393 106.388 75.596 100.66 75.8803C94.9311 76.1646 85.8502 71.3105 84.5982 66.0193C83.4694 61.2486 110.966 50.6918 121.628 46.5986C122.791 46.1519 123.755 45.7821 124.458 45.5053C129.219 43.6317 131.337 45.9515 132.449 47.1705C132.569 47.3015 132.677 47.4197 132.775 47.5187L132.775 47.6898C132.871 50.1629 135.072 50.3806 137.772 50.3806C139.773 50.3806 141.499 50.2611 142.298 49.1932L142.298 47.9961L142.29 47.9193Z" fill="white"/>
<path d="M146.585 40.3653L147.082 41.2333L147.082 41.2331L146.585 40.3653ZM142.29 47.9193L143.284 47.8083L143.284 47.8079L142.29 47.9193ZM147.203 40.0115L147.7 40.8792L147.7 40.8791L147.203 40.0115ZM177.07 28.9191L177.86 28.3057V28.3057L177.07 28.9191ZM177.479 29.4437L176.691 30.0588L176.691 30.0588L177.479 29.4437ZM178.023 38.9346L178.771 39.5985L178.023 38.9346ZM158.97 48.95L158.818 47.9617H158.818L158.97 48.95ZM154.084 49.4564L154.161 50.4534L154.084 49.4564ZM142.772 53.1693L142.039 52.489L141.772 52.7767V53.1693H142.772ZM142.772 54.6495V55.6495H143.772V54.6495H142.772ZM142.748 54.6495V53.6495H141.854L141.754 54.5372L142.748 54.6495ZM132.796 54.6495L133.79 54.5372L133.69 53.6495H132.796V54.6495ZM132.772 54.6495H131.772V55.6495H132.772V54.6495ZM132.772 54.1277H133.772L131.772 54.1271L132.772 54.1277ZM132.772 54.1957L132.77 55.1957L133.772 55.1981L133.772 54.1962L132.772 54.1957ZM124.501 60.1018L125.359 60.6154L124.501 60.1018ZM122.33 63.5366L121.507 62.9677L122.33 63.5366ZM100.66 75.8803L100.709 76.8791H100.709L100.66 75.8803ZM84.5982 66.0193L83.6251 66.2495H83.6251L84.5982 66.0193ZM121.628 46.5986L121.269 45.6651L121.628 46.5986ZM124.458 45.5053L124.092 44.5748V44.5748L124.458 45.5053ZM132.449 47.1705L133.188 46.4963L133.188 46.4963L132.449 47.1705ZM132.775 47.5187L133.775 47.5192L133.776 47.1065L133.485 46.8137L132.775 47.5187ZM132.775 47.6898L131.775 47.6893L131.775 47.7089L131.776 47.7285L132.775 47.6898ZM142.298 49.1932L143.099 49.7924L143.298 49.526L143.298 49.1932L142.298 49.1932ZM142.298 47.9961L143.298 47.9961V47.9404L143.292 47.8851L142.298 47.9961ZM146.089 39.4973C143.502 40.9775 142.207 42.67 141.623 44.2877C141.048 45.8812 141.212 47.2813 141.296 48.0307L143.284 47.8079C143.203 47.0852 143.098 46.0908 143.504 44.9666C143.901 43.8666 144.836 42.5181 147.082 41.2333L146.089 39.4973ZM146.706 39.1437L146.088 39.4976L147.082 41.2331L147.7 40.8792L146.706 39.1437ZM177.86 28.3057C177.224 27.4873 176.258 27.1364 175.255 27.0345C174.252 26.9326 173.084 27.0636 171.842 27.3346C169.351 27.8781 166.321 29.0408 163.223 30.4372C157.014 33.2363 150.315 37.0755 146.706 39.1438L147.7 40.8791C151.322 38.8041 157.938 35.0136 164.045 32.2605C167.106 30.8809 169.985 29.787 172.268 29.2887C173.413 29.0388 174.348 28.9527 175.053 29.0243C175.759 29.096 176.107 29.3092 176.281 29.5326L177.86 28.3057ZM178.268 28.8287C178.135 28.6585 177.999 28.4845 177.86 28.3057L176.281 29.5326C176.421 29.7133 176.558 29.8887 176.691 30.0588L178.268 28.8287ZM178.771 39.5985C180.632 37.5021 181.533 35.7974 181.247 33.9534C181.11 33.0718 180.714 32.257 180.202 31.4531C179.692 30.6535 179.017 29.7896 178.268 28.8287L176.691 30.0588C177.459 31.0441 178.068 31.8257 178.515 32.528C178.96 33.226 179.195 33.7695 179.271 34.26C179.41 35.1602 179.065 36.2546 177.275 38.2707L178.771 39.5985ZM159.122 49.9383C162.365 49.4386 166.285 47.9574 169.855 46.0791C173.42 44.2036 176.753 41.8715 178.771 39.5985L177.275 38.2707C175.483 40.29 172.385 42.4885 168.924 44.3091C165.469 46.1268 161.767 47.5072 158.818 47.9617L159.122 49.9383ZM154.161 50.4534C155.74 50.3308 157.417 50.2011 159.122 49.9383L158.818 47.9617C157.199 48.2112 155.596 48.336 154.007 48.4594L154.161 50.4534ZM143.505 53.8496C146.029 51.1303 149.611 50.8065 154.161 50.4534L154.007 48.4594C149.639 48.7983 145.186 49.0982 142.039 52.489L143.505 53.8496ZM141.772 53.1693V53.5974H143.772V53.1693H141.772ZM141.772 53.5974V54.196H143.772V53.5974H141.772ZM141.772 54.196V54.6495H143.772V54.196H141.772ZM142.772 53.6495H142.748V55.6495H142.772V53.6495ZM137.772 58.0575C139.049 58.0575 140.404 58.0161 141.484 57.62C142.046 57.4136 142.581 57.0954 142.997 56.5987C143.417 56.0964 143.661 55.4769 143.741 54.7617L141.754 54.5372C141.71 54.9256 141.594 55.159 141.463 55.3152C141.328 55.4769 141.121 55.6228 140.795 55.7425C140.097 55.9986 139.089 56.0575 137.772 56.0575V58.0575ZM131.803 54.7617C131.883 55.4769 132.127 56.0964 132.547 56.5987C132.963 57.0954 133.498 57.4136 134.06 57.62C135.14 58.0161 136.495 58.0575 137.772 58.0575V56.0575C136.455 56.0575 135.447 55.9986 134.75 55.7425C134.424 55.6228 134.216 55.4769 134.081 55.3152C133.95 55.159 133.834 54.9256 133.79 54.5372L131.803 54.7617ZM132.796 53.6495H132.772V55.6495H132.796V53.6495ZM133.772 54.6495V54.196H131.772V54.6495H133.772ZM133.772 54.196V54.1277H131.772V54.196H133.772ZM133.772 54.1962L133.772 54.1282L131.772 54.1271L131.772 54.1952L133.772 54.1962ZM125.359 60.6154C126.463 58.7719 127.264 57.4535 128.32 56.5544C129.31 55.712 130.592 55.1905 132.77 55.1957L132.774 53.1957C130.223 53.1897 128.448 53.8192 127.024 55.0315C125.666 56.1872 124.697 57.8274 123.643 59.5882L125.359 60.6154ZM123.152 64.1056C124.029 62.8384 124.735 61.6586 125.359 60.6154L123.643 59.5882C123.017 60.6347 122.342 61.7615 121.507 62.9677L123.152 64.1056ZM100.709 76.8791C103.813 76.725 108.447 74.9183 112.703 72.5382C116.968 70.154 121.116 67.0484 123.152 64.1056L121.507 62.9677C119.736 65.5276 115.914 68.4516 111.727 70.7925C107.533 73.1376 103.235 74.7513 100.61 74.8815L100.709 76.8791ZM83.6251 66.2495C84.3472 69.3013 87.2292 72.0215 90.4451 73.9037C93.6925 75.8043 97.5888 77.034 100.709 76.8791L100.61 74.8815C98.0021 75.011 94.4936 73.9558 91.4554 72.1776C88.3857 70.381 86.1012 68.0285 85.5713 65.789L83.6251 66.2495ZM121.269 45.6651C115.944 47.7098 106.372 51.3841 98.2703 55.148C94.2254 57.0272 90.5048 58.9477 87.8537 60.7159C86.5337 61.5962 85.4273 62.4723 84.6781 63.3213C83.9685 64.1255 83.3651 65.1508 83.6251 66.2495L85.5713 65.789C85.5491 65.6951 85.5581 65.3469 86.1777 64.6446C86.7579 63.9872 87.6977 63.2239 88.9634 62.3797C91.4837 60.6988 95.092 58.8298 99.113 56.9618C107.143 53.2314 116.651 49.5807 121.986 47.5322L121.269 45.6651ZM124.092 44.5748C123.393 44.8497 122.435 45.2177 121.269 45.6651L121.986 47.5322C123.148 47.0861 124.116 46.7146 124.824 46.4358L124.092 44.5748ZM133.188 46.4963C132.633 45.8883 131.689 44.8394 130.188 44.2479C128.65 43.6414 126.665 43.562 124.092 44.5748L124.824 46.4358C127.012 45.575 128.466 45.7187 129.455 46.1085C130.482 46.5132 131.153 47.2337 131.711 47.8447L133.188 46.4963ZM133.485 46.8137C133.404 46.7329 133.312 46.6318 133.188 46.4963L131.711 47.8447C131.826 47.9711 131.95 48.1065 132.066 48.2237L133.485 46.8137ZM133.775 47.6903L133.775 47.5192L131.775 47.5182L131.775 47.6893L133.775 47.6903ZM131.776 47.7285C131.806 48.4971 132.004 49.174 132.402 49.7333C132.799 50.292 133.34 50.6546 133.922 50.8898C135.029 51.3371 136.447 51.3806 137.772 51.3806V49.3806C136.396 49.3806 135.364 49.3152 134.672 49.0355C134.354 48.9071 134.158 48.7515 134.031 48.5739C133.905 48.3968 133.793 48.1191 133.775 47.6511L131.776 47.7285ZM137.772 51.3806C138.774 51.3806 139.798 51.3528 140.69 51.1662C141.585 50.9793 142.492 50.6038 143.099 49.7924L141.498 48.5941C141.306 48.8505 140.95 49.0688 140.281 49.2085C139.611 49.3486 138.771 49.3806 137.772 49.3806V51.3806ZM141.298 47.9961L141.298 49.1933L143.298 49.1932L143.298 47.9961L141.298 47.9961ZM141.296 48.0303L141.305 48.1071L143.292 47.8851L143.284 47.8083L141.296 48.0303Z" fill="black" mask="url(#path-34-inside-1_9261_68412)"/>
<path d="M137.672 47.0139C135.567 47.0139 133.861 47.2415 133.861 49.8755C133.861 49.8755 133.861 51.2781 137.672 51.2781C141.482 51.2781 141.482 49.8755 141.482 49.8755C141.482 47.2415 139.776 47.0139 137.672 47.0139Z" fill="black" stroke="black" stroke-linecap="round"/>
<path d="M307.27 61.0756C307.27 63.1096 309.669 63.2854 312.628 63.2854C315.587 63.2854 317.986 63.1096 317.986 61.0756" stroke="black" stroke-linecap="round"/>
<path d="M317.986 61.0756C317.986 60.303 317.64 59.7986 317.049 59.47M307.27 61.0756C307.27 60.303 307.616 59.7986 308.207 59.47" stroke="black" stroke-linecap="round"/>
<path d="M317.867 62.332V75.8593C317.867 79.2116 315.521 79.5013 312.628 79.5013C309.734 79.5013 307.388 79.2116 307.388 75.8593V62.332" stroke="black" stroke-linecap="round"/>
<path d="M316.438 55.6547V58.5162C316.438 61.1502 314.731 61.3777 312.627 61.3777C310.522 61.3777 308.816 61.1502 308.816 58.5162V55.6547" stroke="black" stroke-linecap="round"/>
<mask id="path-41-inside-2_9261_68412" fill="white">
<path fill-rule="evenodd" clip-rule="evenodd" d="M308.009 47.9193C308.174 46.4472 308.546 43.1303 303.713 40.3653L303.096 40.0115C295.865 35.8682 276.465 24.752 273.228 28.9191C273.089 29.0989 272.952 29.2736 272.82 29.4437C269.784 33.3363 268.625 34.8221 272.276 38.9346C276.086 43.2268 285.137 47.9958 291.329 48.95C292.991 49.2061 294.631 49.3334 296.215 49.4564C300.674 49.8024 304.691 50.1143 307.527 53.1693V53.5974V54.196V54.6495H307.551C307.8 56.8568 309.933 57.0575 312.527 57.0575C315.121 57.0575 317.253 56.8568 317.502 54.6495H317.527V54.196V54.1277L317.527 54.1957C322.256 54.1845 323.64 56.4976 325.798 60.1018C326.423 61.1466 327.113 62.3 327.969 63.5366C331.776 69.0393 343.91 75.596 349.639 75.8803C355.368 76.1646 364.449 71.3105 365.701 66.0193C366.829 61.2486 339.332 50.6918 328.671 46.5986C327.507 46.1519 326.544 45.7821 325.841 45.5053C321.08 43.6317 318.962 45.9515 317.849 47.1705C317.73 47.3015 317.622 47.4197 317.523 47.5187L317.524 47.6898C317.428 50.1629 315.227 50.3806 312.527 50.3806C310.526 50.3806 308.8 50.2611 308 49.1932L308 47.9961L308.009 47.9193Z"/>
</mask>
<path fill-rule="evenodd" clip-rule="evenodd" d="M308.009 47.9193C308.174 46.4472 308.546 43.1303 303.713 40.3653L303.096 40.0115C295.865 35.8682 276.465 24.752 273.228 28.9191C273.089 29.0989 272.952 29.2736 272.82 29.4437C269.784 33.3363 268.625 34.8221 272.276 38.9346C276.086 43.2268 285.137 47.9958 291.329 48.95C292.991 49.2061 294.631 49.3334 296.215 49.4564C300.674 49.8024 304.691 50.1143 307.527 53.1693V53.5974V54.196V54.6495H307.551C307.8 56.8568 309.933 57.0575 312.527 57.0575C315.121 57.0575 317.253 56.8568 317.502 54.6495H317.527V54.196V54.1277L317.527 54.1957C322.256 54.1845 323.64 56.4976 325.798 60.1018C326.423 61.1466 327.113 62.3 327.969 63.5366C331.776 69.0393 343.91 75.596 349.639 75.8803C355.368 76.1646 364.449 71.3105 365.701 66.0193C366.829 61.2486 339.332 50.6918 328.671 46.5986C327.507 46.1519 326.544 45.7821 325.841 45.5053C321.08 43.6317 318.962 45.9515 317.849 47.1705C317.73 47.3015 317.622 47.4197 317.523 47.5187L317.524 47.6898C317.428 50.1629 315.227 50.3806 312.527 50.3806C310.526 50.3806 308.8 50.2611 308 49.1932L308 47.9961L308.009 47.9193Z" fill="white"/>
<path d="M303.713 40.3653L303.217 41.2333L303.216 41.2331L303.713 40.3653ZM308.009 47.9193L307.015 47.8083L307.015 47.8079L308.009 47.9193ZM303.096 40.0115L302.599 40.8792L302.598 40.8791L303.096 40.0115ZM273.228 28.9191L272.439 28.3057V28.3057L273.228 28.9191ZM272.82 29.4437L273.608 30.0588L273.608 30.0588L272.82 29.4437ZM272.276 38.9346L271.528 39.5985L272.276 38.9346ZM291.329 48.95L291.481 47.9617H291.481L291.329 48.95ZM296.215 49.4564L296.137 50.4534L296.215 49.4564ZM307.527 53.1693L308.26 52.489L308.527 52.7767V53.1693H307.527ZM307.527 54.6495V55.6495H306.527V54.6495H307.527ZM307.551 54.6495V53.6495H308.445L308.545 54.5372L307.551 54.6495ZM317.502 54.6495L316.509 54.5372L316.609 53.6495H317.502V54.6495ZM317.527 54.6495H318.527V55.6495H317.527V54.6495ZM317.527 54.1277H316.527L318.527 54.1271L317.527 54.1277ZM317.527 54.1957L317.529 55.1957L316.527 55.1981L316.527 54.1962L317.527 54.1957ZM325.798 60.1018L324.94 60.6154L325.798 60.1018ZM327.969 63.5366L328.791 62.9677L327.969 63.5366ZM349.639 75.8803L349.589 76.8791H349.589L349.639 75.8803ZM365.701 66.0193L366.674 66.2495H366.674L365.701 66.0193ZM328.671 46.5986L329.029 45.6651L328.671 46.5986ZM325.841 45.5053L326.207 44.5748V44.5748L325.841 45.5053ZM317.849 47.1705L317.111 46.4963L317.111 46.4963L317.849 47.1705ZM317.523 47.5187L316.523 47.5192L316.523 47.1065L316.814 46.8137L317.523 47.5187ZM317.524 47.6898L318.524 47.6893L318.524 47.7089L318.523 47.7285L317.524 47.6898ZM308 49.1932L307.2 49.7924L307 49.526L307 49.1932L308 49.1932ZM308 47.9961L307 47.9961V47.9404L307.007 47.8851L308 47.9961ZM304.21 39.4973C306.797 40.9775 308.092 42.67 308.676 44.2877C309.251 45.8812 309.087 47.2813 309.003 48.0307L307.015 47.8079C307.096 47.0852 307.2 46.0908 306.795 44.9666C306.398 43.8666 305.462 42.5181 303.217 41.2333L304.21 39.4973ZM303.593 39.1437L304.21 39.4976L303.216 41.2331L302.599 40.8792L303.593 39.1437ZM272.439 28.3057C273.074 27.4873 274.041 27.1364 275.044 27.0345C276.047 26.9326 277.215 27.0636 278.457 27.3346C280.947 27.8781 283.978 29.0408 287.075 30.4372C293.285 33.2363 299.983 37.0755 303.593 39.1438L302.598 40.8791C298.977 38.8041 292.361 35.0136 286.253 32.2605C283.193 30.8809 280.314 29.787 278.031 29.2887C276.886 29.0388 275.951 28.9527 275.246 29.0243C274.54 29.096 274.192 29.3092 274.018 29.5326L272.439 28.3057ZM272.031 28.8287C272.164 28.6585 272.3 28.4845 272.439 28.3057L274.018 29.5326C273.878 29.7133 273.741 29.8887 273.608 30.0588L272.031 28.8287ZM271.528 39.5985C269.667 37.5021 268.766 35.7974 269.052 33.9534C269.189 33.0718 269.585 32.257 270.097 31.4531C270.607 30.6535 271.282 29.7896 272.031 28.8287L273.608 30.0588C272.84 31.0441 272.231 31.8257 271.784 32.528C271.339 33.226 271.104 33.7695 271.028 34.26C270.889 35.1602 271.234 36.2546 273.024 38.2707L271.528 39.5985ZM291.176 49.9383C287.933 49.4386 284.014 47.9574 280.444 46.0791C276.879 44.2036 273.546 41.8715 271.528 39.5985L273.024 38.2707C274.816 40.29 277.914 42.4885 281.375 44.3091C284.83 46.1268 288.532 47.5072 291.481 47.9617L291.176 49.9383ZM296.137 50.4534C294.559 50.3308 292.882 50.2011 291.176 49.9383L291.481 47.9617C293.1 48.2112 294.703 48.336 296.292 48.4594L296.137 50.4534ZM306.794 53.8496C304.27 51.1303 300.688 50.8065 296.137 50.4534L296.292 48.4594C300.659 48.7983 305.113 49.0982 308.26 52.489L306.794 53.8496ZM308.527 53.1693V53.5974H306.527V53.1693H308.527ZM308.527 53.5974V54.196H306.527V53.5974H308.527ZM308.527 54.196V54.6495H306.527V54.196H308.527ZM307.527 53.6495H307.551V55.6495H307.527V53.6495ZM312.527 58.0575C311.25 58.0575 309.894 58.0161 308.815 57.62C308.253 57.4136 307.718 57.0954 307.302 56.5987C306.882 56.0964 306.638 55.4769 306.557 54.7617L308.545 54.5372C308.589 54.9256 308.705 55.159 308.836 55.3152C308.971 55.4769 309.178 55.6228 309.504 55.7425C310.202 55.9986 311.21 56.0575 312.527 56.0575V58.0575ZM318.496 54.7617C318.415 55.4769 318.172 56.0964 317.751 56.5987C317.336 57.0954 316.801 57.4136 316.238 57.62C315.159 58.0161 313.804 58.0575 312.527 58.0575V56.0575C313.843 56.0575 314.851 55.9986 315.549 55.7425C315.875 55.6228 316.082 55.4769 316.218 55.3152C316.348 55.159 316.465 54.9256 316.509 54.5372L318.496 54.7617ZM317.502 53.6495H317.527V55.6495H317.502V53.6495ZM316.527 54.6495V54.196H318.527V54.6495H316.527ZM316.527 54.196V54.1277H318.527V54.196H316.527ZM316.527 54.1962L316.527 54.1282L318.527 54.1271L318.527 54.1952L316.527 54.1962ZM324.94 60.6154C323.836 58.7719 323.035 57.4535 321.978 56.5544C320.989 55.712 319.707 55.1905 317.529 55.1957L317.524 53.1957C320.076 53.1897 321.851 53.8192 323.275 55.0315C324.633 56.1872 325.602 57.8274 326.656 59.5882L324.94 60.6154ZM327.147 64.1056C326.27 62.8384 325.564 61.6586 324.94 60.6154L326.656 59.5882C327.282 60.6347 327.957 61.7615 328.791 62.9677L327.147 64.1056ZM349.589 76.8791C346.486 76.725 341.852 74.9183 337.595 72.5382C333.331 70.154 329.183 67.0484 327.147 64.1056L328.791 62.9677C330.562 65.5276 334.385 68.4516 338.571 70.7925C342.766 73.1376 347.064 74.7513 349.689 74.8815L349.589 76.8791ZM366.674 66.2495C365.952 69.3013 363.07 72.0215 359.854 73.9037C356.606 75.8043 352.71 77.034 349.589 76.8791L349.689 74.8815C352.297 75.011 355.805 73.9558 358.843 72.1776C361.913 70.381 364.198 68.0285 364.728 65.789L366.674 66.2495ZM329.029 45.6651C334.355 47.7098 343.927 51.3841 352.029 55.148C356.073 57.0272 359.794 58.9477 362.445 60.7159C363.765 61.5962 364.872 62.4723 365.621 63.3213C366.33 64.1255 366.934 65.1508 366.674 66.2495L364.728 65.789C364.75 65.6951 364.741 65.3469 364.121 64.6446C363.541 63.9872 362.601 63.2239 361.335 62.3797C358.815 60.6988 355.207 58.8298 351.186 56.9618C343.156 53.2314 333.648 49.5807 328.313 47.5322L329.029 45.6651ZM326.207 44.5748C326.906 44.8497 327.864 45.2177 329.029 45.6651L328.313 47.5322C327.151 47.0861 326.183 46.7146 325.475 46.4358L326.207 44.5748ZM317.111 46.4963C317.666 45.8883 318.61 44.8394 320.11 44.2479C321.649 43.6414 323.634 43.562 326.207 44.5748L325.475 46.4358C323.287 45.575 321.833 45.7187 320.844 46.1085C319.817 46.5132 319.146 47.2337 318.588 47.8447L317.111 46.4963ZM316.814 46.8137C316.895 46.7329 316.987 46.6318 317.111 46.4963L318.588 47.8447C318.473 47.9711 318.349 48.1065 318.233 48.2237L316.814 46.8137ZM316.524 47.6903L316.523 47.5192L318.523 47.5182L318.524 47.6893L316.524 47.6903ZM318.523 47.7285C318.493 48.4971 318.295 49.174 317.897 49.7333C317.499 50.292 316.959 50.6546 316.377 50.8898C315.27 51.3371 313.851 51.3806 312.527 51.3806V49.3806C313.903 49.3806 314.935 49.3152 315.627 49.0355C315.945 48.9071 316.141 48.7515 316.267 48.5739C316.393 48.3968 316.506 48.1191 316.524 47.6511L318.523 47.7285ZM312.527 51.3806C311.525 51.3806 310.501 51.3528 309.608 51.1662C308.714 50.9793 307.807 50.6038 307.2 49.7924L308.801 48.5941C308.993 48.8505 309.349 49.0688 310.017 49.2085C310.688 49.3486 311.528 49.3806 312.527 49.3806V51.3806ZM309 47.9961L309 49.1933L307 49.1932L307 47.9961L309 47.9961ZM309.003 48.0303L308.994 48.1071L307.007 47.8851L307.015 47.8083L309.003 48.0303Z" fill="black" mask="url(#path-41-inside-2_9261_68412)"/>
<path d="M312.627 47.0139C314.732 47.0139 316.438 47.2415 316.438 49.8755C316.438 49.8755 316.438 51.2781 312.627 51.2781C308.816 51.2781 308.816 49.8755 308.816 49.8755C308.816 47.2415 310.522 47.0139 312.627 47.0139Z" fill="black" stroke="black" stroke-linecap="round"/>
<path d="M348.287 124.331C348.287 127.73 352.296 128.024 357.242 128.024C362.188 128.024 366.197 127.73 366.197 124.331" stroke="black" stroke-linecap="round"/>
<path d="M366.197 124.331C366.197 123.04 365.619 122.196 364.631 121.647M348.287 124.331C348.287 123.04 348.865 122.196 349.854 121.647" stroke="black" stroke-linecap="round"/>
<path d="M366 126.43V149.038C366 154.641 362.079 155.125 357.243 155.125C352.407 155.125 348.486 154.641 348.486 149.038V126.43" stroke="black" stroke-linecap="round"/>
<path d="M363.611 115.27V120.053C363.611 124.455 360.76 124.835 357.243 124.835C353.725 124.835 350.874 124.455 350.874 120.053V115.27" stroke="black" stroke-linecap="round"/>
<mask id="path-48-inside-3_9261_68412" fill="white">
<path fill-rule="evenodd" clip-rule="evenodd" d="M349.532 102.263C349.812 99.7651 350.336 94.2897 342.345 89.7172C331.199 83.3402 296.968 68.4198 291.395 75.5935C291.171 75.8819 290.952 76.1625 290.739 76.436L290.715 76.4668L290.712 76.4703C285.638 82.9759 283.701 85.4591 289.803 92.3323C296.171 99.5059 311.297 102.47 321.646 104.065C324.424 104.493 327.165 104.706 329.812 104.911L329.812 104.911C337.689 105.522 344.742 106.07 349.509 112.036L349.509 102.47L349.509 102.469V111.832V112.832V113.59H349.548C349.945 117.279 353.341 117.615 357.47 117.615C361.6 117.615 364.995 117.279 365.392 113.59H365.431V112.832V112.831C373.335 112.813 375.649 116.679 379.254 122.702C380.299 124.448 381.453 126.376 382.883 128.443C389.246 137.639 409.526 145.594 419.1 146.069C428.674 146.544 443.851 141.435 445.944 132.592C447.83 124.619 401.875 106.975 384.056 100.134L384.056 100.134L384.055 100.134C382.111 99.3876 380.502 98.7697 379.326 98.3071C371.369 95.1758 367.83 99.0529 365.97 101.09C365.77 101.309 365.59 101.507 365.425 101.672L365.425 101.973C365.266 106.093 361.765 106.456 357.47 106.456C353.279 106.456 349.844 106.11 349.532 102.263Z"/>
</mask>
<path fill-rule="evenodd" clip-rule="evenodd" d="M349.532 102.263C349.812 99.7651 350.336 94.2897 342.345 89.7172C331.199 83.3402 296.968 68.4198 291.395 75.5935C291.171 75.8819 290.952 76.1625 290.739 76.436L290.715 76.4668L290.712 76.4703C285.638 82.9759 283.701 85.4591 289.803 92.3323C296.171 99.5059 311.297 102.47 321.646 104.065C324.424 104.493 327.165 104.706 329.812 104.911L329.812 104.911C337.689 105.522 344.742 106.07 349.509 112.036L349.509 102.47L349.509 102.469V111.832V112.832V113.59H349.548C349.945 117.279 353.341 117.615 357.47 117.615C361.6 117.615 364.995 117.279 365.392 113.59H365.431V112.832V112.831C373.335 112.813 375.649 116.679 379.254 122.702C380.299 124.448 381.453 126.376 382.883 128.443C389.246 137.639 409.526 145.594 419.1 146.069C428.674 146.544 443.851 141.435 445.944 132.592C447.83 124.619 401.875 106.975 384.056 100.134L384.056 100.134L384.055 100.134C382.111 99.3876 380.502 98.7697 379.326 98.3071C371.369 95.1758 367.83 99.0529 365.97 101.09C365.77 101.309 365.59 101.507 365.425 101.672L365.425 101.973C365.266 106.093 361.765 106.456 357.47 106.456C353.279 106.456 349.844 106.11 349.532 102.263Z" fill="white"/>
<path d="M342.345 89.7172L342.841 88.8492L342.345 89.7172ZM349.532 102.263L348.536 102.344L348.528 102.248L348.539 102.152L349.532 102.263ZM291.395 75.5935L292.185 76.207V76.207L291.395 75.5935ZM290.739 76.436L289.95 75.821L289.95 75.821L290.739 76.436ZM290.715 76.4668L291.503 77.0817L291.503 77.0827L290.715 76.4668ZM290.712 76.4703L289.924 75.8552L289.924 75.8543L290.712 76.4703ZM289.803 92.3323L289.055 92.9962V92.9962L289.803 92.3323ZM321.646 104.065L321.494 105.053L321.646 104.065ZM329.812 104.911L329.889 103.914L329.895 103.914L329.812 104.911ZM329.812 104.911L329.735 105.908L329.729 105.908L329.812 104.911ZM349.509 112.036L350.509 112.036L350.509 114.889L348.728 112.66L349.509 112.036ZM349.509 102.47L348.509 102.47V102.415L348.515 102.359L349.509 102.47ZM349.509 102.469L348.516 102.358L350.509 102.469H349.509ZM349.509 113.59V114.59H348.509V113.59H349.509ZM349.548 113.59V112.59H350.446L350.543 113.483L349.548 113.59ZM365.392 113.59L364.398 113.483L364.494 112.59H365.392V113.59ZM365.431 113.59H366.431V114.59H365.431V113.59ZM365.431 112.831H364.431V111.834L365.429 111.831L365.431 112.831ZM379.254 122.702L378.396 123.216L379.254 122.702ZM382.883 128.443L383.705 127.874L382.883 128.443ZM419.1 146.069L419.05 147.068L419.1 146.069ZM445.944 132.592L446.917 132.822H446.917L445.944 132.592ZM384.056 100.134L384.344 99.1766L384.38 99.1874L384.415 99.2008L384.056 100.134ZM384.056 100.134L383.769 101.092L383.732 101.081L383.696 101.067L384.056 100.134ZM384.055 100.134L384.414 99.2006L384.416 99.2012L384.055 100.134ZM379.326 98.3071L378.96 99.2376L379.326 98.3071ZM365.97 101.09L366.709 101.764V101.764L365.97 101.09ZM365.425 101.672L364.425 101.673L364.425 101.26L364.716 100.967L365.425 101.672ZM365.425 101.973L366.425 101.972L366.425 101.992L366.425 102.012L365.425 101.973ZM342.841 88.8492C347.005 91.2318 349.051 93.9132 349.978 96.4213C350.897 98.9077 350.668 101.102 350.526 102.374L348.539 102.152C348.676 100.926 348.849 99.134 348.102 97.1149C347.364 95.1177 345.675 92.7751 341.848 90.5851L342.841 88.8492ZM290.605 74.9801C291.513 73.8118 292.932 73.1837 294.551 72.8947C296.177 72.6046 298.123 72.6334 300.256 72.884C304.527 73.3858 309.754 74.8035 315.103 76.6273C325.808 80.2774 337.211 85.6276 342.841 88.8492L341.848 90.5851C336.333 87.4297 325.047 82.1312 314.457 78.5203C309.159 76.7137 304.086 75.3478 300.023 74.8703C297.989 74.6313 296.259 74.6215 294.903 74.8636C293.54 75.1069 292.67 75.5818 292.185 76.207L290.605 74.9801ZM289.95 75.821C290.164 75.5474 290.382 75.2675 290.605 74.98L292.185 76.207C291.96 76.4962 291.741 76.7776 291.527 77.051L289.95 75.821ZM289.926 75.8518L289.95 75.821L291.527 77.051L291.503 77.0817L289.926 75.8518ZM289.924 75.8543L289.927 75.8508L291.503 77.0827L291.5 77.0863L289.924 75.8543ZM289.055 92.9962C285.968 89.5195 284.649 86.8752 285.078 84.1102C285.286 82.768 285.894 81.4973 286.728 80.1893C287.559 78.8856 288.665 77.4694 289.924 75.8552L291.501 77.0853C290.222 78.7239 289.183 80.0578 288.415 81.2642C287.648 82.4663 287.202 83.4657 287.055 84.4168C286.772 86.2381 287.535 88.272 290.551 91.6684L289.055 92.9962ZM321.494 105.053C316.307 104.254 309.878 103.105 303.933 101.245C298.021 99.3951 292.427 96.7945 289.055 92.9962L290.551 91.6684C293.547 95.0438 298.7 97.512 304.531 99.3363C310.328 101.15 316.636 102.281 321.798 103.076L321.494 105.053ZM329.735 105.908C327.093 105.703 324.315 105.488 321.494 105.053L321.798 103.076C324.533 103.498 327.237 103.708 329.889 103.914L329.735 105.908ZM329.729 105.908L329.729 105.908L329.895 103.914L329.895 103.914L329.729 105.908ZM348.728 112.66C344.276 107.088 337.706 106.527 329.735 105.908L329.89 103.914C337.672 104.518 345.208 105.051 350.29 111.411L348.728 112.66ZM350.509 102.47L350.509 112.036L348.509 112.036L348.509 102.47L350.509 102.47ZM350.503 102.58L350.503 102.582L348.515 102.359L348.516 102.358L350.503 102.58ZM350.509 102.469V111.832H348.509V102.469H350.509ZM350.509 111.832V112.832H348.509V111.832H350.509ZM350.509 112.832V113.59H348.509V112.832H350.509ZM349.509 112.59H349.548V114.59H349.509V112.59ZM350.543 113.483C350.625 114.251 350.854 114.775 351.155 115.152C351.457 115.532 351.885 115.828 352.469 116.053C353.686 116.521 355.385 116.615 357.47 116.615V118.615C355.425 118.615 353.363 118.54 351.75 117.919C350.919 117.599 350.165 117.119 349.591 116.399C349.014 115.675 348.67 114.774 348.554 113.697L350.543 113.483ZM357.47 116.615C359.555 116.615 361.255 116.521 362.472 116.053C363.055 115.828 363.483 115.532 363.786 115.152C364.086 114.775 364.315 114.251 364.398 113.483L366.387 113.697C366.271 114.774 365.927 115.675 365.35 116.399C364.775 117.119 364.022 117.599 363.191 117.919C361.578 118.54 359.515 118.615 357.47 118.615V116.615ZM365.392 112.59H365.431V114.59H365.392V112.59ZM364.431 113.59V112.832H366.431V113.59H364.431ZM364.431 112.832V112.831H366.431V112.832H364.431ZM365.429 111.831C369.567 111.822 372.368 112.837 374.603 114.739C376.77 116.585 378.334 119.218 380.112 122.189L378.396 123.216C376.569 120.163 375.173 117.851 373.306 116.262C371.506 114.73 369.198 113.822 365.434 113.831L365.429 111.831ZM380.112 122.189C381.158 123.936 382.296 125.838 383.705 127.874L382.061 129.012C380.609 126.914 379.44 124.96 378.396 123.216L380.112 122.189ZM383.705 127.874C386.725 132.239 393.174 136.434 400.2 139.615C407.203 142.787 414.537 144.841 419.15 145.07L419.05 147.068C414.088 146.822 406.495 144.661 399.375 141.437C392.276 138.223 385.403 133.843 382.061 129.012L383.705 127.874ZM419.15 145.07C423.767 145.299 429.8 144.176 434.923 141.91C440.096 139.622 444.036 136.311 444.97 132.362L446.917 132.822C445.759 137.716 441.064 141.381 435.732 143.739C430.35 146.12 424.007 147.314 419.05 147.068L419.15 145.07ZM444.97 132.362C445.087 131.868 444.873 131.058 443.807 129.85C442.781 128.687 441.154 127.374 439.02 125.951C434.764 123.112 428.696 119.971 421.968 116.846C408.524 110.6 392.612 104.49 383.698 101.068L384.415 99.2008C393.319 102.619 409.294 108.752 422.811 115.032C429.563 118.169 435.743 121.361 440.13 124.287C442.318 125.746 444.111 127.172 445.307 128.527C446.463 129.837 447.271 131.323 446.917 132.822L444.97 132.362ZM383.769 101.092L383.769 101.092L384.343 99.1766L384.344 99.1766L383.769 101.092ZM383.696 101.067L383.695 101.067L384.416 99.2012L384.416 99.2015L383.696 101.067ZM383.697 101.068C381.754 100.322 380.14 99.7022 378.96 99.2376L379.692 97.3766C380.863 97.8373 382.468 98.4534 384.414 99.2006L383.697 101.068ZM378.96 99.2376C375.175 97.7479 372.566 97.9666 370.729 98.6907C368.854 99.4298 367.64 100.744 366.709 101.764L365.231 100.416C366.16 99.3988 367.646 97.7561 369.995 96.8301C372.382 95.8892 375.521 95.735 379.692 97.3766L378.96 99.2376ZM366.709 101.764C366.513 101.979 366.317 102.194 366.135 102.377L364.716 100.967C364.862 100.82 365.027 100.639 365.231 100.416L366.709 101.764ZM366.425 101.672L366.425 101.972L364.425 101.973L364.425 101.673L366.425 101.672ZM366.425 102.012C366.379 103.184 366.092 104.172 365.545 104.974C364.998 105.779 364.241 106.319 363.388 106.68C361.742 107.377 359.592 107.456 357.47 107.456V105.456C359.644 105.456 361.391 105.353 362.609 104.838C363.188 104.593 363.605 104.271 363.892 103.848C364.182 103.424 364.392 102.822 364.426 101.934L366.425 102.012ZM357.47 107.456C355.397 107.456 353.301 107.379 351.676 106.731C350.836 106.396 350.081 105.894 349.516 105.142C348.949 104.389 348.626 103.456 348.536 102.344L350.529 102.183C350.595 102.994 350.818 103.546 351.114 103.94C351.411 104.335 351.835 104.641 352.417 104.873C353.634 105.359 355.352 105.456 357.47 105.456V107.456Z" fill="black" mask="url(#path-48-inside-3_9261_68412)"/>
<path d="M437.842 131.648C436.422 137.653 426.116 141.122 419.615 140.799C413.113 140.477 399.342 135.075 395.022 128.83" stroke="black" stroke-linecap="round"/>
<path d="M357.242 100.829C360.759 100.829 363.61 101.21 363.61 105.612C363.61 105.612 363.61 107.956 357.242 107.956C350.873 107.956 350.873 105.612 350.873 105.612C350.873 101.21 353.724 100.829 357.242 100.829Z" fill="black" stroke="black" stroke-linecap="round"/>
<path d="M101.713 124.331C101.713 127.73 97.7036 128.024 92.7578 128.024C87.8121 128.024 83.8027 127.73 83.8027 124.331" stroke="black" stroke-linecap="round"/>
<path d="M83.8027 124.331C83.8027 123.04 84.381 122.196 85.3693 121.647M101.713 124.331C101.713 123.04 101.135 122.196 100.146 121.647" stroke="black" stroke-linecap="round"/>
<path d="M84 126.43V149.038C84 154.641 87.9206 155.125 92.7569 155.125C97.5932 155.125 101.514 154.641 101.514 149.038V126.43" stroke="black" stroke-linecap="round"/>
<path d="M86.3887 115.27V120.053C86.3887 124.455 89.24 124.835 92.7573 124.835C96.2747 124.835 99.126 124.455 99.126 120.053V115.27" stroke="black" stroke-linecap="round"/>
<mask id="path-56-inside-4_9261_68412" fill="white">
<path fill-rule="evenodd" clip-rule="evenodd" d="M100.468 102.263C100.188 99.7651 99.664 94.2897 107.655 89.7172C118.801 83.3402 153.032 68.4198 158.605 75.5935C158.829 75.8819 159.048 76.1625 159.261 76.436L159.285 76.4668L159.288 76.4703C164.362 82.9759 166.299 85.4591 160.197 92.3323C153.829 99.5059 138.703 102.47 128.354 104.065C125.576 104.493 122.835 104.706 120.188 104.911L120.188 104.911C112.311 105.522 105.258 106.07 100.491 112.036L100.491 102.47L100.491 102.469V111.832V112.832V113.59H100.452C100.055 117.279 96.6595 117.615 92.5297 117.615C88.3999 117.615 85.0046 117.279 84.6077 113.59H84.5689V112.832V112.831C76.6653 112.813 74.3515 116.679 70.746 122.702L70.746 122.702C69.7008 124.448 68.547 126.376 67.1171 128.443C60.7545 137.639 40.4743 145.594 30.9 146.069C21.3258 146.544 6.14892 141.435 4.05639 132.592C2.16978 124.619 48.1253 106.975 65.9438 100.134L65.9439 100.134L65.9439 100.134C67.8887 99.3877 69.4983 98.7698 70.6739 98.3071C78.6306 95.1758 82.1701 99.0529 84.03 101.09C84.2298 101.309 84.4103 101.507 84.5747 101.672L84.5746 101.973C84.7345 106.093 88.2349 106.456 92.5297 106.456C96.7212 106.456 100.156 106.11 100.468 102.263Z"/>
</mask>
<path fill-rule="evenodd" clip-rule="evenodd" d="M100.468 102.263C100.188 99.7651 99.664 94.2897 107.655 89.7172C118.801 83.3402 153.032 68.4198 158.605 75.5935C158.829 75.8819 159.048 76.1625 159.261 76.436L159.285 76.4668L159.288 76.4703C164.362 82.9759 166.299 85.4591 160.197 92.3323C153.829 99.5059 138.703 102.47 128.354 104.065C125.576 104.493 122.835 104.706 120.188 104.911L120.188 104.911C112.311 105.522 105.258 106.07 100.491 112.036L100.491 102.47L100.491 102.469V111.832V112.832V113.59H100.452C100.055 117.279 96.6595 117.615 92.5297 117.615C88.3999 117.615 85.0046 117.279 84.6077 113.59H84.5689V112.832V112.831C76.6653 112.813 74.3515 116.679 70.746 122.702L70.746 122.702C69.7008 124.448 68.547 126.376 67.1171 128.443C60.7545 137.639 40.4743 145.594 30.9 146.069C21.3258 146.544 6.14892 141.435 4.05639 132.592C2.16978 124.619 48.1253 106.975 65.9438 100.134L65.9439 100.134L65.9439 100.134C67.8887 99.3877 69.4983 98.7698 70.6739 98.3071C78.6306 95.1758 82.1701 99.0529 84.03 101.09C84.2298 101.309 84.4103 101.507 84.5747 101.672L84.5746 101.973C84.7345 106.093 88.2349 106.456 92.5297 106.456C96.7212 106.456 100.156 106.11 100.468 102.263Z" fill="white"/>
<path d="M107.655 89.7172L107.159 88.8492L107.655 89.7172ZM100.468 102.263L101.464 102.344L101.472 102.248L101.461 102.152L100.468 102.263ZM158.605 75.5935L157.815 76.207V76.207L158.605 75.5935ZM159.261 76.436L160.05 75.821L160.05 75.821L159.261 76.436ZM159.285 76.4668L158.497 77.0817L158.497 77.0827L159.285 76.4668ZM159.288 76.4703L160.076 75.8552L160.076 75.8543L159.288 76.4703ZM160.197 92.3323L160.945 92.9962V92.9962L160.197 92.3323ZM128.354 104.065L128.506 105.053L128.354 104.065ZM120.188 104.911L120.111 103.914L120.105 103.914L120.188 104.911ZM120.188 104.911L120.265 105.908L120.271 105.908L120.188 104.911ZM100.491 112.036L99.4909 112.036L99.491 114.889L101.272 112.66L100.491 112.036ZM100.491 102.47L101.491 102.47V102.415L101.485 102.359L100.491 102.47ZM100.491 102.469L101.484 102.358L99.4905 102.469H100.491ZM100.491 113.59V114.59H101.491V113.59H100.491ZM100.452 113.59V112.59H99.5536L99.4575 113.483L100.452 113.59ZM84.6077 113.59L85.6019 113.483L85.5058 112.59H84.6077V113.59ZM84.5689 113.59H83.5689V114.59H84.5689V113.59ZM84.5689 112.831H85.5689V111.834L84.5712 111.831L84.5689 112.831ZM70.746 122.702L71.563 123.279L71.5847 123.248L71.604 123.216L70.746 122.702ZM70.746 122.702L69.929 122.126L69.9073 122.156L69.8879 122.189L70.746 122.702ZM67.1171 128.443L66.2947 127.874L67.1171 128.443ZM30.9 146.069L30.9496 147.068L30.9 146.069ZM4.05639 132.592L5.02952 132.362L4.05639 132.592ZM65.9438 100.134L65.5926 99.1981L65.5854 99.2009L65.9438 100.134ZM65.9439 100.134L66.295 101.071L66.3023 101.068L65.9439 100.134ZM70.6739 98.3071L70.3077 97.3766H70.3077L70.6739 98.3071ZM84.03 101.09L83.2915 101.764V101.764L84.03 101.09ZM84.5747 101.672L85.5747 101.673L85.5749 101.26L85.284 100.967L84.5747 101.672ZM84.5746 101.973L83.5746 101.972L83.5746 101.992L83.5753 102.012L84.5746 101.973ZM107.159 88.8492C102.995 91.2318 100.949 93.9132 100.022 96.4213C99.1027 98.9077 99.3316 101.102 99.4737 102.374L101.461 102.152C101.324 100.926 101.151 99.134 101.898 97.1149C102.636 95.1177 104.325 92.7751 108.152 90.5851L107.159 88.8492ZM159.395 74.9801C158.487 73.8118 157.068 73.1837 155.449 72.8947C153.823 72.6046 151.877 72.6334 149.744 72.884C145.473 73.3858 140.246 74.8035 134.897 76.6273C124.192 80.2774 112.789 85.6276 107.159 88.8492L108.152 90.5851C113.667 87.4297 124.953 82.1312 135.543 78.5203C140.841 76.7137 145.914 75.3478 149.977 74.8703C152.011 74.6313 153.741 74.6215 155.097 74.8636C156.46 75.1069 157.33 75.5818 157.815 76.207L159.395 74.9801ZM160.05 75.821C159.836 75.5474 159.618 75.2675 159.395 74.98L157.815 76.207C158.04 76.4962 158.259 76.7776 158.473 77.051L160.05 75.821ZM160.074 75.8518L160.05 75.821L158.473 77.051L158.497 77.0817L160.074 75.8518ZM160.076 75.8543L160.073 75.8508L158.497 77.0827L158.5 77.0863L160.076 75.8543ZM160.945 92.9962C164.032 89.5195 165.351 86.8752 164.922 84.1102C164.714 82.768 164.106 81.4973 163.272 80.1893C162.441 78.8856 161.335 77.4694 160.076 75.8552L158.499 77.0853C159.778 78.7239 160.817 80.0578 161.585 81.2642C162.352 82.4663 162.798 83.4657 162.945 84.4168C163.228 86.2381 162.465 88.272 159.449 91.6684L160.945 92.9962ZM128.506 105.053C133.693 104.254 140.122 103.105 146.067 101.245C151.979 99.3951 157.573 96.7945 160.945 92.9962L159.449 91.6684C156.453 95.0438 151.3 97.512 145.469 99.3363C139.672 101.15 133.364 102.281 128.202 103.076L128.506 105.053ZM120.265 105.908C122.907 105.703 125.685 105.488 128.506 105.053L128.202 103.076C125.467 103.498 122.763 103.708 120.111 103.914L120.265 105.908ZM120.271 105.908L120.271 105.908L120.105 103.914L120.105 103.914L120.271 105.908ZM101.272 112.66C105.724 107.088 112.294 106.527 120.265 105.908L120.11 103.914C112.328 104.518 104.792 105.051 99.7097 111.411L101.272 112.66ZM99.4907 102.47L99.4909 112.036L101.491 112.036L101.491 102.47L99.4907 102.47ZM99.4967 102.58L99.4969 102.582L101.485 102.359L101.484 102.358L99.4967 102.58ZM99.4905 102.469V111.832H101.491V102.469H99.4905ZM99.4905 111.832V112.832H101.491V111.832H99.4905ZM99.4905 112.832V113.59H101.491V112.832H99.4905ZM100.491 112.59H100.452V114.59H100.491V112.59ZM99.4575 113.483C99.3749 114.251 99.1457 114.775 98.8453 115.152C98.5425 115.532 98.1147 115.828 97.531 116.053C96.3144 116.521 94.6146 116.615 92.5297 116.615V118.615C94.5745 118.615 96.6373 118.54 98.25 117.919C99.081 117.599 99.8345 117.119 100.409 116.399C100.986 115.675 101.33 114.774 101.446 113.697L99.4575 113.483ZM92.5297 116.615C90.4448 116.615 88.7449 116.521 87.5284 116.053C86.9447 115.828 86.5168 115.532 86.2141 115.152C85.9137 114.775 85.6845 114.251 85.6019 113.483L83.6134 113.697C83.7292 114.774 84.0734 115.675 84.6503 116.399C85.2249 117.119 85.9784 117.599 86.8094 117.919C88.4221 118.54 90.4849 118.615 92.5297 118.615V116.615ZM84.6077 112.59H84.5689V114.59H84.6077V112.59ZM85.5689 113.59V112.832H83.5689V113.59H85.5689ZM85.5689 112.832V112.831H83.5689V112.832H85.5689ZM84.5712 111.831C80.4327 111.822 77.6318 112.837 75.3974 114.739C73.2297 116.585 71.6659 119.218 69.888 122.189L71.604 123.216C73.4315 120.163 74.8275 117.851 76.6939 116.262C78.4937 114.73 80.8015 113.822 84.5665 113.831L84.5712 111.831ZM69.929 122.125L69.929 122.126L71.5629 123.279L71.563 123.279L69.929 122.125ZM69.8879 122.189C68.8418 123.936 67.7035 125.838 66.2947 127.874L67.9395 129.012C69.3905 126.914 70.5598 124.96 71.604 123.216L69.8879 122.189ZM66.2947 127.874C63.2748 132.239 56.8262 136.434 49.8005 139.615C42.7967 142.787 35.4627 144.841 30.8505 145.07L30.9496 147.068C35.9116 146.822 43.5049 144.661 50.6254 141.437C57.724 138.223 64.5968 133.843 67.9395 129.012L66.2947 127.874ZM30.8505 145.07C26.2333 145.299 20.2004 144.176 15.0771 141.91C9.90362 139.622 5.96404 136.311 5.02952 132.362L3.08327 132.822C4.24127 137.716 8.93639 141.381 14.2681 143.739C19.6499 146.12 25.9925 147.314 30.9496 147.068L30.8505 145.07ZM5.02952 132.362C4.91258 131.868 5.12706 131.058 6.19293 129.85C7.21922 128.687 8.84592 127.374 10.9795 125.951C15.2356 123.112 21.3038 119.971 28.032 116.846C41.4763 110.6 57.3881 104.49 66.3022 101.068L65.5854 99.2009C56.6809 102.62 40.7057 108.752 27.1893 115.032C20.4372 118.169 14.2566 121.361 9.86979 124.287C7.68195 125.746 5.88869 127.172 4.6933 128.527C3.53749 129.837 2.72855 131.323 3.08327 132.822L5.02952 132.362ZM66.2949 101.071L66.295 101.071L65.5927 99.1981L65.5926 99.1981L66.2949 101.071ZM66.295 101.071L66.295 101.071L65.5928 99.198L65.5927 99.1981L66.295 101.071ZM66.3023 101.068C68.2454 100.322 69.8596 99.7022 71.0401 99.2376L70.3077 97.3766C69.1369 97.8373 67.5319 98.4535 65.5855 99.2008L66.3023 101.068ZM71.0401 99.2376C74.8254 97.7479 77.4344 97.9666 79.2715 98.6907C81.1464 99.4298 82.3602 100.744 83.2915 101.764L84.7685 100.416C83.84 99.3988 82.354 97.7561 80.005 96.8301C77.6182 95.8892 74.479 95.735 70.3077 97.3766L71.0401 99.2376ZM83.2915 101.764C83.4871 101.979 83.683 102.194 83.8655 102.377L85.284 100.967C85.1376 100.82 84.9726 100.639 84.7685 100.416L83.2915 101.764ZM83.5747 101.672L83.5746 101.972L85.5746 101.973L85.5747 101.673L83.5747 101.672ZM83.5753 102.012C83.6208 103.184 83.9082 104.172 84.4546 104.974C85.0025 105.779 85.7587 106.319 86.612 106.68C88.2583 107.377 90.4082 107.456 92.5297 107.456V105.456C90.3565 105.456 88.6087 105.353 87.3912 104.838C86.8125 104.593 86.3952 104.271 86.1076 103.848C85.8184 103.424 85.6083 102.822 85.5738 101.934L83.5753 102.012ZM92.5297 107.456C94.6033 107.456 96.6985 107.379 98.3243 106.731C99.1637 106.396 99.9189 105.894 100.484 105.142C101.051 104.389 101.374 103.456 101.464 102.344L99.4708 102.183C99.4051 102.994 99.1824 103.546 98.8862 103.94C98.5891 104.335 98.1652 104.641 97.5831 104.873C96.3656 105.359 94.6476 105.456 92.5297 105.456V107.456Z" fill="black" mask="url(#path-56-inside-4_9261_68412)"/>
<path d="M12.849 131.648C14.2699 137.653 24.5756 141.122 31.0769 140.799C37.5782 140.477 51.3492 135.075 55.6696 128.83" stroke="black" stroke-linecap="round"/>
<path d="M92.7583 100.829C89.241 100.829 86.3896 101.21 86.3896 105.612C86.3896 105.612 86.3896 107.956 92.7583 107.956C99.127 107.956 99.127 105.612 99.127 105.612C99.127 101.21 96.2756 100.829 92.7583 100.829Z" fill="black" stroke="black" stroke-linecap="round"/>
<path d="M186.5 396.46C186.5 378.741 196.709 358.509 212.308 350.07C212.427 350.263 212.589 350.511 212.799 350.799C213.302 351.49 214.078 352.412 215.175 353.349C217.374 355.226 220.852 357.154 225.975 357.41C231.136 357.669 235.252 355.497 238.059 353.287C239.464 352.181 240.549 351.06 241.284 350.215C241.651 349.792 241.932 349.437 242.121 349.186C242.131 349.173 242.14 349.161 242.15 349.148C249.889 353.327 256.437 360.626 261.073 369.11C265.784 377.733 268.5 387.54 268.5 396.46C268.5 407.776 263.932 415.501 256.567 420.42C249.173 425.359 238.91 427.5 227.5 427.5C216.09 427.5 205.827 425.359 198.433 420.42C191.068 415.501 186.5 407.776 186.5 396.46Z" stroke="black"/>
<path d="M227 357.412C221.106 357.412 215.893 354.495 212.721 350.022L216.785 347.104C219.047 350.31 222.779 352.404 227 352.404C231.582 352.404 235.587 349.936 237.763 346.257L242.186 348.603C239.167 353.868 233.496 357.412 227 357.412Z" stroke="black"/>
<path d="M219.392 336.886C217.302 338.473 216 340.708 216 343.184C216 348 220.925 351.905 227 351.905C233.075 351.905 238 348 238 343.184C238 340.708 236.698 338.473 234.608 336.886M219.392 336.886L210.5 312.856C213.667 313.523 221.8 314.458 229 312.856C236.2 311.254 244.667 307.85 248 306.348L234.608 336.886M219.392 336.886C220.423 337.669 221.646 338.295 223 338.714M234.608 336.886C233.577 337.669 232.354 338.295 231 338.714M227 339.308L226.5 322.868M227 339.308C228.411 339.308 229.76 339.098 231 338.714M227 339.308C225.589 339.308 224.24 339.098 223 338.714M231 338.714L232.5 330.378M223 338.714L221 327.875" stroke="black"/>
<path d="M199.193 376.935C196.781 384.565 191.105 398.928 199.193 407.455C207.282 415.983 214.81 415.684 219 415.983" stroke="black"/>
<path d="M228.114 370.428V375.634H225.313V370.428H228.114ZM227.761 399.641V404.471H224.961V399.641H227.761ZM228.941 393.666C228.941 393.01 228.841 392.467 228.642 392.038C228.442 391.608 228.119 391.233 227.673 390.911C227.227 390.589 226.634 390.267 225.894 389.945C224.333 389.301 222.953 388.639 221.755 387.959C220.569 387.279 219.636 386.433 218.955 385.419C218.286 384.405 217.951 383.087 217.951 381.465C217.951 379.987 218.309 378.699 219.025 377.601C219.753 376.504 220.751 375.657 222.02 375.061C223.299 374.453 224.773 374.149 226.44 374.149C227.708 374.149 228.865 374.34 229.91 374.721C230.955 375.103 231.859 375.657 232.622 376.385C233.386 377.101 233.973 377.983 234.384 379.033C234.795 380.07 235 381.251 235 382.575H229.065C229.065 381.895 228.994 381.31 228.853 380.821C228.724 380.332 228.536 379.933 228.29 379.623C228.043 379.313 227.755 379.086 227.427 378.943C227.098 378.788 226.74 378.711 226.352 378.711C225.765 378.711 225.29 378.842 224.926 379.104C224.562 379.355 224.297 379.688 224.133 380.106C223.969 380.523 223.886 380.988 223.886 381.501C223.886 382.038 223.975 382.509 224.151 382.914C224.339 383.308 224.656 383.678 225.102 384.024C225.548 384.357 226.159 384.703 226.933 385.061C228.46 385.717 229.822 386.397 231.02 387.1C232.217 387.804 233.157 388.669 233.838 389.694C234.53 390.708 234.877 392.02 234.877 393.63C234.877 395.18 234.519 396.504 233.802 397.601C233.086 398.686 232.088 399.515 230.808 400.088C229.528 400.66 228.049 400.946 226.37 400.946C225.243 400.946 224.121 400.797 223.006 400.499C221.902 400.201 220.892 399.718 219.977 399.05C219.072 398.37 218.35 397.47 217.81 396.349C217.27 395.228 217 393.85 217 392.217H222.935C222.935 393.016 223.029 393.684 223.217 394.22C223.405 394.757 223.658 395.186 223.975 395.508C224.303 395.818 224.673 396.045 225.084 396.188C225.495 396.319 225.924 396.385 226.37 396.385C226.969 396.385 227.456 396.265 227.832 396.027C228.207 395.777 228.483 395.449 228.659 395.043C228.847 394.626 228.941 394.167 228.941 393.666Z" fill="black"/>
</svg>
