<svg width="450" height="451" viewBox="0 0 450 451" fill="none" xmlns="http://www.w3.org/2000/svg">
<path d="M431.21 450.27L314.21 450.27C310.418 422.481 306 387 301.499 352C299 338.5 323 330.173 349.5 325.5C373.951 321.189 402.423 320.5 405.5 333C413.5 365.5 424.388 419.567 431.21 450.27Z" fill="white"/>
<path d="M295.479 64.8524C265.88 54.6521 112.754 15.1472 94.9626 11.7261C77.1714 8.30506 20.7923 227.789 7.48985 305.077L227.534 362.936C227.534 362.936 325.077 75.0526 295.479 64.8524Z" fill="white" stroke="black"/>
<circle cx="155.843" cy="187.465" r="70.0104" transform="rotate(-34.3001 155.843 187.465)" stroke="black"/>
<mask id="mask0_9261_68530" style="mask-type:alpha" maskUnits="userSpaceOnUse" x="85" y="116" width="142" height="142">
<circle cx="155.843" cy="187.465" r="70.0104" transform="rotate(-34.3001 155.843 187.465)" fill="#C4C4C4" stroke="black"/>
</mask>
<g mask="url(#mask0_9261_68530)">
<path d="M84.3889 224.51C91.2905 243.902 103.611 254.878 113.943 260.38C116.875 261.941 119.783 261.369 121.782 259.567C123.766 257.777 124.824 254.805 124.191 251.596L123.838 249.806C123.4 247.587 124.327 245.322 126.195 244.047C128.643 242.378 129.69 239.29 128.762 236.476L126.955 230.993C126.744 230.351 126.603 229.689 126.535 229.017C126.058 224.303 122.429 220.522 117.739 219.851L111.218 218.919C110.231 218.778 109.271 218.488 108.371 218.06L97.8935 213.075C94.7246 211.568 90.9933 211.856 88.0943 213.834C84.6385 216.191 82.9702 220.524 84.3889 224.51Z" stroke="black"/>
<path d="M92.1486 147.371C77.8028 164.918 76.0551 184.886 77.3605 196.115C77.7082 199.106 79.9569 201.399 82.7813 202.242L83.433 202.436C84.6003 202.784 85.8451 202.774 87.0068 202.408L89.0537 201.763C91.9311 200.855 93.1176 197.429 91.4174 194.936C90.6298 193.782 90.6048 192.269 91.3538 191.089L96.3852 183.162C96.7855 182.532 97.1199 181.861 97.383 181.162L103.034 166.14C106.764 158.44 107.322 153.229 106.1 149.788C104.862 146.302 101.86 144.786 98.8976 144.341C96.2349 143.941 93.772 145.386 92.1486 147.371Z" stroke="black"/>
<path d="M140.254 206.482L140.272 206.48L140.289 206.477L148.604 204.96C150.653 204.586 152.516 206.22 152.412 208.3C152.336 209.842 153.105 211.304 154.419 212.114L157.053 213.736C159.526 215.26 161.044 217.946 161.075 220.851L161.128 225.792C161.156 228.469 162.171 231.043 163.978 233.019L169.171 238.7C173.912 243.887 182.252 243.288 186.204 237.477L186.49 237.056C187.728 235.235 188.385 233.081 188.374 230.878L188.358 227.95C188.35 226.381 188.715 224.832 189.424 223.432L192.105 218.138C193.501 215.382 193.286 212.084 191.545 209.531C190.078 207.38 189.835 204.62 190.904 202.246L194.277 194.759C195.895 191.166 193.378 187.073 189.441 186.896C188.002 186.831 186.677 186.093 185.865 184.903L176.791 171.602C174.955 168.91 172.01 167.183 168.765 166.894L161.923 166.286C160.112 166.125 158.421 167.205 157.806 168.915C157.27 170.403 155.671 171.22 154.152 170.781L148.233 169.071C147.425 168.837 146.882 168.081 146.92 167.24C146.99 165.671 145.765 164.347 144.196 164.295L140.933 164.186C138 164.088 135.767 161.498 136.085 158.576C136.345 156.186 138.246 154.292 140.635 154.055L165.985 151.54C166.624 151.477 167.269 151.476 167.909 151.538L169.585 151.699C171.153 151.85 172.662 152.374 173.986 153.227L177.827 155.699C178.966 156.432 179.746 157.608 179.978 158.943C180.184 160.129 180.752 161.223 181.603 162.074L186.213 166.687C190.256 170.732 196.792 170.804 200.923 166.848L205.671 162.3C206.643 161.369 206.8 159.871 206.041 158.759C205.349 157.745 205.887 156.351 207.081 156.065L210.547 155.233C211.709 154.954 212.936 155.182 213.92 155.861L217.469 158.307C218.217 158.822 218.862 159.471 219.374 160.221L220.557 161.955C223.625 166.453 230.398 165.993 232.829 161.121C233.862 159.051 233.829 156.575 232.676 154.557C207.898 111.187 171.171 106.635 150.343 110.573C146.941 111.216 144.314 113.738 143.106 116.926L140.276 124.392C139.459 126.547 137.915 128.349 135.911 129.486L121.693 137.554C119.233 138.949 117.413 141.248 116.618 143.962L115.492 147.808C114.358 151.683 115.462 155.868 118.361 158.679L123.976 164.124C126.768 166.832 127.713 170.926 126.388 174.584L121.775 187.328C121.504 188.075 121.302 188.869 121.234 189.682L121.732 189.724L121.234 189.682C120.919 193.442 121.504 196.444 122.695 198.814C123.888 201.186 125.672 202.895 127.704 204.095C131.751 206.484 136.797 206.864 140.254 206.482Z" stroke="black"/>
<path d="M204.812 215.732L203.023 226.266C202.86 227.223 203.075 228.206 203.622 229.007C205.565 231.856 209.998 230.794 210.44 227.374L211.808 216.778C212.27 213.201 207.712 211.307 205.503 214.157C205.147 214.617 204.909 215.158 204.812 215.732Z" stroke="black"/>
</g>
<path d="M165.296 78.8984L200.132 87.9082" stroke="black" stroke-width="2"/>
<path d="M185.115 97.144L200.742 88.0051L191.603 72.378" stroke="black" stroke-width="2"/>
<path d="M196.244 319.724C198.603 325.503 200.761 336.913 190.525 336.319C180.289 335.725 183.493 331.756 186.375 329.846C193.67 325.789 205.448 319.778 204.752 324.49L202.166 338.726C205.109 332.711 211.104 321.544 211.539 324.995C211.974 328.445 212.209 331.185 212.272 332.124L218.538 327.407L215.906 343.461" stroke="black" stroke-linejoin="round"/>
<path d="M93.8777 56.391L100.44 33.5264L102.629 34.1545L96.0662 57.0192L93.8777 56.391ZM102.656 58.9106L109.219 36.046L111.832 36.796L118.717 59.985L124.342 40.3868L126.531 41.0149L119.968 63.8796L117.355 63.1295L110.451 40.0058L104.845 59.5388L102.656 58.9106ZM136.311 68.8533C134.874 68.4408 133.582 67.8106 132.434 66.9628C131.315 66.0994 130.364 65.0605 129.581 63.8459C128.827 62.6157 128.363 61.151 128.191 59.4517C128.041 57.7586 128.24 55.954 128.79 54.0377C129.34 52.1214 130.139 50.4886 131.186 49.1393C132.234 47.79 133.4 46.805 134.686 46.1841C135.978 45.5415 137.336 45.1651 138.758 45.0548C140.186 44.9227 141.608 45.0598 143.024 45.4661C145.419 46.1536 147.313 47.4395 148.705 49.3239C150.103 51.1866 150.66 53.1851 150.378 55.3195L148.091 54.6632C148.299 53.12 147.865 51.6755 146.79 50.3299C145.721 48.9624 144.272 48.0162 142.443 47.4912C139.851 46.7474 137.528 46.9998 135.472 48.2483C133.417 49.4968 131.952 51.6453 131.077 54.694C130.202 57.7426 130.304 60.3412 131.385 62.4897C132.465 64.6382 134.301 66.0844 136.892 66.8282C138.765 67.3657 140.514 67.3491 142.139 66.7785C143.77 66.1861 144.886 65.1745 145.485 63.7438L147.771 64.4C146.923 66.372 145.408 67.7876 143.229 68.647C141.056 69.4846 138.75 69.5533 136.311 68.8533ZM99.3481 91.2834C97.3895 92.2768 95.1254 92.4048 92.5559 91.6672C89.9863 90.9297 88.1347 89.6205 87.0012 87.7395C85.8739 85.8367 85.654 83.6877 86.3415 81.2924L90.701 66.1037L92.9222 66.7412L88.5064 82.1259C88.0126 83.8462 88.1819 85.3914 89.0142 86.7617C89.8683 88.1382 91.2426 89.0983 93.1371 89.6421C95.0534 90.1921 96.7246 90.1179 98.1507 89.4194C99.6048 88.7055 100.582 87.4774 101.082 85.7354L105.498 70.3507L107.686 70.9789L103.327 86.1675C102.639 88.5629 101.313 90.2682 99.3481 91.2834ZM113.702 97.7368C111.176 97.0117 109.348 95.7445 108.217 93.9351C107.093 92.104 106.781 89.9875 107.282 87.5857L109.471 88.2138C109.145 90.0059 109.39 91.573 110.207 92.9153C111.03 94.2357 112.389 95.1678 114.283 95.7116C116.113 96.2366 117.675 96.2961 118.97 95.89C120.265 95.4839 121.122 94.5514 121.54 93.0924C121.872 91.9383 121.658 90.8753 120.9 89.9035C120.164 88.9379 119.16 88.084 117.888 87.3418C116.644 86.5841 115.406 85.8046 114.175 85.0034C112.944 84.2021 111.98 83.2067 111.284 82.0171C110.611 80.8337 110.483 79.5126 110.902 78.0536C111.414 76.268 112.535 75.0339 114.263 74.3514C116.012 73.6751 118.03 73.6651 120.317 74.3214C122.538 74.9589 124.192 76.0936 125.279 77.7256C126.395 79.342 126.763 81.1801 126.384 83.2397L124.195 82.6116C124.443 81.1742 124.163 79.8917 123.355 78.7642C122.575 77.6212 121.369 76.8153 119.736 76.3465C118.037 75.859 116.598 75.823 115.418 76.2386C114.26 76.6604 113.506 77.4811 113.156 78.7005C112.831 79.8328 113.053 80.8632 113.824 81.7914C114.595 82.7197 115.605 83.5518 116.855 84.2878C118.112 85.0019 119.355 85.7596 120.587 86.5609C121.846 87.3466 122.817 88.356 123.5 89.5892C124.19 90.8006 124.31 92.1902 123.86 93.758C123.285 95.7614 122.051 97.1043 120.158 97.7866C118.293 98.4534 116.141 98.4368 113.702 97.7368ZM126.538 101.138L133.101 78.2736L139.568 80.1299C142.856 81.0737 145.26 82.8831 146.778 85.558C148.325 88.2175 148.595 91.3002 147.589 94.8061C146.582 98.312 144.715 100.793 141.987 102.249C139.288 103.69 136.294 103.938 133.006 102.995L126.538 101.138ZM129.308 99.7412L133.652 100.988C136.178 101.713 138.519 101.525 140.673 100.422C142.85 99.3266 144.382 97.2326 145.269 94.1404C146.157 91.0483 145.969 88.4605 144.705 86.3771C143.462 84.2999 141.578 82.8988 139.052 82.1738L134.708 80.9269L129.308 99.7412Z" fill="black"/>
<path d="M225.154 91.8695L230.511 68.6927L232.73 69.2055L227.847 90.3294L239.733 93.0769L239.259 95.1297L225.154 91.8695ZM245.757 96.6316L250.639 75.5076L243.057 73.7551L243.532 71.7023L260.881 75.7124L260.407 77.7652L252.858 76.0204L247.975 97.1443L245.757 96.6316ZM260.12 99.9515L265.477 76.7747L272.033 78.29C275.366 79.0604 277.86 80.7415 279.517 83.3334C281.2 85.9083 281.631 88.9726 280.81 92.5263C279.989 96.0801 278.254 98.6555 275.606 100.252C272.985 101.832 270.009 102.237 266.676 101.467L260.12 99.9515ZM262.813 98.4114L267.216 99.4293C269.777 100.021 272.104 99.7104 274.198 98.497C276.314 97.2887 277.735 95.1174 278.459 91.983C279.184 88.8486 278.86 86.2742 277.489 84.2598C276.14 82.2505 274.185 80.95 271.624 80.3581L267.221 79.3403L262.813 98.4114ZM219.851 125.819C217.886 125.365 216.184 124.53 214.745 123.314C213.311 122.075 212.264 120.415 211.606 118.333C210.97 116.256 210.945 113.948 211.532 111.41C212.119 108.871 213.154 106.809 214.637 105.221C216.142 103.639 217.808 102.618 219.635 102.156C221.468 101.673 223.355 101.656 225.297 102.105C227.88 102.702 229.938 103.91 231.47 105.729C233.008 107.526 233.684 109.531 233.498 111.744L231.048 111.177C231.118 109.566 230.562 108.1 229.379 106.78C228.218 105.466 226.699 104.591 224.823 104.158C222.24 103.561 219.944 103.937 217.935 105.286C215.948 106.641 214.597 108.863 213.883 111.953C213.169 115.043 213.407 117.633 214.598 119.722C215.812 121.816 217.71 123.162 220.292 123.759C222.411 124.249 224.333 124.135 226.057 123.417C227.78 122.699 228.849 121.446 229.262 119.658C229.4 119.063 229.322 118.545 229.028 118.105C228.74 117.643 228.276 117.338 227.635 117.19L222.172 115.927L222.647 113.874L228.242 115.168C229.192 115.387 230.048 115.957 230.812 116.878C231.576 117.798 231.81 118.899 231.514 120.179L229.746 127.827L227.627 127.337L228.591 123.166C227.689 124.352 226.437 125.191 224.836 125.681C223.256 126.176 221.595 126.222 219.851 125.819ZM234.599 128.949L239.956 105.772L248.002 107.632C250.209 108.142 251.797 109.067 252.767 110.407C253.763 111.731 254.044 113.33 253.611 115.206C253.376 116.222 252.853 117.077 252.041 117.773C251.234 118.447 250.348 118.859 249.384 119.008C251.956 120.556 252.884 122.875 252.17 125.965C251.696 128.018 250.667 129.501 249.084 130.414C247.528 131.31 245.581 131.487 243.241 130.946L234.599 128.949ZM239.909 116.085L245.737 117.432C248.849 118.152 250.704 117.22 251.301 114.638C251.897 112.055 250.651 110.407 247.561 109.692L241.7 108.338L239.909 116.085ZM237.292 127.409L243.219 128.779C245.029 129.197 246.489 129.116 247.6 128.536C248.733 127.961 249.472 126.923 249.819 125.422C250.166 123.921 249.957 122.663 249.192 121.649C248.448 120.64 247.172 119.927 245.362 119.508L239.435 118.138L237.292 127.409ZM255.244 133.721L260.601 110.544L269.11 112.511C271.317 113.021 272.929 114.045 273.946 115.582C274.984 117.124 275.272 118.899 274.807 120.908C274.343 122.917 273.306 124.386 271.696 125.316C270.108 126.251 268.21 126.464 266.003 125.953L259.712 124.499L257.462 134.234L255.244 133.721ZM260.186 122.447L266.543 123.916C268.199 124.299 269.515 124.138 270.492 123.433C271.49 122.734 272.145 121.711 272.457 120.365C272.768 119.018 272.628 117.812 272.038 116.745C271.469 115.684 270.357 114.962 268.702 114.579L262.345 113.11L260.186 122.447Z" fill="black"/>
<path fill-rule="evenodd" clip-rule="evenodd" d="M51.5225 220.538C38.8313 222.844 30.4122 235.001 32.7181 247.693L39.5808 285.464C41.8866 298.155 54.0442 306.574 66.7354 304.268L151.43 288.88C164.122 286.574 172.541 274.417 170.235 261.725L163.372 223.954C161.066 211.263 148.909 202.844 136.217 205.15L51.5225 220.538ZM54.9677 226.284C44.3917 228.205 37.3758 238.337 39.2974 248.913L45.1839 281.311C47.1055 291.887 57.2368 298.903 67.8128 296.982L147.83 282.443C158.407 280.522 165.422 270.39 163.501 259.814L157.614 227.416C155.693 216.84 145.561 209.824 134.985 211.745L54.9677 226.284Z" fill="black"/>
<path d="M62.545 266.782L61.2076 264.422L57.0153 265.179L56.6059 267.854L53.2042 268.468L55.6794 254.731L58.8052 254.166L65.9282 266.171L62.545 266.782ZM57.4617 262.288L59.7785 261.87L58.0159 258.733L57.4617 262.288ZM67.3152 265.92L64.9913 253.049L70.4707 252.06C71.8558 251.81 73.0104 252 73.9344 252.631C74.8706 253.259 75.4505 254.192 75.674 255.43C75.8975 256.668 75.6806 257.746 75.0233 258.662C74.3782 259.576 73.3631 260.158 71.9779 260.408L69.7898 260.803L70.6065 265.326L67.3152 265.92ZM69.3051 258.118L71.2726 257.763C71.7751 257.672 72.1297 257.463 72.3362 257.134C72.555 256.804 72.6256 256.424 72.5482 255.995C72.4707 255.566 72.2717 255.235 71.9511 255.001C71.6428 254.766 71.2373 254.694 70.7347 254.784L68.7673 255.14L69.3051 258.118ZM78.9954 263.811L76.6715 250.94L82.1509 249.951C83.5361 249.701 84.6906 249.891 85.6146 250.522C86.5508 251.15 87.1307 252.083 87.3542 253.322C87.5778 254.56 87.3609 255.637 86.7035 256.553C86.0584 257.467 85.0433 258.049 83.6581 258.299L81.47 258.694L82.2867 263.217L78.9954 263.811ZM80.9853 256.009L82.9528 255.654C83.4554 255.563 83.8099 255.354 84.0164 255.025C84.2352 254.695 84.3059 254.315 84.2284 253.886C84.1509 253.457 83.9519 253.126 83.6313 252.892C83.323 252.657 82.9175 252.585 82.415 252.675L80.4475 253.031L80.9853 256.009ZM100.029 256.197L101.101 259.82L97.8099 260.414L96.8244 257.27C96.7112 256.923 96.506 256.663 96.2087 256.488C95.9237 256.312 95.6035 256.256 95.248 256.32L93.1702 256.695L93.967 261.108L90.6756 261.703L88.3517 248.831L94.015 247.809C95.4002 247.559 96.5548 247.749 97.4787 248.38C98.4149 249.008 98.9948 249.941 99.2183 251.179C99.4308 252.356 99.0943 253.297 98.2088 254.001C99.1219 254.431 99.7288 255.163 100.029 256.197ZM92.1278 250.922L92.6656 253.9L94.8169 253.512C95.3195 253.421 95.674 253.212 95.8805 252.883C96.0993 252.553 96.17 252.173 96.0925 251.744C96.015 251.315 95.816 250.984 95.4954 250.75C95.1871 250.515 94.7817 250.443 94.2791 250.533L92.1278 250.922ZM108.847 258.574C106.91 258.923 105.192 258.588 103.691 257.568C102.203 256.545 101.288 255.09 100.947 253.203C100.606 251.315 100.954 249.632 101.991 248.154C103.04 246.673 104.533 245.758 106.47 245.408C108.382 245.063 110.083 245.402 111.571 246.424C113.059 247.446 113.974 248.901 114.315 250.789C114.656 252.677 114.308 254.36 113.271 255.838C112.234 257.316 110.759 258.228 108.847 258.574ZM105.668 255.16C106.446 255.754 107.331 255.961 108.324 255.782C109.317 255.603 110.068 255.1 110.577 254.274C111.084 253.436 111.239 252.471 111.042 251.38C110.845 250.289 110.363 249.446 109.598 248.85C108.83 248.242 107.949 248.027 106.956 248.206C105.963 248.386 105.207 248.896 104.688 249.736C104.179 250.562 104.023 251.521 104.22 252.612C104.417 253.703 104.9 254.552 105.668 255.16ZM120.367 256.342L113.501 244.291L116.793 243.696L121.161 251.907L122.419 242.68L125.692 242.09L123.474 255.781L120.367 256.342ZM129.577 254.679L127.253 241.808L136.318 240.171L136.823 242.966L131.031 244.012L131.416 246.145L135.976 245.321L136.48 248.116L131.92 248.939L132.345 251.293L138.34 250.211L138.844 253.006L129.577 254.679ZM140.862 252.641L138.538 239.77L143.098 238.947C144.005 238.783 144.874 238.759 145.705 238.875C146.549 238.988 147.334 239.239 148.063 239.626C148.791 240.014 149.415 240.597 149.936 241.377C150.454 242.144 150.811 243.073 151.008 244.164C151.205 245.255 151.196 246.256 150.981 247.169C150.764 248.069 150.382 248.827 149.835 249.445C149.289 250.063 148.64 250.572 147.89 250.974C147.152 251.373 146.329 251.654 145.422 251.818L140.862 252.641ZM143.63 249.255L144.531 249.093C145.046 249 145.507 248.853 145.914 248.653C146.333 248.451 146.703 248.188 147.025 247.864C147.356 247.526 147.582 247.093 147.701 246.565C147.834 246.035 147.839 245.432 147.717 244.758C147.595 244.084 147.38 243.522 147.071 243.071C146.774 242.618 146.412 242.298 145.986 242.109C145.569 241.906 145.129 241.782 144.666 241.74C144.215 241.694 143.732 241.718 143.217 241.811L142.316 241.974L143.63 249.255Z" fill="black"/>
<path d="M55.6641 278.575L153.73 260.869" stroke="black" stroke-width="2"/>
<path d="M49.4258 246.761L147.491 229.055" stroke="black" stroke-width="2"/>
<rect x="179.62" y="153.634" width="250.157" height="159.955" rx="49.5" transform="rotate(-10 179.62 153.634)" fill="black" stroke="black"/>
<rect x="191.7" y="162.628" width="229.432" height="136.69" rx="41.5" transform="rotate(-10 191.7 162.628)" fill="white" stroke="black"/>
<rect x="250.281" y="182.871" width="121.132" height="77.8296" rx="38.9148" transform="rotate(-10 250.281 182.871)" fill="black"/>
<path d="M310.743 329.704C313.025 333.659 319.289 357.459 318.739 360.792C318.739 360.792 333.404 363.912 357.932 359.407C382.46 354.902 394.942 346.19 394.942 346.19C393.826 338.588 391.975 322.191 393.505 317.413C395.419 311.439 398.033 303.803 403.458 276.259C408.884 248.716 400.537 175.901 389.877 170.808C381.349 166.734 374.139 169.407 371.297 172.33C369.311 164.325 361.726 157.344 354.433 158.742C348.94 159.794 343.207 161.589 340.151 167.781C336.47 157.129 330.427 147.541 321.525 149.247C317.44 149.86 310.376 152.403 306.931 159.18C303.55 148.357 299.972 143.185 288.969 144.275C276.217 145.537 277.726 162.737 276.789 181.775L276.115 228.796C262.221 222.793 270.888 182.906 247.635 181.246C231.158 180.069 239.291 217.505 241.741 230.288C246.811 256.746 295.704 303.638 310.743 329.704Z" fill="white"/>
<path d="M311.822 183.727C311.134 177.041 309.546 167.553 306.931 159.18M344.302 185.658C342.609 172.39 335.684 146.534 321.525 149.247C317.44 149.86 310.376 152.403 306.931 159.18M373.038 189.326C373.144 184.661 372.739 178.14 371.297 172.33M371.297 172.33C369.311 164.325 361.726 157.344 354.433 158.742C348.94 159.794 343.207 161.589 340.151 167.781M371.297 172.33C374.139 169.407 381.349 166.734 389.877 170.808C400.537 175.901 408.884 248.716 403.458 276.259C398.033 303.803 395.419 311.439 393.505 317.413C391.975 322.191 393.826 338.588 394.942 346.19C394.942 346.19 382.46 354.902 357.932 359.407C333.404 363.912 318.739 360.792 318.739 360.792C319.289 357.459 313.025 333.659 310.743 329.704C295.704 303.638 246.811 256.746 241.741 230.288C239.291 217.505 231.158 180.069 247.635 181.246C270.888 182.906 262.221 222.793 276.115 228.796L276.789 181.775C277.726 162.737 276.217 145.537 288.969 144.275C299.972 143.185 303.55 148.357 306.931 159.18" stroke="black"/>
<path d="M392.834 323.379C400.048 325.26 404.685 328.378 405.415 332.519C407.187 342.565 385.292 354.822 356.513 359.897C327.733 364.971 302.966 360.942 301.195 350.896C300.344 346.069 304.957 340.731 313.172 335.925" stroke="black"/>
<path fill-rule="evenodd" clip-rule="evenodd" d="M300.584 350.83L300.564 350.833L300.071 350.92L300.158 351.412L302.153 362.724L314.005 449.568L314.996 449.433L303.625 366.119C304.621 367.492 306.056 368.706 307.842 369.759C310.982 371.608 315.268 372.993 320.374 373.881C330.592 375.657 344.206 375.459 358.804 372.885C373.402 370.311 386.262 365.84 395.256 360.677C399.751 358.097 403.305 355.329 405.622 352.517C406.951 350.905 407.888 349.26 408.351 347.617L431.012 449.609L431.988 449.392L408.563 343.96L406.568 332.649L406.482 332.157L405.989 332.244L405.968 332.247C406.038 332.959 406.002 333.68 405.863 334.407L407.58 344.144C408.008 346.574 407.066 349.194 404.851 351.881C402.637 354.566 399.195 357.263 394.758 359.81C385.889 364.902 373.145 369.341 358.63 371.9C344.115 374.46 330.622 374.647 320.546 372.896C315.505 372.019 311.348 370.663 308.35 368.897C305.349 367.13 303.568 364.99 303.139 362.56L301.422 352.824C301.043 352.188 300.762 351.523 300.584 350.83Z" fill="black"/>
<mask id="path-25-inside-1_9261_68530" fill="white">
<path d="M158.349 367.651L157.564 374.508C157.435 375.584 156.368 376.353 155.164 376.206H155.122C155.002 376.19 154.891 376.173 154.779 376.14C155.753 372.501 155.873 368.906 155.078 365.645C155.455 365.465 155.89 365.388 156.359 365.44L156.402 365.448C157.606 365.584 158.469 366.566 158.349 367.651Z"/>
</mask>
<path d="M157.564 374.508L158.557 374.622L158.557 374.627L157.564 374.508ZM155.164 376.206V375.206H155.224L155.285 375.213L155.164 376.206ZM155.122 376.206V377.206H155.055L154.988 377.197L155.122 376.206ZM154.779 376.14L154.496 377.099L153.561 376.823L153.813 375.881L154.779 376.14ZM155.078 365.645L154.107 365.882L153.914 365.092L154.648 364.742L155.078 365.645ZM156.359 365.44L156.47 364.446L156.504 364.45L156.538 364.456L156.359 365.44ZM156.402 365.448L156.29 366.442L156.257 366.438L156.224 366.432L156.402 365.448ZM159.342 367.765L158.557 374.622L156.57 374.395L157.355 367.537L159.342 367.765ZM158.557 374.627C158.352 376.338 156.706 377.401 155.043 377.199L155.285 375.213C156.03 375.304 156.518 374.83 156.571 374.39L158.557 374.627ZM155.164 377.206H155.122V375.206H155.164V377.206ZM154.988 377.197C154.863 377.18 154.686 377.155 154.496 377.099L155.063 375.181C155.095 375.19 155.142 375.2 155.255 375.215L154.988 377.197ZM153.813 375.881C154.75 372.379 154.856 368.956 154.107 365.882L156.05 365.408C156.891 368.856 156.756 372.623 155.745 376.398L153.813 375.881ZM154.648 364.742C155.198 364.48 155.821 364.374 156.47 364.446L156.249 366.434C155.958 366.402 155.712 366.451 155.509 366.547L154.648 364.742ZM156.538 364.456L156.581 364.464L156.224 366.432L156.181 366.424L156.538 364.456ZM156.515 364.454C158.172 364.642 159.534 366.039 159.343 367.762L157.355 367.541C157.405 367.094 157.04 366.527 156.29 366.442L156.515 364.454Z" fill="black" mask="url(#path-25-inside-1_9261_68530)"/>
<mask id="path-27-inside-2_9261_68530" fill="white">
<path d="M155.832 365.645C156.627 368.906 156.507 372.501 155.533 376.14C154.628 379.544 152.973 382.987 150.633 386.215C144.877 394.156 134.988 403.626 120.557 403.626C118.202 403.626 115.784 403.37 113.377 402.848C101.328 400.278 90.8417 387.103 86.2051 375.959C85.4201 374.081 84.7887 372.236 84.3099 370.461C84.0459 369.495 83.8321 368.547 83.6604 367.617C82.5763 361.759 83.2679 356.668 85.7363 352.826C86.2904 351.956 86.9911 351.171 87.8283 350.454C88.0581 350.274 88.2207 350.138 88.3151 350.078C91.8495 347.353 97.6054 345.911 105.486 345.765C105.939 345.757 106.4 345.747 106.87 345.747C116.955 345.747 129.763 347.84 140.3 351.213C150.325 354.415 154.082 360.129 155.466 364.355C155.603 364.781 155.73 365.208 155.832 365.645Z"/>
</mask>
<path d="M155.533 376.14L154.567 375.883L154.567 375.881L155.533 376.14ZM150.633 386.215L151.442 386.802V386.802L150.633 386.215ZM113.377 402.848L113.586 401.87L113.589 401.871L113.377 402.848ZM86.2051 375.959L87.1278 375.573L87.1284 375.575L86.2051 375.959ZM84.3099 370.461L85.2745 370.197L85.2754 370.201L84.3099 370.461ZM83.6604 367.617L84.6437 367.435L84.6438 367.435L83.6604 367.617ZM85.7363 352.826L86.5799 353.363L86.5777 353.367L85.7363 352.826ZM87.8283 350.454L87.1781 349.694L87.1946 349.68L87.2118 349.667L87.8283 350.454ZM88.3151 350.078L88.9256 350.87L88.8896 350.898L88.8512 350.922L88.3151 350.078ZM105.486 345.765L105.468 344.765L105.469 344.765L105.486 345.765ZM140.3 351.213L139.996 352.166L139.996 352.165L140.3 351.213ZM155.466 364.355L156.416 364.043L156.418 364.05L155.466 364.355ZM156.804 365.408C157.645 368.856 157.509 372.623 156.499 376.398L154.567 375.881C155.504 372.379 155.61 368.956 154.861 365.882L156.804 365.408ZM156.5 376.397C155.56 379.93 153.848 383.483 151.442 386.802L149.823 385.628C152.097 382.49 153.696 379.158 154.567 375.883L156.5 376.397ZM151.442 386.802C145.616 394.84 135.467 404.626 120.557 404.626V402.626C134.509 402.626 144.137 393.472 149.823 385.628L151.442 386.802ZM120.557 404.626C118.13 404.626 115.641 404.362 113.165 403.825L113.589 401.871C115.927 402.378 118.274 402.626 120.557 402.626V404.626ZM113.169 403.826C106.872 402.483 101.068 398.395 96.2826 393.304C91.4892 388.204 87.6442 382.021 85.2818 376.343L87.1284 375.575C89.4025 381.041 93.1188 387.018 97.7399 391.934C102.369 396.859 107.833 400.643 113.586 401.87L113.169 403.826ZM85.2824 376.344C84.4813 374.428 83.8353 372.541 83.3444 370.721L85.2754 370.201C85.7421 371.93 86.3589 373.734 87.1278 375.573L85.2824 376.344ZM83.3453 370.725C83.0736 369.731 82.8536 368.755 82.6771 367.799L84.6438 367.435C84.8106 368.339 85.0182 369.26 85.2745 370.197L83.3453 370.725ZM82.6771 367.799C81.5623 361.775 82.249 356.404 84.895 352.286L86.5777 353.367C84.2869 356.932 83.5904 361.743 84.6437 367.435L82.6771 367.799ZM84.8927 352.289C85.5064 351.325 86.2756 350.467 87.1781 349.694L88.4784 351.214C87.7066 351.874 87.0744 352.586 86.5799 353.363L84.8927 352.289ZM87.2118 349.667C87.3282 349.576 87.4075 349.511 87.5027 349.436C87.5774 349.377 87.6813 349.296 87.779 349.234L88.8512 350.922C88.8545 350.92 88.83 350.937 88.7423 351.006C88.6751 351.059 88.5582 351.153 88.4447 351.242L87.2118 349.667ZM87.7046 349.286C91.4966 346.363 97.5187 344.912 105.468 344.765L105.505 346.765C97.692 346.909 92.2024 348.344 88.9256 350.87L87.7046 349.286ZM105.469 344.765C105.916 344.757 106.388 344.747 106.87 344.747V346.747C106.411 346.747 105.962 346.757 105.504 346.765L105.469 344.765ZM106.87 344.747C117.068 344.747 129.979 346.859 140.605 350.261L139.996 352.165C129.548 348.821 116.842 346.747 106.87 346.747V344.747ZM140.605 350.26C150.938 353.561 154.933 359.515 156.416 364.043L154.516 364.666C153.23 360.742 149.713 355.269 139.996 352.166L140.605 350.26ZM156.418 364.05C156.558 364.487 156.695 364.942 156.806 365.417L154.859 365.873C154.765 365.473 154.647 365.075 154.514 364.659L156.418 364.05Z" fill="black" mask="url(#path-27-inside-2_9261_68530)"/>
<mask id="path-29-inside-3_9261_68530" fill="white">
<path d="M71.4324 350.326C72.346 351.067 73.0973 351.905 73.687 352.826C76.1542 356.668 76.8459 361.759 75.7617 367.617C75.5912 368.547 75.3775 369.495 75.1128 370.461C74.6343 372.236 74.0022 374.081 73.2169 375.959C68.5719 387.103 58.0947 400.278 46.0458 402.848C43.6378 403.37 41.2126 403.626 38.8643 403.626C24.4337 403.626 14.5454 394.156 8.79031 386.215C6.44189 382.979 4.79384 379.528 3.8889 376.122C2.92354 372.501 2.79565 368.914 3.58144 365.67C3.69205 365.226 3.81161 364.79 3.95676 364.355C5.34051 360.129 9.09737 354.415 19.1225 351.213C29.6593 347.84 42.4681 345.747 52.5525 345.747C53.0219 345.747 53.4916 345.757 53.9445 345.765C62.0648 345.919 67.9226 347.448 71.4324 350.326Z"/>
</mask>
<path d="M73.687 352.826L72.8456 353.366L72.8448 353.365L73.687 352.826ZM75.7617 367.617L74.7781 367.437L74.7784 367.435L75.7617 367.617ZM75.1128 370.461L74.1472 370.201L74.1483 370.197L75.1128 370.461ZM73.2169 375.959L72.2938 375.574L72.2943 375.573L73.2169 375.959ZM46.0458 402.848L45.834 401.871L45.8372 401.87L46.0458 402.848ZM8.79031 386.215L9.59968 385.628L9.60002 385.628L8.79031 386.215ZM3.8889 376.122L4.85515 375.864L4.85538 375.865L3.8889 376.122ZM3.58144 365.67L2.60951 365.434L2.61116 365.428L3.58144 365.67ZM3.95676 364.355L4.90712 364.666L4.90549 364.671L3.95676 364.355ZM19.1225 351.213L19.4274 352.165L19.4268 352.166L19.1225 351.213ZM53.9445 345.765L53.9622 344.765L53.9634 344.765L53.9445 345.765ZM72.0628 349.549C73.0548 350.355 73.8791 351.271 74.5293 352.287L72.8448 353.365C72.3155 352.538 71.6371 351.78 70.802 351.102L72.0628 349.549ZM74.5285 352.286C77.1731 356.404 77.86 361.775 76.745 367.799L74.7784 367.435C75.8319 361.743 75.1353 356.932 72.8456 353.366L74.5285 352.286ZM76.7453 367.797C76.5698 368.754 76.3498 369.731 76.0772 370.725L74.1483 370.197C74.4052 369.26 74.6126 368.339 74.7781 367.437L76.7453 367.797ZM76.0783 370.721C75.5877 372.541 74.9409 374.428 74.1395 376.345L72.2943 375.573C73.0636 373.733 73.681 371.93 74.1472 370.201L76.0783 370.721ZM74.1399 376.344C71.7734 382.021 67.9287 388.204 63.1365 393.304C58.3526 398.394 52.5509 402.483 46.2544 403.826L45.8372 401.87C51.5896 400.643 57.0509 396.859 61.6791 391.934C66.299 387.018 70.0154 381.041 72.2938 375.574L74.1399 376.344ZM46.2576 403.825C43.7807 404.362 41.2845 404.626 38.8643 404.626V402.626C41.1407 402.626 43.4949 402.378 45.834 401.871L46.2576 403.825ZM38.8643 404.626C23.9547 404.626 13.8059 394.84 7.98059 386.802L9.60002 385.628C15.2848 393.472 24.9127 402.626 38.8643 402.626V404.626ZM7.98093 386.802C5.56573 383.474 3.86125 379.913 2.92242 376.378L4.85538 375.865C5.72642 379.144 7.31805 382.483 9.59968 385.628L7.98093 386.802ZM2.92265 376.379C1.92148 372.624 1.77838 368.866 2.60954 365.434L4.55333 365.905C3.81293 368.962 3.9256 372.378 4.85515 375.864L2.92265 376.379ZM2.61116 365.428C2.7253 364.97 2.85185 364.507 3.00803 364.039L4.90549 364.671C4.77137 365.073 4.65881 365.482 4.55171 365.912L2.61116 365.428ZM3.00641 364.043C4.48921 359.515 8.48461 353.561 18.8183 350.26L19.4268 352.166C9.71013 355.269 6.19182 360.743 4.9071 364.666L3.00641 364.043ZM18.8177 350.261C29.4436 346.859 42.3553 344.747 52.5525 344.747V346.747C42.581 346.747 29.875 348.821 19.4274 352.165L18.8177 350.261ZM52.5525 344.747C53.0332 344.747 53.5146 344.757 53.9622 344.765L53.9268 346.765C53.4685 346.757 53.0106 346.747 52.5525 346.747V344.747ZM53.9634 344.765C62.1514 344.92 68.2914 346.457 72.0665 349.552L70.7983 351.099C67.5537 348.438 61.9783 346.917 53.9256 346.765L53.9634 344.765Z" fill="black" mask="url(#path-29-inside-3_9261_68530)"/>
<mask id="path-31-inside-4_9261_68530" fill="white">
<path d="M4.64183 376.122C4.51355 376.164 4.37673 376.19 4.24031 376.206H4.19755C2.99338 376.353 1.92602 375.584 1.79784 374.508L1.01246 367.651C0.884571 366.566 1.75588 365.584 2.95884 365.448L3.00201 365.44C3.48032 365.388 3.95011 365.474 4.33437 365.67C3.54858 368.914 3.67647 372.501 4.64183 376.122Z"/>
</mask>
<path d="M4.24031 376.206L4.35723 377.199L4.29897 377.206H4.24031V376.206ZM4.19755 376.206L4.07665 375.213L4.13687 375.206H4.19755V376.206ZM1.79784 374.508L0.804858 374.627L0.804332 374.622L1.79784 374.508ZM1.01246 367.651L2.00559 367.534L2.00596 367.537L1.01246 367.651ZM2.95884 365.448L3.13734 366.432L3.10459 366.438L3.07152 366.442L2.95884 365.448ZM3.00201 365.44L2.82352 364.456L2.85834 364.45L2.89352 364.446L3.00201 365.44ZM4.33437 365.67L4.78809 364.779L5.49228 365.137L5.30627 365.905L4.33437 365.67ZM4.9527 377.072C4.74479 377.14 4.53965 377.178 4.35723 377.199L4.12338 375.213C4.2138 375.202 4.2823 375.187 4.33096 375.171L4.9527 377.072ZM4.24031 377.206H4.19755V375.206H4.24031V377.206ZM4.31844 377.199C2.65547 377.401 1.00884 376.338 0.804869 374.627L2.7908 374.39C2.8432 374.83 3.33128 375.304 4.07665 375.213L4.31844 377.199ZM0.804332 374.622L0.0189517 367.765L2.00596 367.537L2.79134 374.395L0.804332 374.622ZM0.0193325 367.768C-0.185024 366.035 1.19676 364.641 2.84617 364.454L3.07152 366.442C2.315 366.527 1.95417 367.098 2.00558 367.534L0.0193325 367.768ZM2.78035 364.464L2.82352 364.456L3.1805 366.424L3.13734 366.432L2.78035 364.464ZM2.89352 364.446C3.55479 364.374 4.22127 364.49 4.78809 364.779L3.88065 366.561C3.67894 366.458 3.40586 366.402 3.11049 366.434L2.89352 364.446ZM5.30627 365.905C4.56586 368.962 4.67853 372.378 5.60808 375.864L3.67559 376.379C2.67441 372.624 2.53131 368.866 3.36247 365.434L5.30627 365.905Z" fill="black" mask="url(#path-31-inside-4_9261_68530)"/>
<path d="M8.37367 395.461C9.72134 394.537 11.2502 393.029 12.9765 391.211C11.5028 389.598 10.1957 387.962 9.05407 386.387C8.80464 386.044 8.56217 385.696 8.32729 385.345C6.12197 387.586 4.52227 389.78 3.84702 391.662C3.48956 392.658 3.40473 393.528 3.58787 394.258C3.76756 394.975 4.21862 395.611 5.04534 396.13C5.8754 396.648 6.92583 396.453 8.37367 395.461Z" stroke="black"/>
<path d="M69.3163 375.412L69.3509 375.428L69.3163 375.524C49.3169 375.797 32.5471 376.59 28.7126 378.375C23.7438 380.689 19.363 384.324 15.5975 388.338C14.2142 386.827 12.9755 385.281 11.8914 383.787C11.4557 383.181 11.1882 382.885 10.7871 382.218C13.784 379.734 17.1001 377.837 20.5582 376.027C32.4362 375.745 50.8635 375.437 69.3163 375.412Z" stroke="black"/>
<path d="M87.6153 368.342H87.6063C87.5722 368.162 87.538 367.984 87.5039 367.804C113.82 367.112 140.266 367.403 151.863 366.932C152.69 370.024 152.4 373.312 151.453 376.429C150.001 376.343 145.433 376.19 138.866 376.027C138.132 375.652 137.405 375.292 136.68 374.96C128.397 371.169 109.108 369.298 87.6153 368.342Z" stroke="black"/>
<path d="M154.372 396.13L154.371 396.131C153.54 396.654 152.481 396.454 151.016 395.441C149.653 394.498 148.107 392.963 146.363 391.118C147.802 389.539 149.076 387.936 150.199 386.388M154.372 396.13L149.795 386.093M154.372 396.13C155.207 395.608 155.66 394.966 155.838 394.243C156.02 393.505 155.929 392.626 155.562 391.62C154.869 389.718 153.237 387.5 150.997 385.24M154.372 396.13L151.277 384.813M150.199 386.388C150.2 386.388 150.2 386.387 150.2 386.387L149.795 386.093M150.199 386.388C150.199 386.388 150.199 386.388 150.199 386.389L149.795 386.093M150.199 386.388C150.477 386.008 150.741 385.626 150.997 385.24M149.795 386.093C150.088 385.694 150.365 385.29 150.635 384.88C150.757 385 150.878 385.12 150.997 385.24M150.997 385.24C151.091 385.098 151.184 384.956 151.277 384.813M151.277 384.813C151.157 384.693 151.036 384.573 150.914 384.453L151.277 384.813ZM151.277 384.813C155.994 389.545 158.268 394.281 154.638 396.554C152.426 397.945 149.419 395.101 145.68 391.122L151.277 384.813Z" stroke="black"/>
<path d="M138.867 376.027C142.274 377.811 145.4 380.036 148.37 382.479C147.961 383.178 147.516 383.845 147.055 384.476C145.997 385.946 144.785 387.457 143.426 388.933C139.678 384.955 135.64 380.671 130.704 378.374C126.869 376.59 110.013 375.787 89.9383 375.524C88.9053 373.105 88.1113 370.681 87.6074 368.341H87.6165C109.109 369.297 128.398 371.168 136.681 374.96C137.406 375.292 138.133 375.651 138.867 376.027Z" stroke="black"/>
<path d="M84.2251 369.577C84.6086 371.003 85.4918 373.195 86.072 374.689C82.118 374.655 77.3467 375.451 73.2734 375.442C73.8451 373.966 74.6435 370.986 75.0278 369.577C76.0692 368.68 78.4008 367.819 79.6301 367.819C80.8513 367.819 83.0627 368.757 84.2251 369.577Z" stroke="black"/>
<path d="M71.7492 367.796C71.2712 370.271 70.4505 372.85 69.3499 375.429L69.3154 375.412C50.8626 375.438 32.4352 375.745 20.5572 376.027C13.7263 376.19 9.0636 376.351 7.80844 376.438C6.85251 373.312 6.56201 370.015 7.39015 366.924H7.39838C18.8838 367.394 45.3628 367.112 71.7492 367.796Z" stroke="black"/>
<g style="mix-blend-mode:screen" opacity="0.85">
<path d="M38.8655 400.202H38.8671C40.9782 400.202 43.1533 399.966 45.3322 399.501C55.6904 397.286 65.6092 385.317 70.0543 374.641C73.4472 366.491 73.7213 359.215 70.8067 354.681C67.8811 350.13 59.2656 349.176 52.5531 349.176C42.7976 349.176 30.3869 351.206 20.1629 354.474C13.2245 356.692 8.86652 360.378 7.20943 365.426C4.53207 373.585 9.86602 381.866 11.5643 384.209C16.8511 391.505 25.8787 400.202 38.8655 400.202Z" fill="white"/>
</g>
<g style="mix-blend-mode:screen" opacity="0.85">
<path d="M114.091 399.501C116.269 399.966 118.445 400.202 120.557 400.202C133.544 400.202 142.571 391.505 147.857 384.209C149.557 381.865 154.89 373.583 152.213 365.426C150.557 360.377 146.198 356.692 139.26 354.474C129.036 351.206 116.625 349.176 106.87 349.176C100.157 349.176 91.5416 350.13 88.6165 354.681C85.7015 359.215 85.9755 366.491 89.3684 374.639C93.8122 385.317 103.732 397.286 114.091 399.501Z" fill="white"/>
</g>
<path d="M58.5938 346.457H100.377" stroke="black" stroke-linejoin="round"/>
</svg>
