<svg width="435" height="269" viewBox="0 0 435 269" fill="none" xmlns="http://www.w3.org/2000/svg">
<path d="M164.916 50.2124L137.125 52.7599V58.5496L164.916 55.2387V50.2124Z" fill="black"/>
<path fill-rule="evenodd" clip-rule="evenodd" d="M137.125 52.7599L164.916 50.2124V55.2387L137.125 58.5496V52.7599Z" fill="black"/>
<path d="M153.8 19.6423C153.8 21.1771 152.555 22.4214 151.021 22.4214C149.486 22.4214 148.241 21.1771 148.241 19.6423C148.241 18.1074 149.486 16.8632 151.021 16.8632C152.555 16.8632 153.8 18.1074 153.8 19.6423Z" fill="black"/>
<path d="M67.6552 184.304V196.115C69.7011 195.936 73.6566 195.689 75.2901 195.367V184.999L67.6552 184.304Z" fill="black"/>
<path fill-rule="evenodd" clip-rule="evenodd" d="M139.209 97.35L121.84 87.0354L162.48 81.059C162.735 81.5497 163.015 81.643 163.015 81.643L183.886 89.3424L164.33 86.4822C164.33 86.4822 162.791 86.7021 163.01 88.2418C163.229 89.7815 164.547 90.2215 164.547 90.2215L173.738 92.1935L139.209 97.35ZM183.786 77.9257L180.158 78.4593L187.188 81.6439L183.786 77.9257ZM173.14 79.4913L169.263 80.0615L183.889 84.9432L173.14 79.4913Z" fill="black"/>
<path d="M162.137 124.065C172.89 121.067 183.494 118.315 189.263 116.81C201.782 108.365 213.61 101.186 219.803 96.7622C231.475 88.4249 246.899 84.4879 253.152 83.5615L290.67 50.2124C289.424 44.8102 287.629 41.4098 284.417 38.1798C276.889 30.6088 267.743 22.4214 249.679 23.1161C231.614 23.8109 218.414 30.7587 209.382 41.8751C209.139 42.845 209.417 45.3127 211.093 49.5176C212.618 53.3449 215.301 58.6114 219.803 65.4974C216.7 77.3141 208.504 84.4534 198.962 90.2215C195.678 92.2064 192.235 94.0289 188.785 95.8237L188.317 96.0675L187.822 96.3259C185.549 97.5127 183.199 98.7565 180.986 99.9834C177.176 102.096 173.771 104.159 171.864 105.794C167.973 109.129 165.611 112.742 164.916 114.132C161.581 119.134 161.674 122.838 162.137 124.065Z" fill="black"/>
<path d="M151.715 116.216C146.713 118.995 144.536 127.352 144.073 130.489M151.715 116.216C157.334 113.094 161.442 114.132 164.916 114.132M151.715 116.216L117.671 92.1935M192.707 76.6138L187.924 77.3171M192.707 76.6138C193.106 73.4392 195.109 70.0159 197.4 66.8869M192.707 76.6138C192.472 78.4833 193.139 80.7226 194.163 82.8884M112.808 76.5469V6.44155H189.233V67.5817L118.423 77.2242M71.8162 172.493C75.707 172.493 78.0692 179.209 78.764 182.914M71.8162 172.493C69.0424 172.493 66.0426 175.205 63.0745 178.051M71.8162 172.493V136.154M78.764 182.914V193.336M78.764 182.914L75.2901 184.999M78.764 193.336C80.3851 196.578 82.6547 203.341 78.764 204.452C73.9006 205.842 50.2782 208.621 27.3507 202.368C9.00861 197.366 2.10718 194.262 0.949219 193.336V183.609M78.764 193.336C78.0692 194.725 76.6797 195.093 75.2901 195.367M0.949219 183.609C2.97394 184.568 6.48929 186.116 10.7237 187.778M0.949219 183.609C2.57036 180.598 8.17487 174.577 17.6238 174.577C18.0771 174.577 20.8377 174.133 24.5716 173.463M67.6552 196.115C55.2822 197.198 36.6559 195.785 27.3507 193.336C21.6494 191.836 15.6917 189.728 10.7237 187.778M67.6552 196.115V184.304M67.6552 196.115C69.7011 195.936 73.6566 195.689 75.2901 195.367M67.6552 184.304C66.258 183.609 63.3068 182.497 63.0745 178.051M67.6552 184.304L75.2901 184.999M63.0745 178.051C60.8386 180.195 58.6208 182.415 56.5312 183.609C52.6405 185.832 48.8887 180.83 47.4991 178.051C47.6029 177.039 47.7184 175.871 47.8416 174.577M75.2901 184.999V195.367M10.7237 187.778C13.9728 183.377 25.9451 174.577 47.8416 174.577M47.8416 174.577C48.0179 172.724 48.2101 170.612 48.4067 168.324M48.4067 168.324C49.2977 157.953 50.2782 143.984 50.2782 134.28C50.2782 117.605 43.3305 87.0354 44.0252 68.2765C44.72 49.5176 49.5834 32.1482 53.7521 24.5057C57.9207 16.8632 75.9849 14.0841 85.0169 17.5579C89.3464 19.2231 96.0537 31.1149 101.134 41.8751M48.4067 168.324C46.7283 168.877 43.8704 169.577 40.5514 170.307M37.0775 178.051L40.5514 170.307M40.5514 170.307C38.1542 170.834 35.5165 171.377 32.9089 171.891M32.9089 171.891L29.435 180.135M32.9089 171.891C29.961 172.473 27.0516 173.018 24.5716 173.463M22.4872 182.22L24.5716 173.463M78.0692 159.292L108.17 144.007M78.0692 159.292C77.3744 160.913 76.2628 164.989 77.3744 168.324C78.4861 171.659 80.6167 174.345 81.5431 175.272L82.9326 174.577M78.0692 159.292C78.0692 159.292 75.2381 149.944 71.8162 136.154M108.17 144.007C108.17 151.649 111.418 158.366 113.503 159.987M108.17 144.007C108.17 131.009 106.805 111.773 104.001 99.3785C102.872 94.3853 100.013 84.0096 101.282 80.5733C102.551 77.1369 104.537 66.2682 107.945 65.4974L101.134 41.8751M113.503 159.987L82.9326 174.577M113.503 159.987C114.781 161.01 119.051 160.601 124.619 159.546M82.9326 174.577C84.7854 183.841 90.1583 204.313 102.386 209.316C114.614 214.318 122.303 214.642 128.093 214.179M128.093 214.179C125.545 232.012 156.162 267.677 271.217 267.677C386.271 267.677 403.224 252.392 423.372 223.211C443.521 194.031 435.044 93.8442 390.023 65.4974C345.002 37.1506 323.325 26.0414 284.417 38.1798M128.093 214.179C125.778 206.772 127.159 197.34 130.177 187.952M146.852 154.429C154.049 142.034 172.291 128.258 189.263 116.81M146.852 154.429C142.817 155.386 138.499 156.457 134.346 157.433M146.852 154.429C143.487 159.34 139.015 166.865 135.16 175.272M144.073 130.489C149.758 128.905 156.032 125.767 162.137 124.065M144.073 130.489C137.707 132.262 136.087 133.081 130.177 135.67M164.916 114.132C161.581 119.134 161.674 122.838 162.137 124.065M164.916 114.132C165.611 112.742 167.973 109.129 171.864 105.794C173.771 104.159 177.176 102.096 180.986 99.9834M162.137 124.065C172.89 121.067 183.494 118.315 189.263 116.81M290.67 50.2124C300.397 41.8751 302.481 45.1173 308.04 44.6542M290.67 50.2124L253.152 83.5615C246.899 84.4879 231.475 88.4249 219.803 96.7622M290.67 50.2124C289.424 44.8102 287.629 41.4098 284.417 38.1798M219.803 96.7622C213.88 100.993 203.948 107.744 193.402 115.712C192.801 115.884 191.347 116.265 189.263 116.81M219.803 96.7622C213.61 101.186 201.782 108.365 189.263 116.81M101.134 41.8751C101.551 35.3905 103.498 21.4487 107.945 17.5579M107.945 17.5579V1.57812H192.707V72.2963L183.908 73.6099M107.945 17.5579V84.9511C109.179 83.6221 111.222 80.6341 111.729 79.2595C112.364 77.5413 115.537 68.9504 118.423 70.3971C119.947 71.1614 119.402 74.2858 118.423 77.2242M284.417 38.1798C276.889 30.6088 267.743 22.4214 249.679 23.1161C231.614 23.8109 218.414 30.7587 209.382 41.8751C209.139 42.845 209.417 45.3127 211.093 49.5176M144.073 218.348C146.852 224.369 155.467 237.524 167.695 241.97M384.465 72.2963C393.728 81.8612 412.534 106.613 413.645 129.099M140.599 27.2848H160.053M162.48 81.059L121.84 87.0354L139.209 97.35L173.738 92.1935M162.48 81.059C162.735 81.5497 163.015 81.643 163.015 81.643L183.886 89.3424L164.33 86.4822C164.33 86.4822 162.791 86.7021 163.01 88.2418C163.229 89.7815 164.547 90.2215 164.547 90.2215L173.738 92.1935M162.48 81.059C162.343 80.7964 162.213 80.42 162.137 79.8833C161.918 78.3436 164.116 78.3436 164.116 78.3436L169.263 80.0615M173.738 92.1935L173.775 92.2015L183.004 94.1815C184.484 94.6757 186.989 95.3218 188.785 95.8237M187.924 77.3171L190.706 79.8843L194.163 82.8884M187.924 77.3171L183.908 73.6099M183.786 77.9257L180.158 78.4593M183.786 77.9257L187.188 81.6439L180.158 78.4593M183.786 77.9257L180.326 74.1447M180.158 78.4593L173.036 75.2331M173.14 79.4913L169.263 80.0615M173.14 79.4913L183.889 84.9432L169.263 80.0615M173.14 79.4913L166.974 76.3641C166.974 76.3641 166.903 76.2924 166.803 76.1636M180.326 74.1447L177.526 71.0854C177.526 71.0854 177.088 70.2056 177.308 69.5457C177.528 68.8858 179.505 69.5458 179.505 69.5458L183.908 73.6099M180.326 74.1447L173.036 75.2331M173.036 75.2331L168.734 73.2847C168.734 73.2847 166.757 72.6247 166.317 73.9445C165.989 74.9273 166.514 75.7881 166.803 76.1636M166.803 76.1636L116.25 83.5615M188.317 96.0675C188.153 96.1533 187.987 96.2395 187.822 96.3259M188.317 96.0675L187.822 96.3259M188.317 96.0675C188.474 95.9859 188.63 95.9046 188.785 95.8237M188.317 96.0675L188.785 95.8237M187.822 96.3259C184.7 95.9159 181.487 96.0007 180.564 97.35C179.465 98.9552 179.966 99.6919 180.986 99.9834M187.822 96.3259C185.549 97.5127 183.199 98.7565 180.986 99.9834M188.785 95.8237C192.235 94.0289 195.678 92.2064 198.962 90.2215M114.145 94.4594C115.3 93.2157 115.897 91.9833 116.16 90.8192M114.145 94.4594C108.179 100.883 117.71 113.906 119.061 120.385C120.195 125.826 122.591 137.059 122.591 138.449C123.738 137.911 129.044 136.166 130.177 135.67M114.145 94.4594L110.029 97.35M116.16 90.8192C116.458 89.4955 116.324 88.2602 116.083 87.1974C115.872 86.2636 116.017 84.8429 116.25 83.5615M116.16 90.8192L117.671 92.1935M130.177 135.67L117.671 92.1935M116.25 83.5615C116.417 82.6504 116.628 81.8096 116.788 81.2644C117.3 80.1979 117.919 78.7356 118.423 77.2242M60.0051 57.1601C59.5802 81.7367 66.43 114.447 71.8162 136.154M198.962 90.2215C208.504 84.4534 216.7 77.3141 219.803 65.4974C215.301 58.6114 212.618 53.3449 211.093 49.5176M198.962 90.2215C197.624 88.6668 195.561 85.8461 194.163 82.8884M202.434 60.634C202.067 61.0747 201.676 61.539 201.271 62.0235M211.093 49.5176L198.962 55.0758C198.266 55.539 197.015 56.8822 197.57 58.5496C198.126 60.2171 200.269 61.5603 201.271 62.0235M201.271 62.0235C200.043 63.4905 198.677 65.143 197.4 66.8869M197.4 66.8869C198.152 68.5081 200.35 71.4725 203.129 70.3608M124.619 159.546C127.579 158.985 130.906 158.241 134.346 157.433M124.619 159.546C124.47 161.577 123.938 163.478 123.762 166.24M123.924 171.798C124.619 178.051 129.483 185.809 130.177 187.952M123.924 171.798C123.677 169.568 123.664 167.771 123.762 166.24M123.924 171.798L133.407 170.307M130.177 187.952C131.56 183.65 133.287 179.357 135.16 175.272M134.346 157.433C133.827 159.291 133.246 162.332 133.144 165.545M135.16 175.272C134.249 173.864 133.7 172.142 133.407 170.307M99.6072 172.493L112.808 166.24M100.997 178.051L109.334 173.882M90.5751 210.011C94.9482 213.716 106.172 221.057 116.083 220.78M123.762 166.24L133.144 165.545M133.144 165.545C133.093 167.131 133.159 168.759 133.407 170.307M137.125 32.1482H164.916V38.1798L137.125 39.096V32.1482ZM137.125 41.8751L164.916 40.4855V46.5171L137.125 48.8228V41.8751ZM137.125 52.7599L164.916 50.2124V55.2387L137.125 58.5496V52.7599ZM153.8 19.6423C153.8 21.1771 152.555 22.4214 151.021 22.4214C149.486 22.4214 148.241 21.1771 148.241 19.6423C148.241 18.1074 149.486 16.8632 151.021 16.8632C152.555 16.8632 153.8 18.1074 153.8 19.6423Z" stroke="black" stroke-width="1.4993" stroke-linecap="round"/>
</svg>
