<svg width="356" height="357" viewBox="0 0 356 357" fill="none" xmlns="http://www.w3.org/2000/svg">
<path d="M145.881 191.776L144.8 192.816L145.881 191.776ZM71.8266 212.364L70.4523 212.965L71.8266 212.364ZM129.895 199.865L128.457 199.438L129.895 199.865ZM111.014 84.4295L109.746 85.2318L111.014 84.4295ZM153.036 355.297C153.044 354.469 152.38 353.791 151.551 353.783C150.723 353.774 150.045 354.439 150.036 355.268L153.036 355.297ZM150.601 347.196C150.506 348.019 151.096 348.763 151.919 348.858C152.742 348.953 153.486 348.363 153.581 347.54L150.601 347.196ZM153.698 346.562C153.799 345.74 153.215 344.991 152.393 344.889C151.571 344.788 150.822 345.372 150.72 346.194L153.698 346.562ZM151.899 338.263C151.761 339.08 152.312 339.854 153.129 339.991C153.946 340.129 154.719 339.578 154.857 338.761L151.899 338.263ZM155.024 337.777C155.165 336.961 154.617 336.185 153.8 336.044C152.984 335.904 152.208 336.452 152.068 337.268L155.024 337.777ZM153.504 329.423C153.348 330.237 153.881 331.023 154.695 331.179C155.509 331.335 156.295 330.802 156.45 329.988L153.504 329.423ZM156.638 329.011C156.795 328.197 156.263 327.411 155.45 327.254C154.637 327.097 153.85 327.629 153.693 328.442L156.638 329.011ZM155.232 320.624C155.07 321.436 155.598 322.226 156.41 322.388C157.223 322.55 158.013 322.022 158.174 321.21L155.232 320.624ZM158.368 320.24C158.529 319.428 158.002 318.638 157.19 318.476C156.377 318.314 155.587 318.842 155.425 319.654L158.368 320.24ZM156.975 311.844C156.815 312.657 157.345 313.446 158.158 313.605C158.971 313.765 159.759 313.236 159.919 312.423L156.975 311.844ZM160.11 311.445C160.27 310.632 159.739 309.844 158.926 309.685C158.113 309.526 157.325 310.056 157.166 310.869L160.11 311.445ZM158.656 303.08C158.505 303.895 159.042 304.678 159.857 304.829C160.671 304.981 161.454 304.443 161.606 303.629L158.656 303.08ZM161.788 302.648C161.938 301.833 161.399 301.051 160.585 300.9C159.77 300.75 158.988 301.289 158.837 302.103L161.788 302.648ZM160.223 294.286C160.085 295.103 160.635 295.878 161.452 296.016C162.269 296.154 163.043 295.604 163.181 294.787L160.223 294.286ZM163.346 293.807C163.482 292.99 162.93 292.217 162.113 292.081C161.296 291.944 160.523 292.496 160.387 293.313L163.346 293.807ZM161.616 285.487C161.496 286.307 162.063 287.069 162.883 287.189C163.703 287.309 164.464 286.741 164.584 285.922L161.616 285.487ZM164.728 284.932C164.845 284.112 164.276 283.352 163.456 283.235C162.636 283.117 161.876 283.686 161.758 284.507L164.728 284.932ZM162.785 276.657C162.688 277.48 163.277 278.225 164.1 278.321C164.923 278.418 165.668 277.829 165.764 277.007L162.785 276.657ZM165.879 276.014C165.973 275.191 165.381 274.448 164.558 274.354C163.735 274.261 162.992 274.852 162.898 275.675L165.879 276.014ZM163.671 267.807C163.604 268.632 164.218 269.356 165.044 269.424C165.87 269.492 166.594 268.877 166.661 268.051L163.671 267.807ZM166.74 267.054C166.804 266.228 166.187 265.507 165.361 265.443C164.535 265.379 163.813 265.997 163.749 266.823L166.74 267.054ZM164.211 258.942C164.179 259.77 164.824 260.467 165.652 260.499C166.479 260.531 167.176 259.886 167.208 259.058L164.211 258.942ZM167.244 258.054C167.272 257.226 166.623 256.533 165.795 256.505C164.967 256.478 164.274 257.127 164.246 257.954L167.244 258.054ZM164.33 250.072C164.341 250.9 165.021 251.562 165.85 251.551C166.678 251.54 167.34 250.86 167.329 250.031L164.33 250.072ZM167.313 249.03C167.296 248.201 166.611 247.543 165.783 247.56C164.955 247.576 164.297 248.261 164.313 249.089L167.313 249.03ZM163.941 241.231C164.004 242.057 164.725 242.675 165.551 242.612C166.377 242.549 166.996 241.828 166.933 241.002L163.941 241.231ZM166.852 239.997C166.782 239.171 166.057 238.559 165.231 238.628C164.406 238.698 163.793 239.423 163.862 240.249L166.852 239.997ZM162.945 232.455C163.071 233.274 163.836 233.836 164.655 233.71C165.474 233.585 166.036 232.819 165.91 232L162.945 232.455ZM165.754 231.009C165.621 230.191 164.85 229.636 164.032 229.769C163.215 229.902 162.66 230.673 162.793 231.491L165.754 231.009ZM161.228 223.816C161.427 224.62 162.241 225.11 163.045 224.911C163.849 224.711 164.339 223.898 164.14 223.094L161.228 223.816ZM163.891 222.114C163.683 221.312 162.864 220.831 162.062 221.039C161.26 221.247 160.779 222.066 160.987 222.868L163.891 222.114ZM158.674 215.421C158.958 216.199 159.82 216.599 160.598 216.314C161.376 216.03 161.776 215.168 161.491 214.39L158.674 215.421ZM161.136 213.439C160.842 212.664 159.975 212.276 159.201 212.57C158.427 212.865 158.038 213.732 158.332 214.506L161.136 213.439ZM155.172 207.396C155.551 208.132 156.455 208.422 157.192 208.044C157.928 207.665 158.218 206.76 157.839 206.024L155.172 207.396ZM157.368 205.124C156.978 204.393 156.07 204.116 155.339 204.506C154.608 204.895 154.331 205.804 154.721 206.535L157.368 205.124ZM150.661 199.924C151.137 200.602 152.073 200.765 152.75 200.288C153.428 199.811 153.591 198.875 153.114 198.198L150.661 199.924ZM152.523 197.371C152.035 196.701 151.097 196.553 150.427 197.041C149.757 197.528 149.609 198.466 150.097 199.136L152.523 197.371ZM145.138 193.17C145.707 193.772 146.657 193.797 147.258 193.228C147.86 192.658 147.886 191.709 147.316 191.107L145.138 193.17ZM146.609 190.371C146.033 189.776 145.083 189.761 144.488 190.337C143.893 190.914 143.878 191.863 144.454 192.458L146.609 190.371ZM138.917 187.036C139.524 187.599 140.473 187.562 141.036 186.954C141.599 186.347 141.563 185.398 140.955 184.835L138.917 187.036ZM140.22 184.159C139.608 183.6 138.659 183.644 138.101 184.256C137.542 184.868 137.586 185.816 138.198 186.375L140.22 184.159ZM132.344 181.361C132.991 181.879 133.935 181.774 134.452 181.128C134.97 180.481 134.865 179.537 134.218 179.019L132.344 181.361ZM133.455 178.413C132.803 177.902 131.86 178.014 131.348 178.666C130.837 179.317 130.95 180.26 131.601 180.772L133.455 178.413ZM125.376 176.254C126.066 176.713 126.997 176.526 127.456 175.836C127.915 175.146 127.728 174.215 127.038 173.756L125.376 176.254ZM126.198 173.204C125.503 172.753 124.574 172.951 124.123 173.646C123.672 174.34 123.87 175.269 124.564 175.721L126.198 173.204ZM117.975 171.875C118.711 172.256 119.616 171.968 119.997 171.232C120.377 170.496 120.089 169.591 119.353 169.21L117.975 171.875ZM118.456 168.754C117.715 168.384 116.814 168.685 116.444 169.426C116.074 170.167 116.374 171.068 117.116 171.438L118.456 168.754ZM110.111 168.458C110.893 168.732 111.748 168.319 112.022 167.537C112.295 166.755 111.883 165.9 111.101 165.626L110.111 168.458ZM110.152 165.304C109.366 165.045 108.518 165.473 108.258 166.26C107.999 167.046 108.427 167.894 109.214 168.154L110.152 165.304ZM101.878 166.367C102.697 166.493 103.463 165.931 103.589 165.113C103.714 164.294 103.153 163.528 102.334 163.402L101.878 166.367ZM101.316 163.258C100.495 163.152 99.7424 163.732 99.6362 164.553C99.53 165.375 100.11 166.127 100.932 166.233L101.316 163.258ZM93.4643 166.049C94.2896 165.977 94.8996 165.249 94.8269 164.424C94.7542 163.598 94.0263 162.988 93.2011 163.061L93.4643 166.049ZM92.1941 163.165C91.3714 163.263 90.7836 164.009 90.8812 164.831C90.9788 165.654 91.7248 166.242 92.5475 166.144L92.1941 163.165ZM85.3883 167.966C86.1553 167.653 86.5232 166.777 86.21 166.01C85.8969 165.243 85.0213 164.875 84.2543 165.188L85.3883 167.966ZM83.3078 165.595C82.5527 165.936 82.2168 166.824 82.5576 167.579C82.8984 168.334 83.7868 168.67 84.5418 168.329L83.3078 165.595ZM78.3828 172.304C79.0035 171.755 79.0619 170.807 78.5132 170.186C77.9646 169.566 77.0166 169.507 76.3959 170.056L78.3828 172.304ZM75.6351 170.755C75.0355 171.326 75.0128 172.276 75.5845 172.875C76.1561 173.475 77.1056 173.498 77.7052 172.926L75.6351 170.755ZM73.1899 178.721C73.6007 178.002 73.3505 177.085 72.6311 176.675C71.9117 176.264 70.9955 176.514 70.5847 177.234L73.1899 178.721ZM70.09 178.136C69.7042 178.869 69.9858 179.776 70.7189 180.162C71.452 180.548 72.359 180.266 72.7448 179.533L70.09 178.136ZM70.1794 186.481C70.3676 185.674 69.8663 184.867 69.0595 184.679C68.2528 184.491 67.4461 184.992 67.2579 185.799L70.1794 186.481ZM67.0407 186.795C66.8762 187.607 67.4011 188.399 68.213 188.563C69.025 188.728 69.8165 188.203 69.981 187.391L67.0407 186.795ZM69.3181 194.841C69.3042 194.013 68.6215 193.353 67.7932 193.367C66.9648 193.381 66.3046 194.063 66.3185 194.892L69.3181 194.841ZM66.3478 195.895C66.382 196.723 67.0808 197.366 67.9085 197.332C68.7363 197.298 69.3795 196.599 69.3452 195.771L66.3478 195.895ZM70.3605 203.225C70.1758 202.417 69.3714 201.913 68.5639 202.097C67.7563 202.282 67.2513 203.086 67.436 203.894L70.3605 203.225ZM67.6728 204.881C67.8747 205.684 68.6896 206.172 69.4931 205.97C70.2966 205.768 70.7843 204.953 70.5824 204.15L67.6728 204.881ZM73.0096 211.32C72.6847 210.558 71.8036 210.204 71.0415 210.529C70.2795 210.853 69.9251 211.735 70.25 212.497L73.0096 211.32ZM70.674 213.465C71.014 214.22 71.902 214.557 72.6575 214.217C73.4129 213.877 73.7497 212.989 73.4096 212.233L70.674 213.465ZM77.3821 219.283C76.9076 218.604 75.9725 218.438 75.2934 218.913C74.6143 219.387 74.4484 220.322 74.9228 221.001L77.3821 219.283ZM75.5587 221.887C76.0509 222.553 76.99 222.694 77.6565 222.202C78.3229 221.71 78.4642 220.771 77.972 220.104L75.5587 221.887ZM83.4274 225.954C82.7917 225.423 81.8457 225.507 81.3146 226.143C80.7834 226.779 80.8682 227.725 81.504 228.256L83.4274 225.954ZM82.365 228.951C83.0186 229.46 83.9611 229.343 84.4701 228.689C84.9792 228.036 84.862 227.093 84.2084 226.584L82.365 228.951ZM91.0779 230.446C90.2997 230.162 89.4385 230.562 89.1544 231.34C88.8702 232.118 89.2707 232.98 90.0489 233.264L91.0779 230.446ZM91.1044 233.623C91.8943 233.873 92.737 233.435 92.9868 232.645C93.2365 231.855 92.7987 231.013 92.0088 230.763L91.1044 233.623ZM99.7224 231.702C98.896 231.76 98.2727 232.476 98.3303 233.303C98.3879 234.129 99.1045 234.752 99.931 234.695L99.7224 231.702ZM101.047 234.59C101.87 234.493 102.458 233.747 102.361 232.924C102.264 232.101 101.518 231.513 100.695 231.611L101.047 234.59ZM108.141 229.285C107.405 229.666 107.117 230.571 107.498 231.307C107.878 232.043 108.783 232.331 109.519 231.95L108.141 229.285ZM110.489 231.424C111.209 231.015 111.461 230.099 111.051 229.379C110.642 228.658 109.726 228.407 109.006 228.816L110.489 231.424ZM115.28 223.941C114.696 224.529 114.7 225.479 115.288 226.062C115.877 226.646 116.826 226.642 117.41 226.054L115.28 223.941ZM118.177 225.258C118.743 224.653 118.712 223.704 118.107 223.138C117.503 222.571 116.553 222.603 115.987 223.207L118.177 225.258ZM120.89 216.792C120.448 217.492 120.657 218.419 121.358 218.861C122.058 219.303 122.985 219.093 123.427 218.392L120.89 216.792ZM123.996 217.469C124.424 216.76 124.196 215.838 123.487 215.41C122.778 214.982 121.856 215.21 121.428 215.919L123.996 217.469ZM125.14 208.654C124.811 209.414 125.161 210.297 125.921 210.626C126.681 210.955 127.564 210.606 127.893 209.845L125.14 208.654ZM128.314 208.854C128.632 208.089 128.269 207.211 127.505 206.893C126.74 206.575 125.862 206.937 125.544 207.702L128.314 208.854ZM128.305 199.943C128.065 200.736 128.513 201.574 129.306 201.814C130.099 202.054 130.936 201.606 131.176 200.813L128.305 199.943ZM131.48 199.79C131.712 198.994 131.255 198.162 130.46 197.93C129.665 197.698 128.832 198.154 128.6 198.95L131.48 199.79ZM130.577 191.087C130.405 191.897 130.922 192.694 131.733 192.866C132.543 193.038 133.339 192.521 133.511 191.71L130.577 191.087ZM133.724 190.688C133.888 189.877 133.364 189.085 132.552 188.92C131.74 188.755 130.948 189.28 130.783 190.092L133.724 190.688ZM132.11 182.089C132.004 182.91 132.583 183.663 133.405 183.769C134.227 183.876 134.979 183.296 135.086 182.475L132.11 182.089ZM135.215 181.44C135.315 180.618 134.729 179.87 133.906 179.771C133.084 179.671 132.336 180.258 132.237 181.08L135.215 181.44ZM132.938 172.991C132.894 173.818 133.529 174.525 134.356 174.569C135.183 174.612 135.889 173.977 135.933 173.15L132.938 172.991ZM135.984 172.111C136.022 171.283 135.381 170.582 134.553 170.545C133.726 170.507 133.025 171.148 132.987 171.976L135.984 172.111ZM133.094 163.85C133.109 164.678 133.792 165.338 134.621 165.323C135.449 165.308 136.108 164.624 136.093 163.796L133.094 163.85ZM136.07 162.757C136.049 161.929 135.36 161.275 134.532 161.296C133.704 161.318 133.05 162.006 133.071 162.834L136.07 162.757ZM132.619 154.714C132.689 155.539 133.415 156.152 134.241 156.081C135.066 156.011 135.678 155.285 135.608 154.46L132.619 154.714ZM135.516 153.427C135.44 152.602 134.71 151.995 133.885 152.071C133.06 152.148 132.453 152.878 132.529 153.703L135.516 153.427ZM131.555 145.623C131.677 146.443 132.44 147.008 133.259 146.887C134.079 146.765 134.644 146.002 134.523 145.183L131.555 145.623ZM134.367 144.156C134.24 143.338 133.473 142.777 132.654 142.904C131.836 143.031 131.275 143.798 131.402 144.617L134.367 144.156ZM129.941 136.605C130.111 137.416 130.906 137.935 131.716 137.766C132.527 137.596 133.047 136.801 132.877 135.99L129.941 136.605ZM132.661 134.973C132.486 134.164 131.688 133.649 130.879 133.824C130.069 133.998 129.554 134.797 129.729 135.606L132.661 134.973ZM127.811 127.687C128.026 128.487 128.849 128.962 129.649 128.747C130.449 128.532 130.923 127.71 130.709 126.91L127.811 127.687ZM130.438 125.912C130.218 125.113 129.392 124.643 128.594 124.863C127.795 125.083 127.325 125.908 127.545 126.707L130.438 125.912ZM125.198 118.907C125.455 119.695 126.302 120.124 127.09 119.867C127.877 119.609 128.306 118.762 128.049 117.974L125.198 118.907ZM127.721 116.983C127.459 116.197 126.609 115.773 125.823 116.035C125.038 116.298 124.613 117.147 124.876 117.933L127.721 116.983ZM122.111 110.263C122.41 111.036 123.279 111.419 124.052 111.12C124.824 110.821 125.208 109.952 124.908 109.179L122.111 110.263ZM124.533 108.219C124.229 107.448 123.358 107.07 122.587 107.374C121.817 107.678 121.438 108.549 121.742 109.32L124.533 108.219ZM118.567 101.809C118.909 102.564 119.797 102.899 120.552 102.558C121.307 102.216 121.642 101.328 121.301 100.573L118.567 101.809ZM120.87 99.6286C120.524 98.8759 119.634 98.5463 118.881 98.8923C118.128 99.2384 117.799 100.129 118.145 100.882L120.87 99.6286ZM114.55 93.5761C114.936 94.3091 115.843 94.5903 116.576 94.2043C117.309 93.8182 117.59 92.9111 117.204 92.1781L114.55 93.5761ZM116.717 91.2615C116.326 90.5314 115.417 90.2568 114.686 90.6482C113.956 91.0396 113.682 91.9488 114.073 92.6789L116.717 91.2615ZM110.01 85.6506C110.45 86.3527 111.375 86.5655 112.078 86.1257C112.78 85.686 112.992 84.7604 112.553 84.0583L110.01 85.6506ZM111.995 83.1773C111.549 82.4792 110.621 82.275 109.923 82.7211C109.225 83.1672 109.021 84.0947 109.467 84.7928L111.995 83.1773ZM104.761 77.9587C105.255 78.6242 106.194 78.7637 106.86 78.2703C107.525 77.7769 107.665 76.8375 107.171 76.172L104.761 77.9587ZM106.534 75.3204C106.035 74.6593 105.094 74.5281 104.433 75.0274C103.772 75.5267 103.641 76.4674 104.14 77.1284L106.534 75.3204ZM98.907 70.6959C99.4529 71.3191 100.401 71.3818 101.024 70.8359C101.647 70.29 101.71 69.3424 101.164 68.7192L98.907 70.6959ZM100.458 67.9215C99.9068 67.3034 98.9586 67.2494 98.3405 67.801C97.7224 68.3526 97.6685 69.3008 98.22 69.9189L100.458 67.9215ZM92.4756 63.9425C93.0715 64.518 94.0211 64.5015 94.5966 63.9056C95.1721 63.3098 95.1556 62.3602 94.5598 61.7846L92.4756 63.9425ZM93.7907 61.0487C93.1895 60.4787 92.2401 60.504 91.6701 61.1052C91.1001 61.7064 91.1254 62.6558 91.7266 63.2258L93.7907 61.0487ZM85.5028 57.7491C86.1445 58.273 87.0895 58.1775 87.6134 57.5358C88.1373 56.8941 88.0418 55.9492 87.4001 55.4252L85.5028 57.7491ZM86.5728 54.7562C85.9263 54.2382 84.9823 54.3423 84.4643 54.9888C83.9463 55.6353 84.0504 56.5793 84.6969 57.0973L86.5728 54.7562ZM78.0412 52.1499C78.7234 52.6199 79.6574 52.448 80.1275 51.7659C80.5975 51.0837 80.4256 50.1497 79.7435 49.6796L78.0412 52.1499ZM78.8648 49.0799C78.1786 48.6158 77.2461 48.796 76.782 49.4822C76.318 50.1685 76.4982 51.101 77.1845 51.5651L78.8648 49.0799ZM70.153 47.1573C70.8695 47.5732 71.7874 47.3296 72.2034 46.6131C72.6193 45.8967 72.3756 44.9787 71.6592 44.5628L70.153 47.1573ZM153.034 355.759C153.034 355.607 153.035 355.453 153.036 355.297L150.036 355.268C150.035 355.433 150.034 355.596 150.034 355.759L153.034 355.759ZM153.581 347.54C153.618 347.217 153.657 346.891 153.698 346.562L150.72 346.194C150.679 346.531 150.639 346.865 150.601 347.196L153.581 347.54ZM154.857 338.761C154.912 338.435 154.968 338.107 155.024 337.777L152.068 337.268C152.01 337.602 151.954 337.933 151.899 338.263L154.857 338.761ZM156.45 329.988C156.513 329.664 156.575 329.338 156.638 329.011L153.693 328.442C153.629 328.771 153.566 329.098 153.504 329.423L156.45 329.988ZM158.174 321.21C158.239 320.888 158.303 320.565 158.368 320.24L155.425 319.654C155.361 319.978 155.296 320.302 155.232 320.624L158.174 321.21ZM159.919 312.423C159.983 312.098 160.047 311.772 160.11 311.445L157.166 310.869C157.103 311.195 157.039 311.52 156.975 311.844L159.919 312.423ZM161.606 303.629C161.666 303.303 161.727 302.975 161.788 302.648L158.837 302.103C158.777 302.43 158.717 302.755 158.656 303.08L161.606 303.629ZM163.181 294.787C163.236 294.461 163.291 294.134 163.346 293.807L160.387 293.313C160.332 293.638 160.278 293.962 160.223 294.286L163.181 294.787ZM164.584 285.922C164.632 285.592 164.68 285.262 164.728 284.932L161.758 284.507C161.711 284.834 161.664 285.161 161.616 285.487L164.584 285.922ZM165.764 277.007C165.803 276.676 165.841 276.345 165.879 276.014L162.898 275.675C162.861 276.002 162.823 276.33 162.785 276.657L165.764 277.007ZM166.661 268.051C166.688 267.719 166.715 267.386 166.74 267.054L163.749 266.823C163.724 267.151 163.698 267.479 163.671 267.807L166.661 268.051ZM167.208 259.058C167.221 258.723 167.233 258.389 167.244 258.054L164.246 257.954C164.235 258.283 164.223 258.613 164.211 258.942L167.208 259.058ZM167.329 250.031C167.325 249.697 167.319 249.363 167.313 249.03L164.313 249.089C164.32 249.416 164.325 249.744 164.33 250.072L167.329 250.031ZM166.933 241.002C166.907 240.667 166.88 240.332 166.852 239.997L163.862 240.249C163.89 240.576 163.916 240.903 163.941 241.231L166.933 241.002ZM165.91 232C165.86 231.669 165.808 231.339 165.754 231.009L162.793 231.491C162.845 231.811 162.896 232.133 162.945 232.455L165.91 232ZM164.14 223.094C164.059 222.766 163.976 222.44 163.891 222.114L160.987 222.868C161.069 223.183 161.15 223.499 161.228 223.816L164.14 223.094ZM161.491 214.39C161.375 214.072 161.257 213.755 161.136 213.439L158.332 214.506C158.448 214.81 158.562 215.115 158.674 215.421L161.491 214.39ZM157.839 206.024C157.685 205.722 157.527 205.422 157.368 205.124L154.721 206.535C154.873 206.821 155.023 207.108 155.172 207.396L157.839 206.024ZM153.114 198.198C152.919 197.921 152.722 197.645 152.523 197.371L150.097 199.136C150.287 199.398 150.475 199.66 150.661 199.924L153.114 198.198ZM147.316 191.107C147.198 190.983 147.08 190.859 146.961 190.736L144.8 192.816C144.913 192.934 145.026 193.052 145.138 193.17L147.316 191.107ZM146.961 190.736C146.844 190.614 146.726 190.492 146.609 190.371L144.454 192.458C144.569 192.577 144.685 192.696 144.8 192.816L146.961 190.736ZM140.955 184.835C140.71 184.607 140.465 184.382 140.22 184.159L138.198 186.375C138.437 186.593 138.677 186.813 138.917 187.036L140.955 184.835ZM134.218 179.019C133.963 178.815 133.709 178.613 133.455 178.413L131.601 180.772C131.848 180.966 132.096 181.163 132.344 181.361L134.218 179.019ZM127.038 173.756C126.757 173.57 126.477 173.386 126.198 173.204L124.564 175.721C124.834 175.896 125.105 176.074 125.376 176.254L127.038 173.756ZM119.353 169.21C119.053 169.055 118.754 168.903 118.456 168.754L117.116 171.438C117.401 171.581 117.688 171.726 117.975 171.875L119.353 169.21ZM111.101 165.626C110.783 165.515 110.467 165.408 110.152 165.304L109.214 168.154C109.511 168.252 109.81 168.353 110.111 168.458L111.101 165.626ZM102.334 163.402C101.993 163.35 101.654 163.301 101.316 163.258L100.932 166.233C101.245 166.274 101.561 166.318 101.878 166.367L102.334 163.402ZM93.2011 163.061C92.863 163.091 92.5273 163.125 92.1941 163.165L92.5475 166.144C92.8505 166.108 93.1561 166.077 93.4643 166.049L93.2011 163.061ZM84.2543 165.188C83.9352 165.319 83.6197 165.454 83.3078 165.595L84.5418 168.329C84.8206 168.204 85.1028 168.082 85.3883 167.966L84.2543 165.188ZM76.3959 170.056C76.1378 170.284 75.8842 170.517 75.6351 170.755L77.7052 172.926C77.9271 172.714 78.153 172.507 78.3828 172.304L76.3959 170.056ZM70.5847 177.234C70.415 177.531 70.25 177.832 70.09 178.136L72.7448 179.533C72.889 179.259 73.0374 178.988 73.1899 178.721L70.5847 177.234ZM67.2579 185.799C67.1809 186.129 67.1085 186.461 67.0407 186.795L69.981 187.391C70.0429 187.085 70.1091 186.782 70.1794 186.481L67.2579 185.799ZM66.3185 194.892C66.3241 195.225 66.3338 195.56 66.3478 195.895L69.3452 195.771C69.3323 195.46 69.3233 195.15 69.3181 194.841L66.3185 194.892ZM67.436 203.894C67.5111 204.222 67.59 204.551 67.6728 204.881L70.5824 204.15C70.5048 203.841 70.4308 203.533 70.3605 203.225L67.436 203.894ZM70.25 212.497C70.3165 212.653 70.384 212.809 70.4523 212.965L73.2009 211.763C73.1363 211.615 73.0725 211.468 73.0096 211.32L70.25 212.497ZM70.4523 212.965C70.5255 213.132 70.5994 213.299 70.674 213.465L73.4096 212.233C73.3394 212.077 73.2698 211.921 73.2009 211.763L70.4523 212.965ZM74.9228 221.001C75.1321 221.301 75.3441 221.596 75.5587 221.887L77.972 220.104C77.7731 219.835 77.5764 219.561 77.3821 219.283L74.9228 221.001ZM81.504 228.256C81.7885 228.494 82.0755 228.725 82.365 228.951L84.2084 226.584C83.9462 226.38 83.6859 226.17 83.4274 225.954L81.504 228.256ZM90.0489 233.264C90.399 233.392 90.7509 233.512 91.1044 233.623L92.0088 230.763C91.6974 230.664 91.3871 230.559 91.0779 230.446L90.0489 233.264ZM99.931 234.695C100.303 234.669 100.675 234.634 101.047 234.59L100.695 231.611C100.371 231.649 100.046 231.679 99.7224 231.702L99.931 234.695ZM109.519 231.95C109.844 231.783 110.167 231.607 110.489 231.424L109.006 228.816C108.718 228.98 108.43 229.136 108.141 229.285L109.519 231.95ZM117.41 226.054C117.667 225.795 117.923 225.529 118.177 225.258L115.987 223.207C115.753 223.458 115.517 223.702 115.28 223.941L117.41 226.054ZM123.427 218.392C123.618 218.089 123.808 217.781 123.996 217.469L121.428 215.919C121.25 216.215 121.07 216.505 120.89 216.792L123.427 218.392ZM127.893 209.845C128.035 209.518 128.175 209.188 128.314 208.854L125.544 207.702C125.41 208.023 125.276 208.34 125.14 208.654L127.893 209.845ZM131.176 200.813C131.229 200.64 131.281 200.466 131.333 200.291L128.457 199.438C128.406 199.607 128.356 199.776 128.305 199.943L131.176 200.813ZM131.333 200.291C131.382 200.124 131.431 199.957 131.48 199.79L128.6 198.95C128.553 199.112 128.505 199.275 128.457 199.438L131.333 200.291ZM133.511 191.71C133.584 191.37 133.654 191.029 133.724 190.688L130.783 190.092C130.716 190.424 130.647 190.755 130.577 191.087L133.511 191.71ZM135.086 182.475C135.13 182.13 135.173 181.785 135.215 181.44L132.237 181.08C132.196 181.416 132.154 181.752 132.11 182.089L135.086 182.475ZM135.933 173.15C135.952 172.803 135.969 172.457 135.984 172.111L132.987 171.976C132.972 172.314 132.956 172.652 132.938 172.991L135.933 173.15ZM136.093 163.796C136.087 163.449 136.079 163.103 136.07 162.757L133.071 162.834C133.08 163.173 133.087 163.511 133.094 163.85L136.093 163.796ZM135.608 154.46C135.579 154.115 135.548 153.771 135.516 153.427L132.529 153.703C132.56 154.04 132.59 154.377 132.619 154.714L135.608 154.46ZM134.523 145.183C134.472 144.84 134.42 144.498 134.367 144.156L131.402 144.617C131.454 144.952 131.505 145.287 131.555 145.623L134.523 145.183ZM132.877 135.99C132.806 135.651 132.734 135.312 132.661 134.973L129.729 135.606C129.801 135.938 129.871 136.271 129.941 136.605L132.877 135.99ZM130.709 126.91C130.619 126.576 130.529 126.243 130.438 125.912L127.545 126.707C127.634 127.033 127.723 127.36 127.811 127.687L130.709 126.91ZM128.049 117.974C127.94 117.643 127.831 117.312 127.721 116.983L124.876 117.933C124.984 118.257 125.091 118.581 125.198 118.907L128.049 117.974ZM124.908 109.179C124.784 108.858 124.659 108.538 124.533 108.219L121.742 109.32C121.866 109.633 121.989 109.947 122.111 110.263L124.908 109.179ZM121.301 100.573C121.158 100.256 121.014 99.9413 120.87 99.6286L118.145 100.882C118.286 101.189 118.427 101.498 118.567 101.809L121.301 100.573ZM117.204 92.1781C117.042 91.8697 116.879 91.5642 116.717 91.2615L114.073 92.6789C114.232 92.9751 114.391 93.2742 114.55 93.5761L117.204 92.1781ZM112.553 84.0583C112.462 83.9135 112.371 83.7697 112.281 83.6271L109.746 85.2318C109.834 85.3704 109.922 85.5099 110.01 85.6506L112.553 84.0583ZM112.281 83.6271C112.186 83.4768 112.091 83.3268 111.995 83.1773L109.467 84.7928C109.56 84.9387 109.654 85.0851 109.746 85.2318L112.281 83.6271ZM107.171 76.172C106.96 75.8866 106.747 75.6027 106.534 75.3204L104.14 77.1284C104.348 77.4037 104.555 77.6805 104.761 77.9587L107.171 76.172ZM101.164 68.7192C100.929 68.4518 100.694 68.1859 100.458 67.9215L98.22 69.9189C98.4499 70.1764 98.6789 70.4354 98.907 70.6959L101.164 68.7192ZM94.5598 61.7846C94.3042 61.5378 94.0478 61.2925 93.7907 61.0487L91.7266 63.2258C91.9771 63.4632 92.2267 63.7021 92.4756 63.9425L94.5598 61.7846ZM87.4001 55.4252C87.1251 55.2007 86.8493 54.9777 86.5728 54.7562L84.6969 57.0973C84.9663 57.3132 85.2349 57.5304 85.5028 57.7491L87.4001 55.4252ZM79.7435 49.6796C79.4513 49.4783 79.1584 49.2783 78.8648 49.0799L77.1845 51.5651C77.4707 51.7586 77.7563 51.9536 78.0412 52.1499L79.7435 49.6796ZM71.6592 44.5628C71.506 44.4738 71.3527 44.3852 71.1991 44.297L69.7038 46.8978C69.8537 46.9839 70.0034 47.0705 70.153 47.1573L71.6592 44.5628Z" fill="black"/>
<path d="M271.602 217.278C272.416 217.127 273.199 217.665 273.35 218.48C273.501 219.294 272.963 220.077 272.148 220.228L271.602 217.278ZM188.403 356.33C188.399 355.502 189.068 354.827 189.897 354.824C190.725 354.82 191.399 355.489 191.403 356.317L188.403 356.33ZM191.373 348.505C191.368 349.333 190.692 350 189.864 349.995C189.035 349.99 188.368 349.314 188.373 348.486L191.373 348.505ZM188.381 347.471C188.39 346.643 189.068 345.978 189.896 345.986C190.725 345.994 191.389 346.673 191.381 347.501L188.381 347.471ZM191.574 339.706C191.54 340.533 190.843 341.178 190.015 341.145C189.187 341.112 188.543 340.414 188.576 339.586L191.574 339.706ZM188.616 338.63C188.652 337.802 189.353 337.161 190.18 337.197C191.008 337.233 191.649 337.934 191.613 338.761L188.616 338.63ZM192.081 330.972C192.017 331.798 191.296 332.416 190.47 332.353C189.644 332.289 189.026 331.569 189.089 330.743L192.081 330.972ZM189.165 329.781C189.232 328.955 189.955 328.339 190.781 328.406C191.607 328.473 192.222 329.196 192.155 330.022L189.165 329.781ZM192.915 322.277C192.82 323.1 192.075 323.69 191.252 323.595C190.429 323.499 189.84 322.755 189.935 321.932L192.915 322.277ZM190.052 320.94C190.151 320.117 190.899 319.531 191.721 319.63C192.543 319.729 193.13 320.476 193.031 321.299L190.052 320.94ZM194.101 313.623C193.971 314.441 193.202 314.999 192.384 314.869C191.566 314.739 191.008 313.971 191.138 313.153L194.101 313.623ZM191.295 312.177C191.429 311.359 192.2 310.805 193.018 310.939C193.836 311.073 194.39 311.844 194.256 312.662L191.295 312.177ZM195.669 305.012C195.501 305.823 194.708 306.345 193.897 306.178C193.085 306.01 192.563 305.217 192.731 304.405L195.669 305.012ZM192.931 303.447C193.103 302.637 193.899 302.119 194.709 302.291C195.52 302.463 196.038 303.259 195.866 304.069L192.931 303.447ZM197.642 296.518C197.434 297.32 196.615 297.801 195.813 297.593C195.011 297.385 194.53 296.566 194.738 295.764L197.642 296.518ZM194.989 294.807C195.202 294.006 196.024 293.529 196.824 293.742C197.625 293.955 198.102 294.776 197.889 295.577L194.989 294.807ZM200.065 288.13C199.813 288.919 198.969 289.354 198.179 289.101C197.39 288.849 196.955 288.005 197.208 287.216L200.065 288.13ZM197.511 286.279C197.768 285.492 198.616 285.063 199.403 285.32C200.19 285.578 200.62 286.425 200.362 287.212L197.511 286.279ZM202.969 279.922C202.668 280.694 201.799 281.076 201.027 280.775C200.255 280.474 199.873 279.605 200.174 278.833L202.969 279.922ZM200.537 277.912C200.843 277.142 201.715 276.766 202.485 277.073C203.255 277.379 203.63 278.251 203.324 279.021L200.537 277.912ZM206.403 271.922C206.049 272.671 205.155 272.992 204.406 272.639C203.657 272.286 203.336 271.392 203.689 270.642L206.403 271.922ZM204.115 269.749C204.474 269.002 205.37 268.688 206.117 269.048C206.863 269.407 207.177 270.303 206.818 271.05L204.115 269.749ZM210.399 264.21C209.989 264.93 209.073 265.182 208.353 264.772C207.633 264.363 207.381 263.447 207.791 262.727L210.399 264.21ZM208.285 261.867C208.7 261.151 209.618 260.907 210.335 261.323C211.051 261.739 211.295 262.657 210.879 263.373L208.285 261.867ZM214.997 256.851C214.528 257.534 213.595 257.708 212.912 257.239C212.229 256.771 212.055 255.837 212.524 255.154L214.997 256.851ZM213.091 254.336C213.567 253.657 214.502 253.493 215.18 253.968C215.859 254.444 216.023 255.379 215.548 256.058L213.091 254.336ZM220.22 249.938C219.69 250.575 218.744 250.662 218.107 250.132C217.47 249.602 217.383 248.657 217.913 248.02L220.22 249.938ZM218.551 247.26C219.088 246.629 220.034 246.552 220.666 247.089C221.297 247.625 221.374 248.572 220.837 249.203L218.551 247.26ZM226.068 243.566C225.478 244.148 224.528 244.141 223.946 243.551C223.365 242.962 223.371 242.012 223.961 241.43L226.068 243.566ZM224.675 240.734C225.271 240.159 226.221 240.177 226.796 240.773C227.371 241.37 227.353 242.319 226.757 242.894L224.675 240.734ZM232.533 237.817C231.886 238.334 230.942 238.229 230.424 237.583C229.907 236.936 230.011 235.992 230.658 235.474L232.533 237.817ZM231.444 234.853C232.096 234.343 233.039 234.459 233.549 235.112C234.059 235.765 233.943 236.708 233.29 237.218L231.444 234.853ZM239.551 232.782C238.854 233.229 237.926 233.025 237.479 232.328C237.032 231.63 237.236 230.702 237.933 230.256L239.551 232.782ZM238.769 229.727C239.472 229.288 240.397 229.502 240.836 230.205C241.275 230.908 241.061 231.833 240.358 232.272L238.769 229.727ZM247.053 228.511C246.313 228.883 245.411 228.585 245.039 227.845C244.667 227.105 244.965 226.203 245.705 225.831L247.053 228.511ZM246.598 225.388C247.342 225.025 248.24 225.333 248.604 226.077C248.968 226.822 248.659 227.72 247.915 228.084L246.598 225.388ZM254.968 225.018C254.194 225.315 253.327 224.928 253.03 224.155C252.733 223.381 253.12 222.514 253.893 222.217L254.968 225.018ZM254.833 221.863C255.609 221.574 256.472 221.97 256.761 222.747C257.049 223.523 256.653 224.387 255.877 224.675L254.833 221.863ZM263.202 222.298C262.405 222.521 261.577 222.056 261.353 221.258C261.13 220.46 261.595 219.632 262.393 219.409L263.202 222.298ZM263.368 219.141C264.168 218.926 264.991 219.399 265.207 220.199C265.422 220.999 264.948 221.822 264.148 222.038L263.368 219.141ZM271.662 220.319C270.849 220.474 270.063 219.939 269.909 219.125C269.754 218.312 270.289 217.526 271.102 217.372L271.662 220.319ZM188.404 356.759C188.404 356.624 188.404 356.481 188.403 356.33L191.403 356.317C191.404 356.472 191.404 356.619 191.404 356.759L188.404 356.759ZM188.373 348.486C188.375 348.154 188.378 347.816 188.381 347.471L191.381 347.501C191.378 347.842 191.375 348.177 191.373 348.505L188.373 348.486ZM188.576 339.586C188.589 339.27 188.602 338.952 188.616 338.63L191.613 338.761C191.599 339.079 191.586 339.394 191.574 339.706L188.576 339.586ZM189.089 330.743C189.114 330.424 189.139 330.103 189.165 329.781L192.155 330.022C192.13 330.34 192.105 330.657 192.081 330.972L189.089 330.743ZM189.935 321.932C189.973 321.602 190.012 321.272 190.052 320.94L193.031 321.299C192.991 321.626 192.953 321.952 192.915 322.277L189.935 321.932ZM191.138 313.153C191.189 312.828 191.242 312.503 191.295 312.177L194.256 312.662C194.203 312.983 194.151 313.303 194.101 313.623L191.138 313.153ZM192.731 304.405C192.797 304.087 192.863 303.767 192.931 303.447L195.866 304.069C195.799 304.384 195.734 304.698 195.669 305.012L192.731 304.405ZM194.738 295.764C194.821 295.445 194.905 295.126 194.989 294.807L197.889 295.577C197.805 295.891 197.723 296.204 197.642 296.518L194.738 295.764ZM197.208 287.216C197.308 286.904 197.409 286.592 197.511 286.279L200.362 287.212C200.262 287.518 200.163 287.824 200.065 288.13L197.208 287.216ZM200.174 278.833C200.293 278.526 200.414 278.219 200.537 277.912L203.324 279.021C203.204 279.321 203.086 279.622 202.969 279.922L200.174 278.833ZM203.689 270.642C203.829 270.344 203.971 270.046 204.115 269.749L206.818 271.05C206.678 271.34 206.54 271.631 206.403 271.922L203.689 270.642ZM207.791 262.727C207.954 262.44 208.119 262.153 208.285 261.867L210.879 263.373C210.718 263.652 210.557 263.93 210.399 264.21L207.791 262.727ZM212.524 255.154C212.711 254.88 212.901 254.608 213.091 254.336L215.548 256.058C215.363 256.321 215.179 256.586 214.997 256.851L212.524 255.154ZM217.913 248.02C218.124 247.766 218.337 247.513 218.551 247.26L220.837 249.203C220.63 249.447 220.424 249.692 220.22 249.938L217.913 248.02ZM223.961 241.43C224.197 241.197 224.435 240.965 224.675 240.734L226.757 242.894C226.526 243.117 226.296 243.341 226.068 243.566L223.961 241.43ZM230.658 235.474C230.918 235.266 231.18 235.059 231.444 234.853L233.29 237.218C233.036 237.416 232.784 237.616 232.533 237.817L230.658 235.474ZM237.933 230.256C238.21 230.078 238.489 229.902 238.769 229.727L240.358 232.272C240.088 232.44 239.819 232.61 239.551 232.782L237.933 230.256ZM245.705 225.831C246.001 225.682 246.299 225.534 246.598 225.388L247.915 228.084C247.626 228.225 247.339 228.367 247.053 228.511L245.705 225.831ZM253.893 222.217C254.205 222.098 254.518 221.979 254.833 221.863L255.877 224.675C255.572 224.788 255.269 224.902 254.968 225.018L253.893 222.217ZM262.393 219.409C262.717 219.318 263.042 219.229 263.368 219.141L264.148 222.038C263.832 222.123 263.516 222.21 263.202 222.298L262.393 219.409ZM271.102 217.372C271.268 217.34 271.435 217.309 271.602 217.278L272.148 220.228C271.986 220.258 271.824 220.288 271.662 220.319L271.102 217.372Z" fill="black"/>
<g style="mix-blend-mode:multiply">
<circle cx="65.3606" cy="111.481" r="20.6136" transform="rotate(16.072 65.3606 111.481)" stroke="black" stroke-width="1.7178"/>
<path d="M84.3388 116.224C81.3229 126.692 70.2023 132.71 59.4745 129.619C48.7467 126.528 42.5324 115.516 45.5482 105.048C48.5641 94.5804 59.6847 88.5628 70.4125 91.6536C81.1403 94.7443 87.3546 105.756 84.3388 116.224Z" stroke="black" stroke-width="1.7178"/>
<path d="M67.8365 115.486L71.4199 116.518L70.8724 118.419C70.5544 119.523 70.0107 120.287 69.2414 120.712C68.4954 121.125 67.5614 121.169 66.4393 120.846L55.7434 117.764L56.5881 114.832C58.6021 114.237 59.8959 112.943 60.4695 110.953C60.506 110.826 60.5478 110.613 60.5951 110.313L57.4732 109.413L58.2709 106.644L60.307 107.231C60.1566 106.188 60.1962 105.268 60.4256 104.472C60.9261 102.734 61.8951 101.514 63.3325 100.811C64.788 100.113 66.4568 100.035 68.339 100.578C70.185 101.11 71.5269 102.065 72.3646 103.443C73.2257 104.808 73.4693 106.378 73.0954 108.152L69.5392 107.127C69.7171 106.237 69.6061 105.5 69.2064 104.914C68.8301 104.316 68.2437 103.902 67.4474 103.672C66.6511 103.443 65.9265 103.509 65.2738 103.869C64.6263 104.212 64.1774 104.818 63.9271 105.686C63.729 106.374 63.7167 107.233 63.8904 108.263L69.7541 109.953L68.9564 112.721L64.1785 111.345C64.1417 111.609 64.0998 111.822 64.0529 111.985C63.6045 113.541 62.528 114.829 60.8234 115.847L66.2528 117.411C66.8863 117.594 67.2942 117.368 67.4767 116.735L67.8365 115.486Z" fill="black"/>
</g>
<g style="mix-blend-mode:multiply">
<circle cx="30.773" cy="30.375" r="24.7825" transform="rotate(-11.1169 30.773 30.375)" stroke="black" stroke-width="2.06521"/>
<path d="M53.7478 25.3342C56.3069 38.358 47.8237 50.9904 34.7999 53.5495C21.7762 56.1087 9.14374 47.6254 6.58459 34.6017C4.02545 21.578 12.5087 8.94552 25.5324 6.38638C38.5562 3.82723 51.1886 12.3105 53.7478 25.3342Z" stroke="black" stroke-width="1.5"/>
<path d="M39.2812 33.1093C39.6479 34.9756 39.3292 36.642 38.3251 38.1085C37.3166 39.5528 35.7943 40.6135 33.7582 41.2905L34.3411 44.2566L30.7685 44.924L30.1922 41.9912C27.9802 42.1258 26.0902 41.6088 24.5222 40.44C22.9541 39.2713 21.9006 37.6091 21.3616 35.4536L25.5942 34.6219C25.9629 35.9109 26.6458 36.8613 27.6429 37.4731C28.6356 38.0626 29.8208 38.222 31.1983 37.9513C32.4869 37.6981 33.4588 37.2417 34.1138 36.5823C34.7867 35.8962 35.0248 35.0533 34.8284 34.0535C34.6974 33.3869 34.355 32.8773 33.8011 32.5246C33.2694 32.1676 32.6018 31.9411 31.7984 31.8451C31.0171 31.7448 30.1625 31.682 29.2345 31.6566C28.3021 31.6091 27.361 31.5171 26.4111 31.3807C25.4569 31.222 24.5584 30.9948 23.7157 30.6988C22.8908 30.3763 22.1599 29.8276 21.5231 29.0528C20.9041 28.2514 20.4767 27.2508 20.2409 26.051C19.9048 24.3402 20.2231 22.7892 21.1958 21.3981C22.1686 20.007 23.6197 18.995 25.5491 18.362L24.9924 15.5292L28.5585 14.8285L29.1348 17.7613C31.0888 17.7235 32.7546 18.2153 34.1323 19.2369C35.5099 20.2585 36.4243 21.6826 36.8756 23.5092L32.6763 24.3344C32.3644 23.3342 31.7696 22.5972 30.8919 22.1236C30.0143 21.6499 28.9644 21.5331 27.7424 21.7732C26.5871 22.0003 25.7241 22.4237 25.1536 23.0434C24.5831 23.6632 24.3786 24.3841 24.5402 25.2062C24.6755 25.895 25.0223 26.4268 25.5806 26.8017C26.1345 27.1544 26.8021 27.3809 27.5833 27.4812C28.3824 27.555 29.257 27.6023 30.2073 27.6233C31.1532 27.622 32.101 27.6896 33.0509 27.826C34.0186 27.9359 34.9149 28.1521 35.7398 28.4746C36.5825 28.7705 37.3245 29.317 37.9657 30.114C38.6026 30.8889 39.041 31.8873 39.2812 33.1093Z" fill="black"/>
</g>
<circle cx="136.065" cy="32.7661" r="14.3745" transform="rotate(7.06476 136.065 32.7661)" stroke="black" stroke-width="1.19787"/>
<path d="M149.477 34.1263C148.541 41.6766 141.662 47.0387 134.112 46.103C126.561 45.1673 121.199 38.288 122.135 30.7378C123.071 23.1875 129.95 17.8254 137.5 18.7611C145.051 19.6968 150.413 26.5761 149.477 34.1263Z" stroke="black" stroke-width="1.19787"/>
<path d="M139.988 33.4643L141.819 31.9232C142.428 32.9277 142.669 33.9093 142.544 34.8679C142.419 35.8264 141.903 36.6871 140.996 37.4499L140.372 37.9752C138.347 39.6798 136.238 39.5671 134.045 37.6371L132.866 38.6295L131.873 37.4504L132.969 36.5281L132.852 36.3894L132.292 35.7235L132.105 35.5016L131.009 36.4239L130.005 35.231L131.212 34.2153C129.749 31.7819 130.016 29.7246 132.013 28.0434L132.637 27.518C133.525 26.7708 134.439 26.4119 135.381 26.4414C136.331 26.463 137.242 26.8416 138.114 27.5771L136.255 29.1415C135.893 28.8617 135.493 28.7243 135.055 28.7296C134.626 28.727 134.241 28.8697 133.899 29.1577L133.427 29.5547C132.447 30.3797 132.314 31.4234 133.029 32.6859L135.762 30.3859L136.766 31.5788L133.95 33.9488L134.814 34.9753L137.63 32.6053L138.622 33.7844L135.862 36.1077C137.031 37.0832 138.114 37.1506 139.113 36.31L139.585 35.913C139.945 35.6095 140.162 35.2378 140.234 34.7979C140.307 34.341 140.225 33.8965 139.988 33.4643Z" fill="black"/>
<path d="M226.313 152.073C226.468 150.962 227.485 150.239 228.585 150.459L273.737 159.482C274.837 159.701 275.603 160.78 275.449 161.891L273.087 178.872C272.932 179.983 271.915 180.706 270.815 180.486L225.663 171.463C224.563 171.243 223.796 170.165 223.951 169.054L226.313 152.073Z" fill="#F9F5F0" stroke="black" stroke-width="1.5"/>
<path d="M223.579 154.405C223.733 153.294 224.75 152.572 225.85 152.792L271.003 161.814C272.103 162.034 272.869 163.113 272.715 164.224L270.185 182.404C270.031 183.515 269.014 184.238 267.914 184.018L222.761 174.995C221.661 174.776 220.895 173.697 221.05 172.586L223.579 154.405Z" fill="#F9F5F0" stroke="black" stroke-width="1.5"/>
<path d="M224.437 168.625L225.489 160.634C226.416 161.102 227.402 161.24 228.504 160.376C229.606 159.512 229.811 157.845 229.575 157.134L266.24 163.93C265.765 164.203 264.775 165.761 265.85 167.606C266.754 169.157 268.567 168.662 268.95 168.376L267.897 176.367C267.897 176.367 266.319 175.131 264.754 176.608C263.035 178.231 264.135 179.912 264.091 180.245L227.47 173.116C227.759 172.591 228.499 171.225 227.504 169.731C226.719 168.553 225.451 168.428 224.437 168.625Z" fill="#F9F5F0" stroke="black" stroke-width="1.5"/>
<path d="M249.557 168.822C249.35 170.709 247.869 171.877 246.407 171.652C244.946 171.426 243.765 169.848 243.971 167.961C244.177 166.074 245.659 164.906 247.12 165.131C248.582 165.357 249.763 166.935 249.557 168.822Z" fill="#F9F5F0" stroke="black" stroke-width="1.5"/>
<path d="M320.803 199.314C320.937 199.754 321.167 200.353 321.554 201.013C322.334 202.344 323.742 203.905 326.235 204.911C328.78 205.939 331.213 205.559 332.97 204.951C333.851 204.647 334.576 204.28 335.082 203.989C335.17 203.938 335.252 203.889 335.327 203.844C338.059 206.973 339.83 211.26 340.594 215.806C341.395 220.58 341.073 225.572 339.644 229.696C337.842 234.892 334.544 237.667 330.428 238.741C326.261 239.828 321.171 239.189 315.827 237.336C310.483 235.484 306.09 232.835 303.49 229.402C300.922 226.011 300.049 221.79 301.85 216.594C304.654 208.507 312.433 200.902 320.803 199.314Z" fill="#F9F5F0" stroke="black" stroke-width="1.5"/>
<path d="M326.959 204.46C324.283 203.532 322.359 201.413 321.576 198.898L323.656 198.279C324.247 200.144 325.68 201.717 327.67 202.407C329.839 203.159 332.137 202.678 333.801 201.337L335.282 202.928C333.044 204.8 329.911 205.484 326.959 204.46Z" stroke="black" stroke-width="0.831082"/>
<path d="M326.672 193.673C325.424 194.081 324.443 194.924 324.038 196.093C323.249 198.368 324.936 201.02 327.806 202.014C330.676 203.009 333.642 201.972 334.431 199.696C334.837 198.527 334.588 197.258 333.86 196.165M326.672 193.673L326.407 180.865C327.793 181.699 331.483 183.472 335.146 183.895C338.81 184.317 343.368 184.096 345.188 183.932L333.86 196.165M326.672 193.673C327.031 194.212 327.506 194.708 328.077 195.128M333.86 196.165C333.245 196.367 332.564 196.462 331.856 196.438M329.869 196.064L332.326 188.215M329.869 196.064C330.536 196.295 331.208 196.416 331.856 196.438M329.869 196.064C329.203 195.833 328.6 195.512 328.077 195.128M331.856 196.438L333.93 192.746M328.077 195.128L328.907 189.68" stroke="black" stroke-width="1.5"/>
<path d="M310.571 209.285C308.181 212.494 303.148 218.35 305.572 223.703C307.997 229.057 311.602 230.149 313.533 230.976" stroke="black" stroke-width="0.831082"/>
<path d="M325.808 222.604C325.582 223.435 325.118 224.048 324.416 224.441C323.717 224.825 322.886 224.95 321.923 224.816L321.564 226.137L319.98 225.691L320.335 224.385C319.41 223.995 318.746 223.406 318.344 222.617C317.943 221.827 317.849 220.941 318.063 219.958L319.948 220.47C319.839 221.067 319.925 221.59 320.207 222.039C320.492 222.477 320.941 222.78 321.555 222.947C322.129 223.103 322.615 223.112 323.013 222.976C323.424 222.833 323.69 222.538 323.811 222.093C323.892 221.796 323.855 221.52 323.701 221.266C323.557 221.014 323.331 220.788 323.024 220.588C322.727 220.39 322.393 220.193 322.021 219.997C321.652 219.79 321.289 219.564 320.93 219.318C320.575 219.062 320.256 218.789 319.973 218.5C319.703 218.203 319.516 217.834 319.413 217.391C319.323 216.942 319.35 216.45 319.495 215.915C319.702 215.153 320.143 214.587 320.817 214.218C321.492 213.848 322.284 213.729 323.194 213.859L323.537 212.598L325.125 213.029L324.771 214.335C325.572 214.712 326.149 215.247 326.503 215.938C326.857 216.629 326.943 217.391 326.759 218.223L324.889 217.715C324.963 217.246 324.869 216.828 324.608 216.459C324.347 216.091 323.944 215.833 323.4 215.685C322.885 215.545 322.45 215.543 322.094 215.681C321.738 215.818 321.51 216.069 321.41 216.435C321.327 216.742 321.361 217.028 321.513 217.292C321.667 217.546 321.892 217.772 322.189 217.97C322.499 218.16 322.844 218.355 323.226 218.555C323.61 218.744 323.981 218.962 324.34 219.208C324.71 219.447 325.031 219.714 325.301 220.011C325.584 220.3 325.775 220.671 325.876 221.124C325.979 221.566 325.956 222.059 325.808 222.604Z" fill="black"/>
</svg>
