<svg width="116" height="55" viewBox="0 0 116 55" fill="none" xmlns="http://www.w3.org/2000/svg">
<rect x="1.45248" y="1.01889" width="113.097" height="52.3665" rx="7.13223" stroke="black" stroke-width="2.03778"/>
<path d="M83.6897 18.4184L83.6897 1.01889L107.415 1.01889C111.354 1.01889 114.548 4.2121 114.548 8.15112L114.548 25.5506L90.8219 25.5506C86.8829 25.5506 83.6897 22.3574 83.6897 18.4184Z" fill="white" stroke="black" stroke-width="2.03778"/>
<path d="M101.652 7.33345C101.652 6.29175 100.798 5.43945 99.7545 5.43945C98.7107 5.43945 97.8567 6.29175 97.8567 7.33345C97.8567 8.37515 98.7107 9.22745 99.7545 9.22745C100.798 9.22745 101.652 8.37515 101.652 7.33345ZM101.652 18.6975C101.652 17.6558 100.798 16.8035 99.7545 16.8035C98.7107 16.8035 97.8567 17.6558 97.8567 18.6975C97.8567 19.7392 98.7107 20.5915 99.7545 20.5915C100.798 20.5915 101.652 19.7392 101.652 18.6975ZM101.652 13.0155C101.652 11.9738 100.798 11.1215 99.7545 11.1215C98.7107 11.1215 97.8567 11.9738 97.8567 13.0155C97.8567 14.0572 98.7107 14.9095 99.7545 14.9095C100.798 14.9095 101.652 14.0572 101.652 13.0155Z" fill="black"/>
<rect x="14.1797" y="14.8643" width="3.08894" height="9.09111" fill="black"/>
<rect x="21" y="14.8643" width="3.08894" height="9.09111" fill="black"/>
<rect x="27.8242" y="14.8643" width="3.08894" height="9.09111" fill="black"/>
<rect x="12.332" y="27.261" width="1.65293" height="20.4642" transform="rotate(-90 12.332 27.261)" fill="black"/>
<path d="M13.1016 13.2119L13.1016 11.559L22.5614 7.42666L32.0213 11.559L32.0213 13.2119L13.1016 13.2119Z" fill="black"/>
<rect x="10.5547" y="35.2959" width="58.1999" height="10.1217" rx="5.06086" fill="#EAE2DB"/>
<rect x="86.4688" y="35.2959" width="18.9782" height="10.1217" rx="5.06086" fill="#EAE2DB"/>
</svg>
