<svg width="24" height="31" viewBox="0 0 24 31" fill="none" xmlns="http://www.w3.org/2000/svg">
<path d="M3.21741 12.615H21.1182C22.0203 12.615 22.6158 13.2789 22.6158 13.9386V28.2374C22.6158 28.8938 22.0111 29.5609 21.1182 29.5609H3.21741C2.31529 29.5609 1.71978 28.8971 1.71978 28.2374V13.9386C1.71978 13.2789 2.31529 12.615 3.21741 12.615Z" stroke="black" stroke-width="2.11925"/>
<path d="M12.4012 22.5125C14.217 22.5125 15.6891 21.1011 15.6891 19.3602C15.6891 17.6192 14.217 16.2079 12.4012 16.2079C10.5853 16.2079 9.11328 17.6192 9.11328 19.3602C9.11328 21.1011 10.5853 22.5125 12.4012 22.5125Z" fill="black"/>
<path d="M18.9797 12.4635V7.7179C18.9797 4.57277 16.0356 2.02313 12.4039 2.02313C8.77221 2.02313 5.82812 4.57277 5.82812 7.7179V12.4635" stroke="black" stroke-width="2.11925"/>
<line x1="12.4667" y1="19.3619" x2="12.4667" y2="25.6665" stroke="black" stroke-width="2.47245"/>
</svg>
