<svg width="68" height="67" viewBox="0 0 68 67" fill="none" xmlns="http://www.w3.org/2000/svg">
<path d="M54.9626 27.2659C54.3017 28.144 53.035 28.5465 52.4843 28.638L51.3828 30.8336C52.5761 31.291 55.238 32.2058 56.3395 32.2058C57.441 32.2058 57.5328 29.8273 57.441 28.638C56.8902 27.8147 55.6235 26.3877 54.9626 27.2659Z" stroke="black" stroke-width="2"/>
<path d="M52.6878 13.5158C53.7309 12.8204 52.3907 7.89091 52.3907 7.89091C56.3313 10.7014 63.2326 18.5939 65.0391 26.8592C66.8415 35.1054 65.6399 43.7915 59.077 52.6341C57.773 51.7648 55.7305 53.938 53.5573 54.8073C51.8187 55.5028 47.6171 53.6483 45.7336 52.6341C44.4297 51.475 41.7349 48.8961 41.3871 47.853C40.9525 46.549 42.6909 44.8104 43.995 43.5065C45.2992 42.2026 45.299 38.2907 45.7336 36.1175C46.1683 33.9443 41.8218 35.6828 42.6909 37.4214C44.984 42.0088 37.9101 40.3984 37.9102 36.1175C37.9103 29.1631 46.6036 29.1645 45.7336 27.4245L45.7334 27.424C44.8636 25.6845 40.9525 17.8622 42.6909 16.5584C44.0818 15.5152 47.3271 16.1237 48.7759 16.5584C49.6452 15.834 51.6446 14.2113 52.6878 13.5158Z" fill="white" stroke="black" stroke-width="2"/>
<path d="M58.8887 30.6419C58.3699 31.3314 57.3753 31.6474 56.9429 31.7192L56.0781 33.443C57.015 33.8021 59.1049 34.5203 59.9698 34.5203C60.8346 34.5203 60.9066 32.6529 60.8346 31.7192C60.4022 31.0728 59.4076 29.9524 58.8887 30.6419Z" fill="white" stroke="black" stroke-width="2"/>
<path d="M4.87856 29.5979C4.18313 29.2502 3.80095 26.1029 3.51119 24.6541C2.74721 26.4267 1.42474 35.7307 3.13998 42.6638C4.85522 49.597 10.1989 55.5265 12.4436 57.5538C13.1054 56.9753 14.4432 55.6767 16.2016 55.6767C18.3996 55.6767 17.1943 57.7665 19.2505 58.4046C21.3067 59.0428 22.859 59.7241 23.8593 59.9645C31.2334 61.7372 29.6026 65.1406 29.6026 65.1406C29.6026 65.1406 38.8202 67.1259 45.7354 63.5003V62.1964C45.8803 60.6027 46.257 57.0676 46.6047 55.6767C46.9524 54.2859 44.7212 52.1995 43.5622 51.3303C43.1275 50.7507 41.6497 49.5917 39.2157 49.5917H35.3039C33.5653 49.5917 30.9574 50.0263 30.0881 48.7224C29.2188 47.4184 27.0456 49.5917 24.4377 48.7224C21.8298 47.8531 20.0912 42.2027 20.5259 40.4641C20.9605 38.7255 16.1794 34.379 14.0062 33.9444C12.2676 33.5966 13.5715 41.0436 14.4408 44.8105C12.8471 43.9412 9.83355 41.9419 10.529 40.8987C11.3983 39.5948 9.22504 35.6829 8.79039 33.0751C8.35574 30.4672 5.74786 30.0325 4.87856 29.5979Z" fill="white" stroke="black" stroke-width="2"/>
<circle cx="33.998" cy="33.9443" r="32.0332" stroke="black" stroke-width="2"/>
</svg>
