<svg width="82" height="90" viewBox="0 0 82 90" fill="none" xmlns="http://www.w3.org/2000/svg">
<g style="mix-blend-mode:multiply">
<circle cx="24.212" cy="29.3545" r="11.6465" transform="rotate(-11.1169 24.212 29.3545)" fill="white" stroke="black" stroke-width="0.970543"/>
<path d="M34.9139 27.0045C36.1062 33.0722 32.1539 38.9575 26.0863 40.1498C20.0186 41.3421 14.1333 37.3898 12.941 31.3222C11.7488 25.2545 15.701 19.3692 21.7686 18.1769C27.8363 16.9847 33.7216 20.9369 34.9139 27.0045Z" fill="white" stroke="black" stroke-width="0.9"/>
<path d="M28.3264 31.2294C28.4987 32.1065 28.3489 32.8896 27.8771 33.5788C27.4031 34.2576 26.6877 34.756 25.7309 35.0742L26.0048 36.4681L24.3258 36.7817L24.055 35.4035C23.0155 35.4667 22.1273 35.2238 21.3904 34.6745C20.6535 34.1253 20.1584 33.3441 19.9051 32.3311L21.8942 31.9403C22.0675 32.5461 22.3884 32.9927 22.857 33.2802C23.3235 33.5572 23.8805 33.6321 24.5278 33.5049C25.1334 33.3859 25.5901 33.1715 25.898 32.8616C26.2142 32.5392 26.3261 32.143 26.2338 31.6732C26.1722 31.3599 26.0113 31.1204 25.751 30.9547C25.5011 30.7869 25.1874 30.6804 24.8098 30.6353C24.4427 30.5882 24.0411 30.5587 23.6049 30.5468C23.1668 30.5244 22.7245 30.4812 22.2781 30.4171C21.8297 30.3425 21.4074 30.2357 21.0114 30.0966C20.6237 29.9451 20.2803 29.6872 19.981 29.3231C19.6901 28.9465 19.4892 28.4762 19.3784 27.9124C19.2205 27.1084 19.37 26.3795 19.8272 25.7258C20.2843 25.072 20.9663 24.5964 21.873 24.299L21.6114 22.9677L23.2872 22.6384L23.5581 24.0167C24.4764 23.9989 25.2592 24.23 25.9066 24.7101C26.5541 25.1902 26.9838 25.8595 27.1958 26.7179L25.2224 27.1057C25.0758 26.6356 24.7963 26.2893 24.3838 26.0667C23.9714 25.8441 23.478 25.7892 22.9037 25.9021C22.3608 26.0088 21.9553 26.2077 21.6871 26.499C21.419 26.7903 21.3229 27.1291 21.3989 27.5154C21.4625 27.8391 21.6254 28.089 21.8878 28.2652C22.1481 28.4309 22.4618 28.5374 22.829 28.5845C23.2045 28.6192 23.6155 28.6414 24.0621 28.6513C24.5066 28.6507 24.9521 28.6825 25.3984 28.7466C25.8532 28.7982 26.2744 28.8998 26.6621 29.0514C27.0581 29.1904 27.4068 29.4472 27.7082 29.8218C28.0074 30.1859 28.2135 30.6552 28.3264 31.2294Z" fill="black"/>
</g>
<g style="mix-blend-mode:multiply">
<circle cx="56.3435" cy="16.7088" r="12.4052" transform="rotate(16.072 56.3435 16.7088)" fill="white" stroke="black" stroke-width="1.03377"/>
<path d="M67.7657 19.5634C65.9508 25.8629 59.2585 29.4843 52.8025 27.6243C46.3465 25.7643 42.6068 19.1373 44.4217 12.8378C46.2367 6.53834 52.929 2.91696 59.3849 4.77696C65.8409 6.63696 69.5806 13.2639 67.7657 19.5634Z" fill="white" stroke="black" stroke-width="1.03377"/>
<path d="M57.8974 18.8974L60.0539 19.5187L59.7244 20.6623C59.533 21.3267 59.2058 21.7868 58.7428 22.0427C58.2939 22.2908 57.7318 22.3176 57.0565 22.123L50.6198 20.2685L51.1281 18.5042C52.3402 18.1456 53.1188 17.3674 53.4639 16.1693C53.4859 16.0931 53.5111 15.9647 53.5395 15.7841L51.6608 15.2429L52.1409 13.5765L53.3661 13.9295C53.2757 13.3019 53.2995 12.7485 53.4375 12.2692C53.7388 11.2237 54.3219 10.4893 55.1869 10.0662C56.0628 9.64623 57.0671 9.5994 58.1998 9.92574C59.3107 10.2458 60.1182 10.8205 60.6224 11.6499C61.1406 12.4715 61.2872 13.4161 61.0622 14.4836L58.922 13.867C59.0291 13.3317 58.9624 12.8879 58.7218 12.5355C58.4953 12.1753 58.1424 11.9262 57.6632 11.7882C57.184 11.6501 56.748 11.6896 56.3552 11.9067C55.9655 12.1129 55.6953 12.4774 55.5447 13.0002C55.4255 13.4141 55.4181 13.9309 55.5226 14.5508L59.0514 15.5675L58.5713 17.2338L55.696 16.4054C55.6739 16.5642 55.6487 16.6926 55.6204 16.7906C55.3506 17.7273 54.7027 18.5019 53.677 19.1146L56.9443 20.056C57.3255 20.1658 57.5711 20.0301 57.6809 19.6489L57.8974 18.8974Z" fill="black"/>
</g>
<path d="M77.3752 35.2773H2.20682C1.89628 35.2773 1.64453 35.5291 1.64453 35.8396V87.9223C1.64453 88.2328 1.89628 88.4846 2.20682 88.4846H77.3752C77.6858 88.4846 77.9375 88.2328 77.9375 87.9223V68.6968V35.8396C77.9375 35.5291 77.6858 35.2773 77.3752 35.2773Z" fill="#F9F5F0" stroke="black" stroke-width="2" stroke-linejoin="round"/>
<rect x="57.0508" y="55.9446" width="23.3056" height="11.6528" rx="0.562288" fill="white" stroke="black" stroke-width="2" stroke-linejoin="round"/>
<path d="M2.42578 47.2751H65.2792C65.5898 47.2751 65.8415 47.5269 65.8415 47.8374V54.8453M2.42578 76.4868H65.2792C65.5898 76.4868 65.8415 76.2351 65.8415 75.9245V69.5762" stroke="black" stroke-width="2" stroke-linecap="round" stroke-linejoin="round" stroke-dasharray="5.62 5.62"/>
<circle cx="63.168" cy="61.6433" r="2.5" fill="black"/>
</svg>
