<svg width="260" height="311" viewBox="0 0 260 311" fill="none" xmlns="http://www.w3.org/2000/svg">
<path d="M62.6621 158.097L61.2972 158.72L62.6621 158.097ZM120.105 114.907L118.638 114.593L120.105 114.907ZM76.5181 103.511L75.1064 104.018L76.5181 103.511ZM121.836 32.4201C122.648 32.2535 123.441 32.7763 123.607 33.5878C123.774 34.3994 123.251 35.1922 122.44 35.3588L121.836 32.4201ZM29.9026 310.247C29.9162 309.419 30.5987 308.758 31.427 308.772C32.2553 308.785 32.9158 309.468 32.9022 310.296L29.9026 310.247ZM33.8678 302.733C33.6885 303.542 32.8876 304.052 32.0788 303.873C31.27 303.694 30.7596 302.893 30.9389 302.084L33.8678 302.733ZM31.1706 301.083C31.3646 300.277 32.1748 299.782 32.9802 299.976C33.7856 300.17 34.2812 300.98 34.0872 301.785L31.1706 301.083ZM36.3525 294.33C36.0736 295.11 35.2151 295.517 34.435 295.238C33.655 294.959 33.2488 294.1 33.5277 293.32L36.3525 294.33ZM33.8743 292.366C34.1608 291.589 35.0232 291.191 35.8005 291.477C36.5778 291.764 36.9757 292.626 36.6892 293.403L33.8743 292.366ZM39.6383 286.11C39.3082 286.87 38.4246 287.218 37.6648 286.888C36.905 286.558 36.5567 285.674 36.8869 284.914L39.6383 286.11ZM37.2856 284.003C37.6195 283.245 38.5048 282.901 39.2629 283.235C40.0211 283.569 40.365 284.454 40.031 285.212L37.2856 284.003ZM43.3344 278.022C42.9792 278.77 42.0846 279.089 41.3362 278.734C40.5877 278.379 40.2689 277.484 40.624 276.736L43.3344 278.022ZM41.0526 275.835C41.4094 275.087 42.3047 274.771 43.0524 275.127C43.8 275.484 44.1169 276.379 43.7601 277.127L41.0526 275.835ZM47.219 269.989C46.855 270.733 45.9566 271.041 45.2125 270.677C44.4683 270.313 44.1601 269.415 44.5241 268.671L47.219 269.989ZM44.9647 267.77C45.3289 267.026 46.2274 266.718 46.9714 267.083C47.7155 267.447 48.0234 268.345 47.6592 269.089L44.9647 267.77ZM51.1466 261.947C50.7852 262.692 49.888 263.003 49.1425 262.642C48.3971 262.281 48.0857 261.383 48.4471 260.638L51.1466 261.947ZM48.8802 259.743C49.2407 258.997 50.1376 258.685 50.8835 259.045C51.6294 259.406 51.9418 260.303 51.5813 261.049L48.8802 259.743ZM55.0045 253.843C54.6551 254.595 53.763 254.92 53.0118 254.571C52.2607 254.222 51.935 253.329 52.2844 252.578L55.0045 253.843ZM52.7001 251.682C53.0476 250.93 53.9389 250.602 54.6909 250.949C55.4429 251.297 55.7709 252.188 55.4233 252.94L52.7001 251.682ZM58.6918 245.645C58.363 246.406 57.48 246.755 56.7196 246.427C55.9592 246.098 55.6094 245.215 55.9382 244.455L58.6918 245.645ZM56.3288 243.547C56.6548 242.785 57.5365 242.432 58.2981 242.758C59.0597 243.084 59.4128 243.965 59.0868 244.727L56.3288 243.547ZM62.1138 237.321C61.8141 238.093 60.9451 238.476 60.1728 238.177C59.4005 237.877 59.0173 237.008 59.3169 236.236L62.1138 237.321ZM59.6718 235.314C59.9677 234.54 60.8348 234.153 61.6086 234.449C62.3824 234.745 62.7699 235.612 62.474 236.386L59.6718 235.314ZM65.1772 228.837C64.9158 229.623 64.0666 230.048 63.2805 229.787C62.4944 229.525 62.0691 228.676 62.3305 227.89L65.1772 228.837ZM62.6383 226.955C62.8949 226.167 63.7414 225.737 64.5291 225.993C65.3168 226.25 65.7473 227.097 65.4907 227.884L62.6383 226.955ZM67.7762 220.183C67.5628 220.984 66.7409 221.46 65.9404 221.246C65.1399 221.033 64.664 220.211 64.8774 219.41L67.7762 220.183ZM65.1271 218.46C65.3345 217.658 66.1528 217.176 66.9548 217.383C67.7569 217.59 68.2389 218.409 68.0315 219.211L65.1271 218.46ZM69.7982 211.36C69.6433 212.174 68.858 212.708 68.0442 212.553C67.2304 212.398 66.6962 211.613 66.8511 210.799L69.7982 211.36ZM67.0302 209.835C67.1779 209.02 67.9585 208.479 68.7736 208.626C69.5888 208.774 70.1298 209.555 69.9821 210.37L67.0302 209.835ZM71.1247 202.388C71.0391 203.212 70.3016 203.811 69.4777 203.725C68.6537 203.639 68.0551 202.902 68.1408 202.078L71.1247 202.388ZM68.237 201.105C68.3144 200.28 69.0457 199.674 69.8705 199.751C70.6953 199.829 71.3013 200.56 71.2239 201.385L68.237 201.105ZM71.6392 193.319C71.6326 194.147 70.9556 194.813 70.1272 194.807C69.2988 194.8 68.6327 194.123 68.6393 193.295L71.6392 193.319ZM68.6417 192.315C68.6391 191.486 69.3085 190.813 70.137 190.81C70.9654 190.808 71.6391 191.477 71.6417 192.305L68.6417 192.315ZM71.2437 184.234C71.3234 185.059 70.7194 185.792 69.8949 185.871C69.0703 185.951 68.3372 185.347 68.2576 184.522L71.2437 184.234ZM68.1581 183.552C68.0686 182.729 68.6636 181.988 69.4872 181.899C70.3108 181.809 71.051 182.404 71.1405 183.228L68.1581 183.552ZM69.8744 175.225C70.0438 176.036 69.5237 176.83 68.7128 177C67.9018 177.169 67.1072 176.649 66.9378 175.838L69.8744 175.225ZM66.7332 174.888C66.554 174.079 67.0643 173.278 67.8731 173.099C68.6819 172.919 69.4829 173.43 69.6621 174.239L66.7332 174.888ZM67.5295 166.444C67.7867 167.231 67.3569 168.078 66.5694 168.335C65.7819 168.593 64.935 168.163 64.6778 167.375L67.5295 166.444ZM64.3688 166.449C64.1021 165.664 64.5216 164.812 65.306 164.545C66.0903 164.279 66.9423 164.698 67.209 165.483L64.3688 166.449ZM64.2387 157.943C64.578 158.699 64.2404 159.587 63.4846 159.926C62.7289 160.265 61.8411 159.928 61.5019 159.172L64.2387 157.943ZM61.0868 158.253C60.7495 157.496 61.0894 156.609 61.8461 156.272C62.6028 155.935 63.4896 156.275 63.8269 157.031L61.0868 158.253ZM61.2494 149.948C61.4736 150.746 61.0088 151.574 60.2113 151.798C59.4138 152.022 58.5855 151.558 58.3613 150.76L61.2494 149.948ZM58.1026 149.803C57.8943 149.002 58.3755 148.183 59.1773 147.974C59.9791 147.766 60.7979 148.247 61.0062 149.049L58.1026 149.803ZM59.7509 141.705C59.8173 142.531 59.2018 143.254 58.376 143.32C57.5503 143.387 56.827 142.771 56.7605 141.946L59.7509 141.705ZM56.6914 140.939C56.6444 140.112 57.2768 139.403 58.1039 139.356C58.931 139.309 59.6396 139.941 59.6866 140.769L56.6914 140.939ZM59.9796 133.36C59.8658 134.181 59.1083 134.754 58.2878 134.64C57.4672 134.526 56.8943 133.768 57.0081 132.948L59.9796 133.36ZM57.1596 131.948C57.294 131.131 58.0656 130.577 58.8831 130.711C59.7005 130.846 60.2543 131.617 60.1199 132.435L57.1596 131.948ZM62.0442 125.271C61.7517 126.046 60.8863 126.437 60.1112 126.144C59.3362 125.852 58.9449 124.986 59.2374 124.211L62.0442 125.271ZM59.604 123.274C59.9152 122.507 60.7899 122.136 61.5576 122.448C62.3254 122.759 62.6955 123.633 62.3844 124.401L59.604 123.274ZM65.8136 117.793C65.367 118.49 64.4393 118.694 63.7416 118.247C63.0438 117.801 62.8402 116.873 63.2867 116.175L65.8136 117.793ZM63.8353 115.339C64.297 114.651 65.2288 114.467 65.9167 114.929C66.6045 115.391 66.7879 116.323 66.3262 117.01L63.8353 115.339ZM70.9993 111.169C70.4313 111.772 69.482 111.801 68.8789 111.233C68.2758 110.665 68.2473 109.716 68.8152 109.113L70.9993 111.169ZM69.5053 108.394C70.0848 107.802 71.0345 107.792 71.6265 108.371C72.2186 108.951 72.2287 109.9 71.6492 110.492L69.5053 108.394ZM77.2885 105.534C76.6281 106.035 75.6873 105.905 75.1871 105.244C74.687 104.584 74.8169 103.643 75.4773 103.143L77.2885 105.534ZM76.2746 102.55C76.9439 102.062 77.8822 102.208 78.3705 102.878C78.8588 103.547 78.7122 104.485 78.043 104.973L76.2746 102.55ZM84.4165 100.98C83.6852 101.369 82.7768 101.092 82.3875 100.361C81.9982 99.6294 82.2754 98.721 83.0066 98.3317L84.4165 100.98ZM83.8847 97.8741C84.6227 97.4978 85.5261 97.7911 85.9024 98.5291C86.2786 99.2672 85.9854 100.17 85.2474 100.547L83.8847 97.8741ZM92.1664 97.6359C91.3806 97.8982 90.531 97.4738 90.2687 96.688C90.0064 95.9022 90.4308 95.0525 91.2166 94.7903L92.1664 97.6359ZM92.1616 94.4853C92.9525 94.2389 93.7934 94.6802 94.0399 95.4711C94.2864 96.262 93.845 97.103 93.0541 97.3495L92.1616 94.4853ZM100.343 95.7653C99.52 95.8622 98.7745 95.2738 98.6776 94.4511C98.5807 93.6283 99.1691 92.8828 99.9918 92.7859L100.343 95.7653ZM100.999 92.6812C101.824 92.607 102.553 93.2157 102.627 94.0408C102.702 94.8659 102.093 95.5949 101.268 95.6691L100.999 92.6812ZM108.534 95.9561C107.721 95.7976 107.19 95.0099 107.349 94.1968C107.507 93.3837 108.295 92.853 109.108 93.0116L108.534 95.9561ZM110.138 93.2377C110.943 93.4347 111.435 94.2468 111.238 95.0514C111.041 95.8561 110.229 96.3487 109.425 96.1516L110.138 93.2377ZM115.558 99.2818C114.951 98.7179 114.916 97.7687 115.48 97.1619C116.044 96.555 116.993 96.5203 117.6 97.0842L115.558 99.2818ZM118.365 97.8526C118.926 98.4622 118.886 99.4112 118.277 99.9721C117.667 100.533 116.718 100.493 116.157 99.8837L118.365 97.8526ZM119.032 105.995C118.891 105.179 119.439 104.403 120.255 104.262C121.072 104.121 121.848 104.668 121.989 105.485L119.032 105.995ZM122.139 106.533C122.235 107.356 121.645 108.1 120.822 108.195C119.999 108.291 119.255 107.701 119.159 106.878L122.139 106.533ZM118.737 114.113C118.899 113.301 119.689 112.773 120.501 112.935C121.314 113.097 121.841 113.887 121.68 114.699L118.737 114.113ZM121.46 115.728C121.277 116.536 120.474 117.043 119.666 116.86C118.858 116.677 118.351 115.874 118.534 115.066L121.46 115.728ZM116.128 122.283C116.474 121.531 117.365 121.201 118.118 121.547C118.87 121.893 119.2 122.784 118.854 123.536L116.128 122.283ZM118.403 124.479C118.034 125.22 117.133 125.522 116.391 125.153C115.65 124.783 115.348 123.883 115.717 123.141L118.403 124.479ZM111.475 129.237C112.058 128.648 113.008 128.644 113.597 129.227C114.185 129.81 114.189 130.76 113.606 131.348L111.475 129.237ZM112.833 132.089C112.22 132.646 111.271 132.601 110.714 131.988C110.157 131.374 110.203 130.426 110.816 129.869L112.833 132.089ZM104.607 133.101C105.423 132.955 106.202 133.498 106.348 134.313C106.494 135.129 105.952 135.908 105.136 136.054L104.607 133.101ZM104.029 136.205C103.204 136.283 102.472 135.677 102.395 134.853C102.317 134.028 102.922 133.296 103.747 133.219L104.029 136.205ZM96.9509 131.71C97.6832 132.097 97.9629 133.005 97.5756 133.737C97.1883 134.469 96.2806 134.749 95.5483 134.362L96.9509 131.71ZM94.6205 133.838C93.9099 133.413 93.679 132.491 94.1048 131.781C94.5306 131.07 95.4518 130.839 96.1625 131.265L94.6205 133.838ZM90.4948 126.404C91.0452 127.023 90.9896 127.971 90.3705 128.521C89.7514 129.072 88.8033 129.016 88.2528 128.397L90.4948 126.404ZM87.5916 127.634C87.0574 127 87.1376 126.054 87.7708 125.52C88.404 124.986 89.3503 125.066 89.8845 125.699L87.5916 127.634ZM85.4501 119.407C85.8764 120.117 85.6462 121.039 84.9358 121.465C84.2255 121.891 83.3041 121.661 82.8778 120.951L85.4501 119.407ZM82.37 120.09C81.9545 119.373 82.1985 118.456 82.9152 118.04C83.6318 117.624 84.5497 117.869 84.9653 118.585L82.37 120.09ZM81.4177 111.653C81.7606 112.407 81.4272 113.296 80.6731 113.639C79.919 113.982 79.0296 113.649 78.6868 112.895L81.4177 111.653ZM78.2653 111.955C77.9302 111.197 78.2727 110.311 79.0303 109.976C79.7879 109.641 80.6738 109.984 81.0089 110.741L78.2653 111.955ZM78.1013 103.478C78.3842 104.257 77.9823 105.118 77.2037 105.4C76.4251 105.683 75.5646 105.281 75.2817 104.503L78.1013 103.478ZM74.932 103.528C74.6557 102.747 75.0648 101.89 75.8458 101.614C76.6268 101.337 77.4839 101.747 77.7602 102.528L74.932 103.528ZM75.4316 95.0007C75.6418 95.802 75.1626 96.622 74.3613 96.8322C73.56 97.0423 72.74 96.5631 72.5298 95.7618L75.4316 95.0007ZM72.2726 94.7564C72.0722 93.9526 72.5614 93.1385 73.3653 92.9381C74.1691 92.7378 74.9832 93.2269 75.1835 94.0308L72.2726 94.7564ZM73.6945 86.3288C73.8041 87.15 73.2272 87.9045 72.4061 88.014C71.5849 88.1236 70.8304 87.5467 70.7209 86.7255L73.6945 86.3288ZM70.5938 85.7113C70.4975 84.8885 71.0864 84.1434 71.9092 84.047C72.7321 83.9507 73.4772 84.5396 73.5735 85.3624L70.5938 85.7113ZM73.2247 77.5958C73.1971 78.4237 72.5035 79.0725 71.6755 79.0448C70.8475 79.0172 70.1988 78.3236 70.2264 77.4956L73.2247 77.5958ZM70.2725 76.4546C70.3181 75.6274 71.0256 74.9939 71.8528 75.0395C72.68 75.0851 73.3135 75.7927 73.2679 76.6198L70.2725 76.4546ZM74.4117 69.0023C74.2071 69.805 73.3905 70.29 72.5877 70.0854C71.7849 69.8808 71.3 69.0642 71.5046 68.2614L74.4117 69.0023ZM71.7763 67.2519C72.0024 66.4549 72.8317 65.9921 73.6287 66.2182C74.4257 66.4443 74.8885 67.2737 74.6624 68.0706L71.7763 67.2519ZM77.5581 60.9825C77.1599 61.7089 76.2482 61.975 75.5218 61.5768C74.7953 61.1786 74.5292 60.2669 74.9274 59.5405L77.5581 60.9825ZM75.4417 58.6331C75.8604 57.9182 76.7793 57.6782 77.4942 58.0969C78.209 58.5156 78.449 59.4345 78.0303 60.1493L75.4417 58.6331ZM82.6172 53.9979C82.0542 54.6056 81.1052 54.6419 80.4974 54.0789C79.8897 53.5159 79.8534 52.5668 80.4164 51.9591L82.6172 53.9979ZM81.1311 51.2069C81.7091 50.6134 82.6587 50.6009 83.2522 51.1789C83.8456 51.7569 83.8582 52.7066 83.2802 53.3L81.1311 51.2069ZM89.1675 48.2799C88.4935 48.7617 87.5567 48.6058 87.0749 47.9319C86.5932 47.2579 86.749 46.321 87.423 45.8393L89.1675 48.2799ZM88.2662 45.2489C88.9493 44.7803 89.883 44.9543 90.3516 45.6374C90.8202 46.3206 90.6463 47.2543 89.9631 47.7229L88.2662 45.2489ZM96.695 43.7676C95.9555 44.1408 95.0533 43.8438 94.6801 43.1043C94.3069 42.3647 94.6039 41.4626 95.3435 41.0893L96.695 43.7676ZM96.2613 40.6345C97.0062 40.2719 97.9039 40.5818 98.2665 41.3267C98.6291 42.0715 98.3192 42.9693 97.5743 43.3319L96.2613 40.6345ZM104.812 40.26C104.035 40.5473 103.173 40.1504 102.885 39.3734C102.598 38.5964 102.995 37.7335 103.772 37.4462L104.812 40.26ZM104.728 37.0982C105.508 36.8191 106.367 37.2252 106.646 38.0052C106.925 38.7852 106.519 39.6438 105.739 39.9229L104.728 37.0982ZM113.279 37.5478C112.481 37.7686 111.654 37.3004 111.434 36.5019C111.213 35.7034 111.681 34.8772 112.48 34.6563L113.279 37.5478ZM113.455 34.3908C114.255 34.1764 115.078 34.6512 115.292 35.4514C115.507 36.2516 115.032 37.0741 114.231 37.2886L113.455 34.3908ZM121.951 35.4599C121.14 35.629 120.345 35.1087 120.176 34.2977C120.007 33.4867 120.528 32.6922 121.338 32.5231L121.951 35.4599ZM29.8984 310.759C29.8984 310.589 29.8998 310.418 29.9026 310.247L32.9022 310.296C32.8997 310.451 32.8984 310.605 32.8984 310.759L29.8984 310.759ZM30.9389 302.084C31.0126 301.751 31.0899 301.418 31.1706 301.083L34.0872 301.785C34.0106 302.103 33.9375 302.419 33.8678 302.733L30.9389 302.084ZM33.5277 293.32C33.6411 293.003 33.7567 292.685 33.8743 292.366L36.6892 293.403C36.5748 293.714 36.4625 294.023 36.3525 294.33L33.5277 293.32ZM36.8869 284.914C37.0185 284.612 37.1514 284.308 37.2856 284.003L40.031 285.212C39.8988 285.513 39.7679 285.812 39.6383 286.11L36.8869 284.914ZM40.624 276.736C40.7661 276.436 40.909 276.136 41.0526 275.835L43.7601 277.127C43.6174 277.426 43.4755 277.724 43.3344 278.022L40.624 276.736ZM44.5241 268.671C44.6706 268.371 44.8175 268.071 44.9647 267.77L47.6592 269.089C47.5121 269.39 47.3653 269.69 47.219 269.989L44.5241 268.671ZM48.4471 260.638C48.5914 260.34 48.7358 260.042 48.8802 259.743L51.5813 261.049C51.4363 261.348 51.2914 261.648 51.1466 261.947L48.4471 260.638ZM52.2844 252.578C52.4232 252.28 52.5617 251.981 52.7001 251.682L55.4233 252.94C55.2839 253.242 55.1443 253.543 55.0045 253.843L52.2844 252.578ZM55.9382 244.455C56.0689 244.152 56.1991 243.85 56.3288 243.547L59.0868 244.727C58.9556 245.034 58.8239 245.34 58.6918 245.645L55.9382 244.455ZM59.3169 236.236C59.4359 235.929 59.5543 235.622 59.6718 235.314L62.474 236.386C62.3546 236.698 62.2346 237.009 62.1138 237.321L59.3169 236.236ZM62.3305 227.89C62.434 227.579 62.5366 227.267 62.6383 226.955L65.4907 227.884C65.3872 228.202 65.2826 228.52 65.1772 228.837L62.3305 227.89ZM64.8774 219.41C64.9618 219.094 65.045 218.777 65.1271 218.46L68.0315 219.211C67.9476 219.535 67.8625 219.859 67.7762 220.183L64.8774 219.41ZM66.8511 210.799C66.9122 210.478 66.9719 210.157 67.0302 209.835L69.9821 210.37C69.9223 210.7 69.8609 211.03 69.7982 211.36L66.8511 210.799ZM68.1408 202.078C68.1745 201.754 68.2066 201.429 68.237 201.105L71.2239 201.385C71.1925 201.72 71.1595 202.054 71.1247 202.388L68.1408 202.078ZM68.6393 193.295C68.642 192.968 68.6428 192.642 68.6417 192.315L71.6417 192.305C71.6428 192.643 71.642 192.981 71.6392 193.319L68.6393 193.295ZM68.2576 184.522C68.2264 184.199 68.1932 183.876 68.1581 183.552L71.1405 183.228C71.177 183.564 71.2114 183.899 71.2437 184.234L68.2576 184.522ZM66.9378 175.838C66.8717 175.522 66.8035 175.205 66.7332 174.888L69.6621 174.239C69.7351 174.567 69.8058 174.896 69.8744 175.225L66.9378 175.838ZM64.6778 167.375C64.5769 167.067 64.4739 166.758 64.3688 166.449L67.209 165.483C67.318 165.803 67.4248 166.124 67.5295 166.444L64.6778 167.375ZM61.5019 159.172C61.4342 159.021 61.366 158.87 61.2972 158.72L64.0269 157.475C64.0981 157.631 64.1686 157.787 64.2387 157.943L61.5019 159.172ZM61.2972 158.72C61.2262 158.564 61.1561 158.408 61.0868 158.253L63.8269 157.031C63.8927 157.179 63.9594 157.327 64.0269 157.475L61.2972 158.72ZM58.3613 150.76C58.2715 150.44 58.1852 150.121 58.1026 149.803L61.0062 149.049C61.0838 149.348 61.1649 149.648 61.2494 149.948L58.3613 150.76ZM56.7605 141.946C56.7334 141.609 56.7104 141.273 56.6914 140.939L59.6866 140.769C59.7043 141.079 59.7257 141.392 59.7509 141.705L56.7605 141.946ZM57.0081 132.948C57.0545 132.613 57.1051 132.28 57.1596 131.948L60.1199 132.435C60.0694 132.742 60.0226 133.05 59.9796 133.36L57.0081 132.948ZM59.2374 124.211C59.356 123.897 59.4783 123.585 59.604 123.274L62.3844 124.401C62.2676 124.689 62.1542 124.979 62.0442 125.271L59.2374 124.211ZM63.2867 116.175C63.4667 115.894 63.6496 115.615 63.8353 115.339L66.3262 117.01C66.1526 117.269 65.9817 117.53 65.8136 117.793L63.2867 116.175ZM68.8152 109.113C69.0431 108.871 69.2732 108.631 69.5053 108.394L71.6492 110.492C71.4305 110.716 71.2138 110.941 70.9993 111.169L68.8152 109.113ZM75.4773 103.143C75.7416 102.943 76.0075 102.745 76.2746 102.55L78.043 104.973C77.7901 105.158 77.5386 105.345 77.2885 105.534L75.4773 103.143ZM83.0066 98.3317C83.2987 98.1762 83.5914 98.0237 83.8847 97.8741L85.2474 100.547C84.9698 100.688 84.6928 100.833 84.4165 100.98L83.0066 98.3317ZM91.2166 94.7903C91.5318 94.685 91.8469 94.5834 92.1616 94.4853L93.0541 97.3495C92.7587 97.4415 92.4627 97.537 92.1664 97.6359L91.2166 94.7903ZM99.9918 92.7859C100.329 92.7462 100.665 92.7113 100.999 92.6812L101.268 95.6691C100.962 95.6967 100.653 95.7288 100.343 95.7653L99.9918 92.7859ZM109.108 93.0116C109.456 93.0794 109.799 93.1547 110.138 93.2377L109.425 96.1516C109.133 96.0802 108.836 96.015 108.534 95.9561L109.108 93.0116ZM117.6 97.0842C117.865 97.3299 118.12 97.586 118.365 97.8526L116.157 99.8837C115.966 99.6753 115.766 99.4747 115.558 99.2818L117.6 97.0842ZM121.989 105.485C122.048 105.828 122.098 106.177 122.139 106.533L119.159 106.878C119.124 106.577 119.082 106.282 119.032 105.995L121.989 105.485ZM121.68 114.699C121.645 114.872 121.609 115.046 121.571 115.222L118.638 114.593C118.673 114.432 118.706 114.272 118.737 114.113L121.68 114.699ZM121.571 115.222C121.535 115.391 121.498 115.56 121.46 115.728L118.534 115.066C118.569 114.909 118.604 114.751 118.638 114.593L121.571 115.222ZM118.854 123.536C118.707 123.855 118.557 124.169 118.403 124.479L115.717 123.141C115.857 122.86 115.994 122.574 116.128 122.283L118.854 123.536ZM113.606 131.348C113.353 131.604 113.095 131.851 112.833 132.089L110.816 129.869C111.038 129.667 111.258 129.456 111.475 129.237L113.606 131.348ZM105.136 136.054C104.77 136.12 104.401 136.17 104.029 136.205L103.747 133.219C104.036 133.191 104.323 133.152 104.607 133.101L105.136 136.054ZM95.5483 134.362C95.2388 134.198 94.9295 134.023 94.6205 133.838L96.1625 131.265C96.4268 131.423 96.6896 131.571 96.9509 131.71L95.5483 134.362ZM88.2528 128.397C88.032 128.149 87.8116 127.894 87.5916 127.634L89.8845 125.699C90.0881 125.94 90.2916 126.175 90.4948 126.404L88.2528 128.397ZM82.8778 120.951C82.7082 120.668 82.5389 120.381 82.37 120.09L84.9653 118.585C85.1267 118.864 85.2883 119.138 85.4501 119.407L82.8778 120.951ZM78.6868 112.895C78.5459 112.585 78.4054 112.272 78.2653 111.955L81.0089 110.741C81.1449 111.049 81.2812 111.353 81.4177 111.653L78.6868 112.895ZM75.2817 104.503C75.2231 104.342 75.1647 104.18 75.1064 104.018L77.9299 103.004C77.987 103.163 78.0441 103.321 78.1013 103.478L75.2817 104.503ZM75.1064 104.018C75.0477 103.854 74.9896 103.691 74.932 103.528L77.7602 102.528C77.8162 102.686 77.8728 102.845 77.9299 103.004L75.1064 104.018ZM72.5298 95.7618C72.4415 95.4251 72.3558 95.09 72.2726 94.7564L75.1835 94.0308C75.2637 94.3524 75.3464 94.6756 75.4316 95.0007L72.5298 95.7618ZM70.7209 86.7255C70.6755 86.3856 70.6332 86.0475 70.5938 85.7113L73.5735 85.3624C73.611 85.6826 73.6513 86.0047 73.6945 86.3288L70.7209 86.7255ZM70.2264 77.4956C70.2381 77.1463 70.2534 76.7993 70.2725 76.4546L73.2679 76.6198C73.2501 76.9427 73.2357 77.268 73.2247 77.5958L70.2264 77.4956ZM71.5046 68.2614C71.591 67.9222 71.6816 67.5857 71.7763 67.2519L74.6624 68.0706C74.5751 68.3785 74.4915 68.689 74.4117 69.0023L71.5046 68.2614ZM74.9274 59.5405C75.0948 59.2351 75.2662 58.9327 75.4417 58.6331L78.0303 60.1493C77.8692 60.4245 77.7118 60.7022 77.5581 60.9825L74.9274 59.5405ZM80.4164 51.9591C80.6512 51.7057 80.8894 51.455 81.1311 51.2069L83.2802 53.3C83.0558 53.5304 82.8348 53.763 82.6172 53.9979L80.4164 51.9591ZM87.423 45.8393C87.7014 45.6403 87.9825 45.4435 88.2662 45.2489L89.9631 47.7229C89.6952 47.9067 89.43 48.0924 89.1675 48.2799L87.423 45.8393ZM95.3435 41.0893C95.6474 40.9359 95.9534 40.7843 96.2613 40.6345L97.5743 43.3319C97.2791 43.4756 96.986 43.6208 96.695 43.7676L95.3435 41.0893ZM103.772 37.4462C104.089 37.3288 104.408 37.2128 104.728 37.0982L105.739 39.9229C105.429 40.0339 105.12 40.1463 104.812 40.26L103.772 37.4462ZM112.48 34.6563C112.804 34.5667 113.129 34.4782 113.455 34.3908L114.231 37.2886C113.913 37.3739 113.595 37.4604 113.279 37.5478L112.48 34.6563ZM121.338 32.5231C121.504 32.4885 121.67 32.4542 121.836 32.4201L122.44 35.3588C122.276 35.3923 122.114 35.426 121.951 35.4599L121.338 32.5231Z" fill="black"/>
<path d="M202.266 190.364C201.53 189.984 200.625 190.272 200.245 191.008C199.865 191.744 200.153 192.649 200.889 193.029L202.266 190.364ZM259.041 309.267C259.043 308.438 258.373 307.765 257.544 307.764C256.716 307.762 256.043 308.432 256.041 309.26L259.041 309.267ZM256.092 301.027C256.09 301.856 256.76 302.529 257.588 302.531C258.417 302.533 259.09 301.863 259.092 301.035L256.092 301.027ZM259.094 300.001C259.094 299.172 258.422 298.501 257.594 298.501C256.766 298.5 256.094 299.172 256.094 300L259.094 300.001ZM255.987 291.804C256.01 292.632 256.701 293.285 257.529 293.261C258.357 293.237 259.009 292.546 258.985 291.718L255.987 291.804ZM258.954 290.687C258.926 289.859 258.233 289.21 257.405 289.238C256.577 289.265 255.928 289.959 255.955 290.787L258.954 290.687ZM255.523 282.617C255.584 283.443 256.303 284.063 257.13 284.002C257.956 283.94 258.576 283.221 258.515 282.395L255.523 282.617ZM258.434 281.355C258.368 280.53 257.646 279.914 256.82 279.98C255.994 280.046 255.378 280.769 255.444 281.594L258.434 281.355ZM254.599 273.481C254.705 274.303 255.458 274.882 256.279 274.776C257.101 274.669 257.68 273.917 257.574 273.095L254.599 273.481ZM257.437 272.069C257.325 271.249 256.569 270.674 255.748 270.786C254.927 270.898 254.353 271.654 254.465 272.475L257.437 272.069ZM253.138 264.434C253.296 265.247 254.084 265.778 254.897 265.619C255.71 265.461 256.241 264.673 256.082 263.86L253.138 264.434ZM255.879 262.838C255.714 262.026 254.923 261.502 254.111 261.666C253.299 261.831 252.774 262.623 252.939 263.434L255.879 262.838ZM251.071 255.514C251.287 256.314 252.111 256.787 252.911 256.57C253.71 256.354 254.183 255.53 253.967 254.731L251.071 255.514ZM253.69 253.723C253.466 252.925 252.639 252.459 251.841 252.682C251.043 252.906 250.577 253.733 250.8 254.531L253.69 253.723ZM248.339 246.789C248.618 247.569 249.477 247.974 250.257 247.695C251.037 247.416 251.443 246.557 251.163 245.777L248.339 246.789ZM250.805 244.793C250.519 244.015 249.656 243.618 248.879 243.904C248.102 244.191 247.704 245.053 247.991 245.831L250.805 244.793ZM244.893 238.333C245.24 239.086 246.13 239.415 246.883 239.069C247.636 238.723 247.965 237.832 247.619 237.079L244.893 238.333ZM247.176 236.129C246.822 235.38 245.928 235.059 245.179 235.413C244.43 235.767 244.109 236.661 244.463 237.41L247.176 236.129ZM240.703 230.233C241.118 230.95 242.036 231.195 242.753 230.78C243.47 230.365 243.715 229.448 243.3 228.731L240.703 230.233ZM242.769 227.825C242.347 227.113 241.427 226.878 240.714 227.3C240.002 227.723 239.767 228.643 240.189 229.356L242.769 227.825ZM235.761 222.579C236.244 223.252 237.182 223.406 237.855 222.923C238.528 222.44 238.682 221.502 238.198 220.829L235.761 222.579ZM237.582 219.981C237.092 219.313 236.153 219.17 235.485 219.66C234.818 220.151 234.674 221.09 235.165 221.757L237.582 219.981ZM230.087 215.453C230.635 216.074 231.583 216.134 232.204 215.586C232.826 215.038 232.886 214.09 232.338 213.469L230.087 215.453ZM231.642 212.689C231.088 212.073 230.139 212.024 229.524 212.579C228.909 213.133 228.859 214.082 229.414 214.697L231.642 212.689ZM223.726 208.921C224.332 209.485 225.281 209.45 225.846 208.844C226.41 208.237 226.376 207.288 225.769 206.724L223.726 208.921ZM225.006 206.021C224.393 205.464 223.444 205.508 222.887 206.121C222.329 206.733 222.373 207.682 222.986 208.24L225.006 206.021ZM216.763 203.042C217.42 203.546 218.362 203.421 218.866 202.764C219.369 202.106 219.245 201.164 218.587 200.661L216.763 203.042ZM217.744 200.022C217.082 199.525 216.141 199.659 215.644 200.322C215.147 200.985 215.282 201.925 215.945 202.422L217.744 200.022ZM209.283 197.832C209.983 198.275 210.91 198.066 211.353 197.366C211.796 196.666 211.587 195.739 210.887 195.296L209.283 197.832ZM210.003 194.743C209.299 194.307 208.374 194.524 207.938 195.228C207.502 195.932 207.719 196.857 208.423 197.293L210.003 194.743ZM201.348 193.267C202.083 193.651 202.989 193.366 203.372 192.632C203.755 191.897 203.471 190.991 202.736 190.608L201.348 193.267ZM259.041 309.759C259.041 309.597 259.041 309.433 259.041 309.267L256.041 309.26C256.041 309.428 256.041 309.595 256.041 309.759L259.041 309.759ZM259.092 301.035C259.093 300.694 259.094 300.349 259.094 300.001L256.094 300C256.094 300.346 256.093 300.689 256.092 301.027L259.092 301.035ZM258.985 291.718C258.976 291.377 258.965 291.033 258.954 290.687L255.955 290.787C255.966 291.128 255.977 291.467 255.987 291.804L258.985 291.718ZM258.515 282.395C258.489 282.05 258.462 281.703 258.434 281.355L255.444 281.594C255.471 281.937 255.498 282.277 255.523 282.617L258.515 282.395ZM257.574 273.095C257.529 272.754 257.484 272.412 257.437 272.069L254.465 272.475C254.511 272.811 254.555 273.147 254.599 273.481L257.574 273.095ZM256.082 263.86C256.016 263.52 255.948 263.179 255.879 262.838L252.939 263.434C253.007 263.768 253.073 264.101 253.138 264.434L256.082 263.86ZM253.967 254.731C253.876 254.395 253.784 254.059 253.69 253.723L250.8 254.531C250.892 254.859 250.982 255.187 251.071 255.514L253.967 254.731ZM251.163 245.777C251.046 245.449 250.926 245.121 250.805 244.793L247.991 245.831C248.109 246.15 248.225 246.469 248.339 246.789L251.163 245.777ZM247.619 237.079C247.473 236.762 247.325 236.445 247.176 236.129L244.463 237.41C244.608 237.717 244.752 238.025 244.893 238.333L247.619 237.079ZM243.3 228.731C243.125 228.428 242.948 228.127 242.769 227.825L240.189 229.356C240.362 229.648 240.534 229.94 240.703 230.233L243.3 228.731ZM238.198 220.829C237.995 220.546 237.79 220.263 237.582 219.981L235.165 221.757C235.365 222.03 235.564 222.304 235.761 222.579L238.198 220.829ZM232.338 213.469C232.108 213.208 231.876 212.948 231.642 212.689L229.414 214.697C229.64 214.948 229.865 215.2 230.087 215.453L232.338 213.469ZM225.769 206.724C225.516 206.489 225.262 206.255 225.006 206.021L222.986 208.24C223.234 208.466 223.481 208.693 223.726 208.921L225.769 206.724ZM218.587 200.661C218.308 200.447 218.027 200.234 217.744 200.022L215.945 202.422C216.219 202.628 216.492 202.834 216.763 203.042L218.587 200.661ZM210.887 195.296C210.594 195.111 210.299 194.927 210.003 194.743L208.423 197.293C208.712 197.472 208.998 197.651 209.283 197.832L210.887 195.296ZM202.736 190.608C202.58 190.526 202.423 190.445 202.266 190.364L200.889 193.029C201.043 193.108 201.196 193.188 201.348 193.267L202.736 190.608Z" fill="black"/>
<path d="M162.276 160.747L173.383 208.074C173.602 209.007 173.023 209.941 172.09 210.16L136.599 218.478C135.974 218.624 135.348 218.413 134.937 217.976C135.886 218.987 136.999 219.605 138.095 220.072C138.422 220.211 138.784 220.237 139.129 220.156L174.708 211.818C175.641 211.6 176.22 210.665 176.001 209.732L164.977 162.759C164.874 162.321 164.606 161.944 164.235 161.701C164.102 161.614 163.962 161.537 163.834 161.441L161.332 159.576C161.791 159.796 162.15 160.213 162.276 160.747Z" fill="black"/>
<path d="M134.937 217.976C135.348 218.413 135.974 218.624 136.599 218.478L172.09 210.16C173.023 209.941 173.602 209.007 173.383 208.074L162.276 160.747C162.15 160.213 161.791 159.796 161.332 159.576M134.937 217.976C134.735 217.761 134.584 217.492 134.512 217.183L123.405 169.857C123.185 168.923 123.764 167.989 124.698 167.77L160.189 159.453C160.589 159.359 160.989 159.412 161.332 159.576M134.937 217.976C135.886 218.987 136.999 219.605 138.095 220.072C138.422 220.211 138.784 220.237 139.129 220.156L174.708 211.818C175.641 211.6 176.22 210.665 176.001 209.732L164.977 162.759C164.874 162.321 164.606 161.944 164.235 161.701C164.102 161.614 163.962 161.537 163.834 161.441L161.332 159.576" stroke="black" stroke-width="0.596077"/>
<rect x="0.358275" y="0.22215" width="32.3849" height="9.82091" rx="2.08627" transform="matrix(0.973621 -0.228172 0.228488 0.973547 127.142 170.841)" stroke="black" stroke-width="0.596077"/>
<rect x="0.358275" y="0.22215" width="6.34728" height="6.34858" rx="2.08627" transform="matrix(0.973621 -0.228172 0.228488 0.973547 129.92 182.672)" stroke="black" stroke-width="0.596077"/>
<rect x="0.358275" y="0.22215" width="6.34728" height="6.34858" rx="2.08627" transform="matrix(0.973621 -0.228172 0.228488 0.973547 133.884 199.576)" stroke="black" stroke-width="0.596077"/>
<rect x="0.358275" y="0.22215" width="6.34728" height="6.34858" rx="2.08627" transform="matrix(0.973621 -0.228172 0.228488 0.973547 131.9 191.125)" stroke="black" stroke-width="0.596077"/>
<rect x="0.358275" y="0.22215" width="6.34728" height="6.34858" rx="2.08627" transform="matrix(0.973621 -0.228172 0.228488 0.973547 135.869 208.026)" stroke="black" stroke-width="0.596077"/>
<rect x="0.358275" y="0.22215" width="6.34728" height="6.34858" rx="2.08627" transform="matrix(0.973621 -0.228172 0.228488 0.973547 146.818 178.712)" stroke="black" stroke-width="0.596077"/>
<rect x="0.358275" y="0.22215" width="6.34728" height="6.34858" rx="2.08627" transform="matrix(0.973621 -0.228172 0.228488 0.973547 150.787 195.613)" stroke="black" stroke-width="0.596077"/>
<rect x="0.358275" y="0.22215" width="6.34728" height="6.34858" rx="2.08627" transform="matrix(0.973621 -0.228172 0.228488 0.973547 148.802 187.163)" stroke="black" stroke-width="0.596077"/>
<rect x="0.358275" y="0.22215" width="6.34728" height="6.34858" rx="2.08627" transform="matrix(0.973621 -0.228172 0.228488 0.973547 152.767 204.066)" stroke="black" stroke-width="0.596077"/>
<rect x="0.358275" y="0.22215" width="6.34728" height="6.34858" rx="2.08627" transform="matrix(0.973621 -0.228172 0.228488 0.973547 138.365 180.694)" stroke="black" stroke-width="0.596077"/>
<rect x="0.358275" y="0.22215" width="6.34728" height="6.34858" rx="2.08627" transform="matrix(0.973621 -0.228172 0.228488 0.973547 142.334 197.594)" stroke="black" stroke-width="0.596077"/>
<rect x="0.358275" y="0.22215" width="6.34728" height="6.34858" rx="2.08627" transform="matrix(0.973621 -0.228172 0.228488 0.973547 140.349 189.144)" stroke="black" stroke-width="0.596077"/>
<rect x="0.358275" y="0.22215" width="6.34728" height="6.34858" rx="2.08627" transform="matrix(0.973621 -0.228172 0.228488 0.973547 144.318 206.045)" stroke="black" stroke-width="0.596077"/>
<rect x="0.358275" y="0.22215" width="6.34728" height="6.34858" rx="2.08627" transform="matrix(0.973621 -0.228172 0.228488 0.973547 155.267 176.734)" stroke="black" stroke-width="0.596077"/>
<rect x="0.358275" y="0.22215" width="6.34728" height="6.34858" rx="2.08627" transform="matrix(0.973621 -0.228172 0.228488 0.973547 157.252 185.184)" stroke="black" stroke-width="0.596077"/>
<rect x="0.358275" y="0.22215" width="6.34728" height="14.9505" rx="2.08627" transform="matrix(0.973621 -0.228172 0.228488 0.973547 159.252 193.712)" fill="black" stroke="black" stroke-width="0.596077"/>
<path d="M201.32 130.732L244.033 148.586L245.133 149.046C245.133 149.046 247.986 151.194 250.025 146.316C252.064 141.437 248.532 140.916 248.532 140.916L247.431 140.456L204.718 122.601L196.542 122.516L193.001 122.479L195.241 124.701L201.32 130.732Z" fill="#F9F5F0"/>
<path d="M193.001 122.479L195.241 124.701C195.241 124.701 195.672 124.751 196.137 123.95C196.601 123.148 196.542 122.516 196.542 122.516L193.001 122.479Z" fill="black"/>
<path d="M247.431 140.456L244.033 148.586L245.133 149.046L248.532 140.916L247.431 140.456Z" fill="black"/>
<path d="M244.033 148.586L201.32 130.732M244.033 148.586L247.431 140.456M244.033 148.586L245.133 149.046M201.32 130.732L195.241 124.701M201.32 130.732C201.32 130.732 201.705 130.526 202.111 129.988C202.314 129.719 202.329 129.286 202.579 128.87C202.739 128.603 203.125 128.397 203.293 128.067C203.459 127.739 203.406 127.288 203.569 126.896C203.721 126.535 204.07 126.283 204.181 125.958C204.311 125.576 204.195 125.129 204.278 124.805C204.385 124.386 204.678 124.11 204.728 123.799C204.844 123.061 204.718 122.601 204.718 122.601M204.718 122.601L247.431 140.456M204.718 122.601L196.542 122.516M247.431 140.456L248.532 140.916M245.133 149.046L248.532 140.916M245.133 149.046C245.133 149.046 247.986 151.194 250.025 146.316C252.064 141.437 248.532 140.916 248.532 140.916M243.857 145.054L223.987 136.748L204.116 128.442M245.075 142.93L225.204 134.624L205.334 126.318M195.241 124.701L193.001 122.479L196.542 122.516M195.241 124.701C195.241 124.701 195.672 124.751 196.137 123.95C196.601 123.148 196.542 122.516 196.542 122.516" stroke="black" stroke-width="0.7"/>
<path d="M8.89122 24.1692C12.5823 24.769 23.2083 28.6872 28.829 31.5047C31.9557 33.0604 36.5622 36.0194 38.9361 37.9873C40.7134 39.4633 43.3503 42.0486 43.8866 42.8503C44.4355 43.7014 44.4994 44.1095 44.0795 44.2725C43.1532 44.6362 41.1348 49.2379 40.2873 52.9055C39.6213 55.7677 39.2451 59.6308 39.2644 63.393C39.275 65.4597 39.2751 65.472 38.9667 65.6716C38.6213 65.8962 38.6338 65.9085 36.9206 64.8777C35.6048 64.0924 23.4952 58.078 20.9772 56.9647C15.0234 54.3345 6.81534 51.3446 2.65175 50.3016C0.743465 49.8287 0.457879 49.6446 0.454197 48.9268C0.452738 48.6421 0.500019 48.2088 0.573065 47.9732C0.633736 47.7378 0.849451 46.363 1.05253 44.9387C1.25555 43.5021 1.55541 41.6442 1.72429 40.7894C1.88079 39.9347 2.01286 39.142 2.01286 39.142C2.0126 39.0925 2.01286 39.0265 2.01286 39.0265L2.04785 38.9274L2.0833 38.837C2.0833 38.837 2.0833 38.7308 2.18227 38.5076L2.29165 38.002L2.86378 36.1427C4.23935 31.6804 6.90151 24.7116 7.40662 24.2634C7.66536 24.0393 7.94993 24.0255 8.89122 24.1692ZM7.42997 26.4043C5.79211 30.3977 3.36431 37.2168 3.36748 37.8356C3.36831 37.9965 3.92539 38.0307 7.58889 38.0862C9.91572 38.1238 11.8463 38.1262 11.8709 38.089C11.9817 37.977 9.95887 29.6462 9.38021 27.8175C8.29867 24.4569 8.24897 24.42 7.42997 26.4043ZM10.2317 27.3429C10.5714 28.4178 11.2907 31.1244 11.8219 33.3617C12.8847 37.8858 13.3374 38.9613 14.015 40.7894C14.9936 43.3833 17.2549 46.5194 17.2549 46.5194C17.2549 46.5194 18.2644 47.9732 20.3668 47.1012C28.5347 44.6708 37.6645 43.4144 41.4018 43.3828L43.0971 43.3618L42.8728 43.0535C42.5238 42.5727 39.564 39.7662 38.3211 38.733C35.8106 36.6667 31.3656 33.8431 27.9785 32.1774C23.636 30.0339 16.1833 27.1267 12.081 25.9597C10.098 25.4006 9.70146 25.3036 9.63984 25.3534C9.61515 25.3659 9.87961 26.2556 10.2317 27.3429ZM2.77379 40.3138C2.64127 41.0199 2.38888 42.4815 2.22121 43.5714C2.05354 44.6613 1.81416 46.2466 1.68241 47.1012C1.55066 47.9559 1.44328 48.7361 1.44379 48.8351C1.44449 48.9712 1.82888 49.1177 2.83262 49.3725C7.0209 50.4029 14.5221 53.1119 21.1578 55.9738C23.4772 56.9767 34.7925 62.562 36.7784 63.6904C37.5603 64.1319 38.2181 64.4874 38.2304 64.4873C38.2428 64.4873 38.287 63.4475 38.3175 62.1602C38.3605 60.8853 38.4743 58.9418 38.5676 57.8398L38.7553 55.8216L37.8955 54.6875C33.9706 49.5098 31.7517 46.3777 31.7499 46.0189C31.7493 45.9199 31.6747 45.8336 31.5756 45.8341C31.2044 45.836 25.3339 47.3883 22.2322 48.2953C17.4501 49.7059 17.2892 49.7191 16.5787 48.7203C15.4817 47.179 13.354 42.5243 12.4609 39.7072L12.2345 39.0029L7.63084 39.0265L3.03957 39.0501L2.77379 40.3138ZM37.8563 44.6262C35.4204 45.0347 32.5891 45.569 32.5275 45.6312C32.4414 45.7183 34.5732 48.7642 36.0308 50.6378C36.7908 51.624 37.7501 52.8814 38.1491 53.4486C38.5603 54.0034 38.9091 54.4348 38.9337 54.4099C38.9583 54.385 39.1159 53.7407 39.2852 52.9725C39.8659 50.3706 41.4047 46.3654 42.4241 44.8503C42.6698 44.4901 42.7185 44.3414 42.5943 44.2554C42.3583 44.0833 39.9831 44.2688 37.8563 44.6262Z" fill="black"/>
<path d="M174.591 5.22042C160.664 8.0259 149.152 10.3421 149.009 10.3429C148.866 10.3436 148.708 10.4557 148.66 10.5672C148.613 10.6946 149.073 16.6372 149.682 23.7712L150.782 36.7365L150.836 37.0653L150.924 37.5428C150.965 37.7332 150.965 38.4522 151.109 38.5787C151.364 38.7999 153.731 38.4063 175.091 34.6884C188.162 32.4119 198.897 30.4811 199.008 30.3693C199.23 30.1456 199.276 29.9387 199.521 28.1413C199.613 27.4255 199.782 26.3596 199.907 25.7708C200.62 22.2542 200.893 19.7254 201.06 15.083C201.269 9.439 201.274 7.22948 201.065 3.7494C200.909 1.09563 200.681 0.174848 200.156 0.113956C200.029 0.0987127 188.517 2.39905 174.591 5.22042ZM198.592 1.93409C198.498 2.09353 197.803 3.03493 197.045 4.00846C190.839 12.004 188.613 14.9561 187.682 16.3438C187.177 17.0935 186.214 18.4178 185.535 19.2955C184.856 20.1733 184.478 20.5641 183.489 21.6237C182.405 22.5749 182.361 22.6762 181.006 23.311C179.391 23.4398 176.349 22.6489 173.083 21.1397C172.159 20.7153 169.865 19.7574 167.985 18.9881C166.105 18.2348 162.919 16.8046 160.895 15.8136C158.887 14.8384 155.749 13.4238 153.917 12.702C152.101 11.9643 150.699 11.3356 150.81 11.3033C151.143 11.1903 198.146 1.69794 198.464 1.68041C198.686 1.66338 198.718 1.7268 198.592 1.93409ZM199.98 9.04823C199.846 17.0603 199.583 21.6396 199.235 21.9911C199.077 22.135 197.294 21.4924 194.936 20.4236C192.45 19.276 188.641 17.2926 188.64 17.1337C188.64 17.086 189.318 16.1447 190.139 15.0596C190.976 13.9585 192.476 11.9479 193.502 10.5915C196.439 6.68204 198.871 3.53812 199.329 3.01121L199.756 2.53215L199.906 3.96199C199.974 4.74053 200.017 7.02929 199.98 9.04823ZM154.083 14.0364C155.994 14.8373 159.022 16.2365 160.822 17.1333C162.623 18.046 165.396 19.2875 166.988 19.9311C170.333 21.2492 170.236 20.9159 167.765 22.5976C165.785 23.943 156.366 31.5735 153.17 34.4511C152.205 35.2985 151.856 35.5388 151.855 35.3321C151.854 35.1573 151.431 30.1523 150.924 24.1941C150.416 18.2199 149.993 13.1672 149.992 12.9606C149.991 12.6745 150.069 12.5628 150.292 12.5617C150.467 12.5608 152.171 13.2197 154.083 14.0364ZM189.253 18.8632C191.278 20.0291 196.377 22.4508 197.698 22.8733C199.179 23.3584 199.115 23.2316 198.775 25.109C198.635 25.8091 198.435 27.05 198.312 27.8772C198.189 28.6885 198.081 29.3885 198.049 29.4046C198.018 29.4365 187.774 31.2376 175.291 33.3998C162.793 35.5781 152.375 37.3959 152.105 37.445L151.628 37.5428L152.261 36.8719C153.763 35.2906 165.84 25.421 168.787 23.403C169.8 22.6984 170.75 22.01 170.893 21.8821C171.146 21.6424 171.337 21.705 173.042 22.5069C174.078 22.9785 175.814 23.7644 176.914 24.2356C178.013 24.7068 179.463 25.3511 180.148 25.6655C181.629 26.3414 182.122 26.3866 182.326 25.8451C182.577 25.1762 187.787 18.2508 188.042 18.2495C188.121 18.249 188.679 18.5164 189.253 18.8632Z" fill="black"/>
</svg>
