<svg width="450" height="451" viewBox="0 0 450 451" fill="none" xmlns="http://www.w3.org/2000/svg">
<path d="M380.708 205.36C391.12 216.421 387.353 259.063 385.628 260.855C385.195 261.304 382.128 263.07 377.742 264.143C376.933 264.341 376.079 264.515 375.189 264.653C370.145 265.435 368.769 267.018 357.742 267.042C353.978 267.051 352.462 267.152 349.857 267.225C344.83 267.366 340.031 267.553 337.225 267.829C336.2 267.93 335.393 268.002 334.852 268.043C323.785 268.868 311.245 267.639 290.312 261.071C279.303 258.587 272.992 255.418 270.269 252.491C263.466 251.767 244.189 248.033 242.558 239.76C241.079 232.252 263.302 230.67 267.6 229.997C268.042 214.824 270.618 196.995 275.237 190.819C277.639 187.607 291.64 183.824 297.964 183.353C304.288 182.881 311.627 180.28 329.922 180.285C348.217 180.291 370.295 194.298 380.708 205.36Z" fill="white"/>
<path d="M334.852 268.043C336.683 253.231 336.474 226.443 334.722 208.181C333.319 193.572 331.95 185.067 329.922 180.285M334.852 268.043C323.785 268.868 311.245 267.639 290.312 261.071M334.852 268.043C335.393 268.002 336.2 267.93 337.225 267.829M329.922 180.285C348.217 180.291 370.296 194.298 380.708 205.36C391.12 216.421 387.353 259.063 385.628 260.855C385.195 261.304 382.128 263.07 377.742 264.143M329.922 180.285C311.627 180.28 304.288 182.881 297.964 183.353C291.64 183.824 277.639 187.607 275.237 190.819C270.618 196.995 268.042 214.824 267.6 229.997M329.922 180.285C321.997 182.898 303.541 193.252 300.315 203.295C296.332 215.695 291.601 246.178 290.312 261.071M329.922 180.285C343.856 187.056 362.771 198.571 369.286 209.925C375.337 220.469 378.365 251.81 377.742 264.143M290.312 261.071C279.303 258.587 272.992 255.418 270.269 252.491M270.269 252.491C269.426 251.585 268.927 250.703 268.738 249.871C267.739 245.464 267.365 238.11 267.6 229.997M270.269 252.491C263.466 251.767 244.189 248.033 242.558 239.76C241.079 232.252 263.302 230.67 267.6 229.997M337.225 267.829C337.592 264.118 338.434 259.119 339.863 254.12M337.225 267.829C340.031 267.553 344.83 267.366 349.857 267.225M375.189 264.653C375.363 261.195 375.239 256.084 374.611 252.723M375.189 264.653C370.145 265.435 368.769 267.018 357.742 267.042C353.978 267.051 352.462 267.152 349.857 267.225M375.189 264.653C376.079 264.515 376.933 264.341 377.742 264.143M374.611 252.723C372.685 242.425 366.762 233.813 355.449 234.429C347.547 234.86 342.616 244.49 339.863 254.12M374.611 252.723C371.297 253.343 363.092 254.662 356.775 254.973C354.23 255.099 351.478 255.052 348.902 254.924M339.863 254.12C341.658 254.367 345.086 254.734 348.902 254.924M348.902 254.924C345.738 255.204 340.906 257.315 340.707 261.251C340.509 265.178 344.358 266.948 349.857 267.225" stroke="black" stroke-width="1.1231" stroke-linejoin="round"/>
<path d="M374.611 252.723C372.685 242.425 366.762 233.813 355.45 234.429C347.548 234.86 342.617 244.49 339.864 254.12C341.658 254.367 345.087 254.734 348.903 254.924C351.478 255.052 354.231 255.099 356.776 254.973C363.092 254.662 371.298 253.343 374.611 252.723Z" fill="black"/>
<path d="M335.962 180.425C335.891 181.116 335.293 181.811 334.116 182.306C332.961 182.791 331.372 183.02 329.629 182.842C327.887 182.664 326.376 182.12 325.343 181.411C324.289 180.689 323.845 179.887 323.915 179.196C323.986 178.505 324.583 177.809 325.761 177.315C326.916 176.829 328.505 176.601 330.248 176.779C331.99 176.957 333.5 177.501 334.534 178.21C335.587 178.932 336.032 179.734 335.962 180.425Z" fill="white" stroke="black" stroke-width="1.1231"/>
<circle r="1.4104" transform="matrix(-0.99873 -0.0503824 -0.0503824 0.99873 370.102 259.42)" fill="black"/>
<circle r="1.4104" transform="matrix(-0.99873 -0.0503824 -0.0503824 0.99873 364.399 260.545)" fill="black"/>
<circle r="1.4104" transform="matrix(-0.99873 -0.0503824 -0.0503824 0.99873 358.727 260.964)" fill="black"/>
<circle r="1.4104" transform="matrix(-0.99873 -0.0503824 -0.0503824 0.99873 352.352 261.348)" fill="black"/>
<circle r="1.4104" transform="matrix(-0.99873 -0.0503824 -0.0503824 0.99873 346.38 261.373)" fill="black"/>
<path d="M330.336 211.734C329.489 211.646 328.67 211.629 327.879 211.681C327.113 211.732 326.188 211.926 325.104 212.262C324.845 213.795 324.763 215.279 324.858 216.716C325.105 220.428 326.947 223.168 330.383 224.936C332.49 223.329 334.356 221.377 335.984 219.08C336.119 220.033 336.276 221.49 336.454 223.451C334.774 224.957 333.039 226.167 331.247 227.08C329.456 227.992 327.183 228.54 324.429 228.723L323.603 228.778C321.386 227.987 319.594 226.723 318.228 224.986C316.886 223.247 316.148 221.372 316.014 219.36C315.836 216.678 316.787 214.33 318.866 212.316C320.943 210.278 324.077 209.119 328.268 208.841C330.615 208.685 333.089 208.821 335.691 209.25C335.409 210.784 335.024 212.241 334.539 213.62C333.039 213.864 331.488 214.039 329.883 214.146C330.078 213.459 330.229 212.655 330.336 211.734ZM352.504 215.313L355.895 215.304C356.231 215.282 356.481 215.253 356.647 215.218L355.169 218.491L354.846 218.513C354.391 218.543 353.736 218.466 352.882 218.283C352.026 218.075 351.419 217.983 351.06 218.007C350.078 218.072 349.342 218.758 348.851 220.066C348.833 221.245 348.84 222.424 348.87 223.6C350.131 223.757 351.121 223.811 351.839 223.764L352.162 223.742C353.192 223.674 353.991 223.392 354.56 222.898C355.152 222.401 355.541 221.558 355.726 220.367L360.049 220.26C359.826 222.343 359.465 224.147 358.965 225.672L341.328 226.843C340.634 223.642 340.182 220.449 339.97 217.264C339.759 214.079 339.742 211.29 339.919 208.897L359.173 207.618C358.914 210.233 358.652 212.079 358.386 213.154C356.978 213.32 355.688 213.454 354.516 213.556C354.671 212.992 354.733 212.471 354.701 211.992C354.625 210.843 353.724 210.325 352 210.44C351.354 210.483 350.64 210.602 349.859 210.798C349.484 213.108 349.209 215.135 349.036 216.878C349.936 215.929 351.091 215.407 352.504 215.313ZM367.18 225.018C364.868 222.429 363.616 219.698 363.425 216.825C363.234 213.951 364.27 211.441 366.533 209.294C368.795 207.147 371.795 205.95 375.53 205.702C377.518 205.57 379.514 205.738 381.517 206.206C383.386 208.271 384.403 210.549 384.569 213.039C384.777 216.176 383.677 218.991 381.269 221.484C378.861 223.977 375.837 225.345 372.197 225.587C370.64 225.69 368.968 225.5 367.18 225.018ZM371.607 209.101C370.864 210.594 370.557 212.31 370.686 214.25C370.815 216.189 371.353 217.958 372.301 219.554C373.272 221.126 374.523 222.221 376.055 222.841C377.085 221.329 377.538 219.628 377.412 217.736C377.286 215.844 376.702 214.115 375.66 212.548C374.642 210.98 373.291 209.831 371.607 209.101Z" fill="black"/>
<path d="M190.12 156.002C194.303 148.023 165.555 132.974 150.658 126.447C155.338 111.719 166.82 83.9461 166.35 80.7721C165.763 76.8046 155.24 66.823 149.9 63.4033C144.559 59.9837 139.338 54.2072 123.237 45.5193C107.136 36.8314 81.0542 38.6659 66.6366 43.4516C52.219 48.2372 35.2721 87.5482 35.9388 89.9446C36.6055 92.3409 53.3331 104.211 58.6736 107.63C62.946 110.366 87.6821 120.645 99.5161 125.442C100.222 127.053 104.738 131.218 110.903 133.892C117.069 136.566 162.466 157.758 169.457 159.685C176.448 161.613 184.891 165.977 190.12 156.002Z" fill="white"/>
<path d="M150.658 126.447C165.555 132.974 194.303 148.023 190.12 156.002C184.891 165.977 176.448 161.613 169.457 159.685C162.466 157.758 117.069 136.566 110.903 133.892C104.738 131.218 100.222 127.053 99.5161 125.442M150.658 126.447C151.888 128.084 151.88 133.439 148.611 135.794C145.683 137.904 127.712 133.593 113.482 129.606M150.658 126.447C155.338 111.719 166.82 83.9461 166.35 80.7721C165.763 76.8046 155.24 66.823 149.9 63.4033C144.559 59.9837 139.338 54.2072 123.237 45.5193M99.5161 125.442C87.6821 120.645 62.946 110.366 58.6736 107.63M99.5161 125.442C102.811 126.501 107.854 128.028 113.482 129.606M58.6736 107.63C53.3331 104.211 36.6055 92.3409 35.9388 89.9446C35.2721 87.5482 52.219 48.2372 66.6366 43.4516C81.0542 38.6659 107.136 36.8314 123.237 45.5193M58.6736 107.63C64.1003 93.7279 76.9538 73.112 87.1732 57.8762C95.3488 45.6876 114.622 44.5597 123.237 45.5193M123.237 45.5193C128.969 51.584 139.521 66.1875 135.871 76.0842C132.222 85.981 119.425 115.889 113.482 129.606" stroke="black" stroke-width="1.1231" stroke-linejoin="round"/>
<path d="M119.126 40.9377C118.795 41.5484 118.897 42.4597 119.591 43.5318C120.271 44.5837 121.456 45.6679 122.995 46.5031C124.535 47.3382 126.089 47.7396 127.342 47.7366C128.619 47.7337 129.439 47.322 129.77 46.7114C130.101 46.1007 130 45.1894 129.306 44.1173C128.625 43.0654 127.441 41.9812 125.901 41.146C124.361 40.3109 122.807 39.9096 121.554 39.9125C120.277 39.9154 119.457 40.3271 119.126 40.9377Z" fill="white" stroke="black" stroke-width="1.1231"/>
<mask id="mask0_9496_69170" style="mask-type:alpha" maskUnits="userSpaceOnUse" x="37" y="51" width="74" height="49">
<path d="M58.5226 60.9016C57.7683 60.4066 57.007 59.9916 56.2384 59.6567C55.4932 59.3319 54.5291 59.0641 53.3462 58.8534C52.3574 60.1684 51.5585 61.5245 50.9496 62.9218C49.3763 66.5316 49.7754 70.0033 52.1468 73.3369C54.9085 72.8501 57.6129 71.9226 60.2599 70.5544C59.9238 71.5164 59.3628 72.9624 58.5771 74.8924C56.2651 75.492 54.045 75.7853 51.9168 75.7723C49.7886 75.7593 47.3854 75.1692 44.7072 74.002L43.9037 73.6518C42.2036 71.8301 41.1337 69.7703 40.6941 67.4726C40.2778 65.185 40.4959 63.0631 41.3485 61.1068C42.4852 58.4985 44.5208 56.753 47.455 55.8702C50.3994 54.9642 53.9094 55.3993 57.9849 57.1755C60.2672 58.1702 62.5274 59.5017 64.7656 61.1699C63.7535 62.4747 62.6838 63.6574 61.5565 64.718C60.0284 64.2183 58.4842 63.6284 56.9239 62.9483C57.4409 62.3978 57.9738 61.7155 58.5226 60.9016ZM77.3264 75.5399L80.5537 77.1959C80.8565 77.3278 81.0944 77.4177 81.2676 77.4654L78.286 79.824L77.9716 79.687C77.5291 79.4941 76.9511 79.1036 76.2374 78.5155C75.534 77.9041 75.0076 77.5222 74.6583 77.37C73.75 76.9741 72.7576 77.2483 71.681 78.1924C70.986 79.4691 70.4711 80.4917 70.1361 81.2603C69.8012 82.0288 69.4641 82.8657 69.125 83.771L61.5445 80.4672C62.4012 77.2934 63.5198 74.1229 64.9002 70.9556C66.2907 67.765 67.6463 65.0997 68.967 62.9595L87.6213 71.0895C86.1059 73.422 84.967 75.0179 84.2045 75.8772L80.3556 74.4076C80.819 73.9167 81.142 73.4617 81.3247 73.0425C81.8119 71.9246 81.2054 70.9952 79.5054 70.2543C78.7601 69.9295 78.0477 69.6883 77.3682 69.5307C75.9525 71.3801 74.6097 73.3167 73.3397 75.3404C74.6468 74.8847 75.9757 74.9512 77.3264 75.5399ZM84.8955 90.5195C83.9799 86.9612 84.1311 83.7848 85.3491 80.9901C86.567 78.1955 88.7617 76.3391 91.933 75.4212C95.1043 74.5032 98.5065 74.8359 102.14 76.4193C104.072 77.2617 105.867 78.3902 107.523 79.8047C108.276 82.6547 108.125 85.2908 107.069 87.7128C105.74 90.7636 103.337 92.8755 99.8601 94.0485C96.3837 95.2215 92.8755 95.0366 89.3357 93.4938C87.8219 92.8341 86.3418 91.8426 84.8955 90.5195ZM96.7977 77.7076C95.3736 78.7497 94.2504 80.2139 93.4283 82.1003C92.6062 83.9867 92.2525 85.911 92.3673 87.8731C92.5155 89.8221 93.1593 91.4606 94.2987 92.7886C96.0022 91.8683 97.2549 90.4883 98.0568 88.6485C98.8586 86.8086 99.1505 84.899 98.9324 82.9195C98.7376 80.9502 98.0261 79.2129 96.7977 77.7076Z" fill="black"/>
</mask>
<g mask="url(#mask0_9496_69170)">
<path d="M157.471 131.712C160.659 125.631 138.749 114.161 127.395 109.187C130.963 97.9625 139.713 76.7957 139.355 74.3767C138.907 71.353 130.888 63.7456 126.818 61.1394C122.748 58.5331 118.768 54.1307 106.497 47.5094C94.2264 40.8881 74.3483 42.2862 63.3601 45.9335C52.372 49.5808 39.4562 79.541 39.9643 81.3673C40.4724 83.1937 53.2211 92.24 57.2913 94.8463C60.5474 96.9313 79.3996 104.765 88.4187 108.421C88.957 109.649 92.3982 112.823 97.0973 114.861C101.796 116.899 136.395 133.05 141.723 134.519C147.051 135.988 153.486 139.314 157.471 131.712Z" fill="black"/>
</g>
<path d="M76.7008 306.696C65.2282 316.653 64.6846 359.458 66.2208 361.415C66.6059 361.905 69.4797 363.971 73.7354 365.479C74.5205 365.758 75.3526 366.017 76.2248 366.244C81.1641 367.529 82.3741 369.243 93.3428 370.377C97.0868 370.764 98.585 371.018 101.169 371.352C106.156 371.998 110.912 372.667 113.676 373.224C114.686 373.428 115.481 373.581 116.015 373.676C126.944 375.611 139.543 375.65 161.031 371.221C172.234 369.858 178.832 367.34 181.836 364.702C188.678 364.666 208.232 362.892 210.687 354.825C212.914 347.504 190.963 343.694 186.754 342.592C187.842 327.451 187.073 309.453 183.1 302.844C181.033 299.407 167.484 294.234 161.239 293.128C154.995 292.023 147.955 288.695 129.752 286.86C111.549 285.024 88.1733 296.739 76.7008 306.696Z" fill="white"/>
<path d="M116.015 373.676C115.685 358.755 118.588 332.124 122.169 314.131C125.035 299.737 127.253 291.414 129.752 286.86M116.015 373.676C126.944 375.611 139.543 375.65 161.031 371.221M116.015 373.676C115.481 373.581 114.686 373.428 113.676 373.224M129.752 286.86C111.549 285.024 88.1734 296.739 76.7008 306.696C65.2282 316.653 64.6846 359.458 66.2208 361.415C66.6059 361.905 69.4797 363.971 73.7354 365.479M129.752 286.86C147.955 288.695 154.995 292.023 161.239 293.128C167.484 294.234 181.033 299.407 183.1 302.844C187.073 309.453 187.842 327.451 186.754 342.592M129.752 286.86C137.374 290.257 154.694 302.416 156.893 312.733C159.608 325.471 161.247 356.274 161.031 371.221M129.752 286.86C115.207 292.194 95.2298 301.747 87.6049 312.388C80.5239 322.269 74.3575 353.146 73.7354 365.479M161.031 371.221C172.234 369.858 178.832 367.34 181.836 364.702M181.836 364.702C182.766 363.886 183.351 363.059 183.622 362.25C185.06 357.965 186.173 350.687 186.754 342.592M181.836 364.702C188.678 364.666 208.232 362.892 210.687 354.825C212.914 347.504 190.963 343.694 186.754 342.592M113.676 373.224C113.685 369.495 113.35 364.437 112.431 359.319M113.676 373.224C110.912 372.667 106.156 371.998 101.169 371.352M76.2248 366.244C76.3993 362.786 77.0367 357.713 78.0003 354.432M76.2248 366.244C81.1641 367.529 82.3741 369.243 93.3428 370.377C97.0868 370.764 98.585 371.018 101.169 371.352M76.2248 366.244C75.3526 366.017 74.5205 365.758 73.7354 365.479M78.0003 354.432C80.953 344.38 87.7125 336.408 98.9059 338.16C106.724 339.384 110.661 349.461 112.431 359.319M78.0003 354.432C81.2345 355.383 89.266 357.521 95.5188 358.466C98.0386 358.847 100.782 359.077 103.357 359.209M112.431 359.319C110.621 359.385 107.173 359.405 103.357 359.209M103.357 359.209C106.477 359.807 111.072 362.393 110.874 366.329C110.675 370.257 106.668 371.63 101.169 371.352" stroke="black" stroke-width="1.1231" stroke-linejoin="round"/>
<path d="M77.8921 354.943C80.8816 344.902 87.6704 336.954 98.8572 338.747C106.671 339.999 110.571 350.092 112.304 359.956C110.494 360.015 107.046 360.022 103.231 359.813C100.656 359.671 97.914 359.431 95.3956 359.041C89.1463 358.072 81.1227 355.905 77.8921 354.943Z" fill="black"/>
<path d="M123.723 286.391C123.724 287.086 124.248 287.838 125.37 288.448C126.471 289.047 128.029 289.434 129.78 289.433C131.532 289.431 133.089 289.042 134.189 288.441C135.309 287.828 135.833 287.075 135.832 286.381C135.832 285.686 135.307 284.934 134.185 284.323C133.085 283.724 131.527 283.337 129.775 283.339C128.024 283.34 126.466 283.73 125.367 284.331C124.246 284.943 123.723 285.696 123.723 286.391Z" fill="white" stroke="black" stroke-width="1.1231"/>
<circle cx="81.8102" cy="361.55" r="1.4104" transform="rotate(2.88792 81.8102 361.55)" fill="black"/>
<circle cx="87.3766" cy="363.242" r="1.4104" transform="rotate(2.88792 87.3766 363.242)" fill="black"/>
<circle cx="92.9704" cy="364.231" r="1.4104" transform="rotate(2.88792 92.9704 364.231)" fill="black"/>
<circle cx="99.279" cy="365.255" r="1.4104" transform="rotate(2.88792 99.279 365.255)" fill="black"/>
<circle cx="105.22" cy="365.881" r="1.4104" transform="rotate(2.88792 105.22 365.881)" fill="black"/>
</svg>
