<svg width="198" height="168" viewBox="0 0 198 168" fill="none" xmlns="http://www.w3.org/2000/svg">
<path d="M162.647 124.087C165.006 122.607 170.302 118.35 172.623 113.166C174.943 107.981 175.576 100.625 175.603 97.595L165.868 92.0756C167.595 91.0037 169.459 88.0591 163.1 84.8555C156.74 81.6519 154.62 83.6217 154.355 85.0071L141.07 78.015L137.039 75.7294L106.809 31.4384L104.774 27.9353C99.7977 28.6384 86.9442 36.5253 75.3427 62.4484C63.7412 88.3714 63.2145 104.136 64.4013 108.777L68.6266 108.37L122.119 105.984L125.942 107.692L130.468 110.065L131.458 113.565L117.197 141.943C117.553 142.977 118.828 145.566 121.085 147.654C123.342 149.741 127.096 149.494 128.692 149.109L149.435 121.558L153.089 119.817L162.647 124.087Z" fill="white"/>
<path d="M137.039 75.7294C136.905 78.6008 135.739 85.9929 132.152 92.5907C128.565 99.1884 123.969 104.268 122.119 105.984M137.039 75.7294L165.868 92.0756M137.039 75.7294L106.809 31.4384M104.774 27.9353C99.7977 28.6384 86.9442 36.5253 75.3427 62.4483C63.7412 88.3714 63.2145 104.136 64.4013 108.777M104.774 27.9353L106.809 31.4384M104.774 27.9353C104.855 28.7776 104.898 29.836 104.883 31.093M64.4013 108.777L68.6266 108.37M64.4013 108.777C65.246 108.544 66.3307 108.083 67.6066 107.352M122.119 105.984L125.942 107.692M122.119 105.984L68.6266 108.37M125.942 107.692C127.597 106.993 132.057 103.499 136.651 95.1071C141.245 86.7156 141.787 80.7735 141.07 78.015L154.355 85.0071M125.942 107.692L130.468 110.065M165.868 92.0756L175.603 97.595C175.576 100.625 174.943 107.981 172.623 113.166C170.302 118.35 165.006 122.607 162.647 124.087L153.089 119.817M165.868 92.0756C167.595 91.0037 169.459 88.0591 163.1 84.8555C156.74 81.6519 154.62 83.6217 154.355 85.0071M165.868 92.0756L154.355 85.0071M153.089 119.817L149.435 121.558M153.089 119.817L130.468 110.065M149.435 121.558L128.692 149.109C127.096 149.494 123.342 149.741 121.085 147.654C118.828 145.566 117.553 142.977 117.197 141.943L131.458 113.565M149.435 121.558L131.458 113.565M131.458 113.565L130.468 110.065M106.809 31.4384C108.091 38.6337 105.185 58.7535 95.7889 77.7287C85.3509 98.8083 73.4554 106.587 68.6266 108.37M104.883 31.093C98.3131 34.2346 86.369 44.4409 78.2994 63.8419C65.5658 94.4561 67.3605 101.52 67.6066 107.352M104.883 31.093C104.798 38.2939 103.517 49.7596 96.3706 66.7214M67.6066 107.352C72.6822 104.445 81.0286 96.1451 89.0761 81.9349M89.0761 81.9349C90.3364 79.7094 91.3499 78.427 92.5959 75.8463C93.7262 73.5049 95.4285 68.9576 96.3706 66.7214M89.0761 81.9349C86.4573 81.0021 82.7781 74.644 86.517 69.5877C90.8767 63.6918 93.9368 65.8609 96.3706 66.7214M164.582 98.7969L154.784 93.6108L151.101 102.011L161.376 106.875L164.582 98.7969Z" stroke="black" stroke-linejoin="round"/>
<path d="M92.5957 75.846C91.3498 78.4268 90.3363 79.7091 89.0759 81.9347C86.4571 81.0018 82.7779 74.6437 86.5168 69.5874C90.8766 63.6916 93.9367 65.8606 96.3704 66.7212C95.4283 68.9574 93.726 73.5047 92.5957 75.846Z" fill="black" stroke="black" stroke-linejoin="round"/>
<path d="M40.0255 39.0667L63.3501 60.9117L43.1471 51.0992L39.3416 56.7154L2.71679 41.8478L10.9976 27.9517L35.1582 47.7157L40.0255 39.0667Z" fill="black" stroke="black" stroke-linejoin="round"/>
<path d="M62.9063 22.8255L70.0175 45.5667L60.4996 31.6951L55.9546 33.8565L37.6233 10.5777L48.1308 4.80299L56.5528 26.5275L62.9063 22.8255Z" fill="black" stroke="black" stroke-linejoin="round"/>
<path d="M33.9716 67.6753L57.2217 72.8874L40.4496 74.1944L40.0489 79.2111L10.7232 83.4471L10.9759 71.46L34.0009 75.0286L33.9716 67.6753Z" fill="black" stroke="black" stroke-linejoin="round"/>
</svg>
